<svg xmlns="http://www.w3.org/2000/svg">
<defs>
<font id="Gilam-Trial-Book" horiz-adv-x="314" >
  <font-face 
    font-family="Gilam-Trial Book"
    font-weight="400"
    font-stretch="normal"
    units-per-em="1000"
    panose-1="0 0 0 0 0 0 0 0 0 0"
    ascent="800"
    descent="-200"
    x-height="505"
    cap-height="716"
    bbox="-93 -199 1110 909"
    underline-thickness="0"
    underline-position="0"
    unicode-range="U+0020-F8FF"
  />
<missing-glyph horiz-adv-x="305" 
d="M200 -82.5q-5 10.5 -14.5 17.5t-21.5 9v-23q6 -1 11 -5t7.5 -9.5t2.5 -11.5q0 -8 -4.5 -15t-12 -11t-15.5 -4q-9 0 -16.5 4t-11.5 11t-4 15q0 6 2.5 11.5t6.5 9.5t10 5v22q-12 -2 -21 -9t-14 -17t-5 -22q0 -15 7 -27t19 -19t27 -7t27 7t18.5 19t6.5 27q0 12 -5 22.5z
M107 -20q7 -12 19 -19t27 -7t27 7t18.5 19t6.5 27t-6.5 27.5t-18.5 19.5t-27 7t-27 -7t-19 -19.5t-7 -27.5t7 -27zM107 382q7 -12 19 -19t27 -7t26.5 7t18.5 19t7 26q0 13 -5 23.5t-14.5 17t-21.5 9.5v-23q6 -1 11 -5t7.5 -9.5t2.5 -12.5q0 -8 -4.5 -15t-12 -11t-15.5 -4
q-9 0 -16.5 4t-11.5 11t-4 15q0 6 2 11.5t6.5 9.5t10.5 6v23q-12 -2 -21 -9.5t-14 -18t-5 -22.5q0 -14 7 -26zM103.5 704q3.5 -8 10.5 -12.5t17 -4.5t16 5t9 13t5 16q1 5 2.5 9.5t3.5 7t6 2.5t6.5 -2t4 -6t1.5 -8t-1.5 -8t-5 -6t-8.5 -2v-23q11 0 19 5t12 13.5t4 20.5
q0 11 -3.5 20t-11 14t-18.5 5q-10 0 -16 -5t-9.5 -13.5t-5.5 -16.5q-1 -5 -2.5 -10t-3.5 -7.5t-6 -2.5q-3 0 -5 2.5t-3 6t-1 7.5t1.5 7.5t4.5 5.5t7 2v21q-10 0 -17.5 -4t-11.5 -12.5t-4 -19.5q0 -12 3.5 -20zM203 79v21h-63l63 46v18h-101v-21h62l-62 -44v-20h101zM123 178
v30h80v21h-80v28h-21v-79h21zM203 252v23l-18 7v40l18 8v23l-101 -41v-21zM123 463v28h80v23h-80v27h-21v-78h21zM165 585q11 0 20.5 5.5t14.5 15.5t5 22q0 11 -5 20.5t-14.5 15t-20.5 5.5h-63v-22h62q6 0 11 -2.5t7.5 -7t2.5 -9.5q0 -6 -2.5 -11t-7.5 -7.5t-11 -2.5h-62
v-22h63zM125 23.5q4 7.5 11.5 11.5t16.5 4q8 0 15.5 -4.5t12 -11.5t4.5 -16q0 -8 -4.5 -15.5t-12 -12t-15.5 -4.5q-9 0 -16 4.5t-11.5 12t-4.5 15.5q0 9 4 16.5zM165 316v-28l-37 14z" />
    <glyph glyph-name="f_f" unicode="ff" 
d="M125 -107h86v-24h-86v-30h-22v84h22v-30zM107.5 418.5q7.5 -13.5 20.5 -21t29 -7.5t29 7.5t20.5 21t7.5 29.5t-7.5 29.5t-20.5 21t-29 7.5t-29 -7.5t-20.5 -21t-7.5 -29.5t7.5 -29.5zM211 -61v23h-37v16l37 21v26l-41 -24q-3 6 -7.5 10.5t-10.5 7t-13 2.5q-10 0 -18.5 -5
t-13 -13.5t-4.5 -19.5v-44h108zM103 65h108v-24h-108v24zM211 79v25l-20 7v43l20 8v26l-108 -44v-23zM211 201v66h-21v-42h-87v-24h108zM211 315v23h-41v38h-22v-38h-23v42h-22v-65h108zM211 524v23h-68l68 50v19h-108v-23h66l-66 -47v-22h108zM125 632v30h86v24h-86v30h-22
v-84h22zM127.5 465.5q4.5 7.5 12 12t17.5 4.5t18 -4.5t12.5 -12t4.5 -17.5q0 -9 -4.5 -17t-12.5 -12.5t-18 -4.5t-17.5 4.5t-12 12.5t-4.5 17q0 10 4.5 17.5zM124 -19q0 5 2 8.5t5 5.5t7 2t7.5 -2t5.5 -5.5t2 -8.5v-19h-29v19zM170 147v-28l-39 14z" />
    <glyph glyph-name="f_i" unicode="fi" 
d="M125 -107h86v-24h-86v-30h-22v84h22v-30zM107.5 418.5q7.5 -13.5 20.5 -21t29 -7.5t29 7.5t20.5 21t7.5 29.5t-7.5 29.5t-20.5 21t-29 7.5t-29 -7.5t-20.5 -21t-7.5 -29.5t7.5 -29.5zM211 -61v23h-37v16l37 21v26l-41 -24q-3 6 -7.5 10.5t-10.5 7t-13 2.5q-10 0 -18.5 -5
t-13 -13.5t-4.5 -19.5v-44h108zM103 65h108v-24h-108v24zM211 79v25l-20 7v43l20 8v26l-108 -44v-23zM211 201v66h-21v-42h-87v-24h108zM211 315v23h-41v38h-22v-38h-23v42h-22v-65h108zM211 524v23h-68l68 50v19h-108v-23h66l-66 -47v-22h108zM125 632v30h86v24h-86v30h-22
v-84h22zM127.5 465.5q4.5 7.5 12 12t17.5 4.5t18 -4.5t12.5 -12t4.5 -17.5q0 -9 -4.5 -17t-12.5 -12.5t-18 -4.5t-17.5 4.5t-12 12.5t-4.5 17q0 10 4.5 17.5zM124 -19q0 5 2 8.5t5 5.5t7 2t7.5 -2t5.5 -5.5t2 -8.5v-19h-29v19zM170 147v-28l-39 14z" />
    <glyph glyph-name="f_j" unicode="fj" 
d="M125 -107h86v-24h-86v-30h-22v84h22v-30zM107.5 418.5q7.5 -13.5 20.5 -21t29 -7.5t29 7.5t20.5 21t7.5 29.5t-7.5 29.5t-20.5 21t-29 7.5t-29 -7.5t-20.5 -21t-7.5 -29.5t7.5 -29.5zM211 -61v23h-37v16l37 21v26l-41 -24q-3 6 -7.5 10.5t-10.5 7t-13 2.5q-10 0 -18.5 -5
t-13 -13.5t-4.5 -19.5v-44h108zM103 65h108v-24h-108v24zM211 79v25l-20 7v43l20 8v26l-108 -44v-23zM211 201v66h-21v-42h-87v-24h108zM211 315v23h-41v38h-22v-38h-23v42h-22v-65h108zM211 524v23h-68l68 50v19h-108v-23h66l-66 -47v-22h108zM125 632v30h86v24h-86v30h-22
v-84h22zM127.5 465.5q4.5 7.5 12 12t17.5 4.5t18 -4.5t12.5 -12t4.5 -17.5q0 -9 -4.5 -17t-12.5 -12.5t-18 -4.5t-17.5 4.5t-12 12.5t-4.5 17q0 10 4.5 17.5zM124 -19q0 5 2 8.5t5 5.5t7 2t7.5 -2t5.5 -5.5t2 -8.5v-19h-29v19zM170 147v-28l-39 14z" />
    <glyph glyph-name=".notdef" horiz-adv-x="305" 
d="M200 -82.5q-5 10.5 -14.5 17.5t-21.5 9v-23q6 -1 11 -5t7.5 -9.5t2.5 -11.5q0 -8 -4.5 -15t-12 -11t-15.5 -4q-9 0 -16.5 4t-11.5 11t-4 15q0 6 2.5 11.5t6.5 9.5t10 5v22q-12 -2 -21 -9t-14 -17t-5 -22q0 -15 7 -27t19 -19t27 -7t27 7t18.5 19t6.5 27q0 12 -5 22.5z
M107 -20q7 -12 19 -19t27 -7t27 7t18.5 19t6.5 27t-6.5 27.5t-18.5 19.5t-27 7t-27 -7t-19 -19.5t-7 -27.5t7 -27zM107 382q7 -12 19 -19t27 -7t26.5 7t18.5 19t7 26q0 13 -5 23.5t-14.5 17t-21.5 9.5v-23q6 -1 11 -5t7.5 -9.5t2.5 -12.5q0 -8 -4.5 -15t-12 -11t-15.5 -4
q-9 0 -16.5 4t-11.5 11t-4 15q0 6 2 11.5t6.5 9.5t10.5 6v23q-12 -2 -21 -9.5t-14 -18t-5 -22.5q0 -14 7 -26zM103.5 704q3.5 -8 10.5 -12.5t17 -4.5t16 5t9 13t5 16q1 5 2.5 9.5t3.5 7t6 2.5t6.5 -2t4 -6t1.5 -8t-1.5 -8t-5 -6t-8.5 -2v-23q11 0 19 5t12 13.5t4 20.5
q0 11 -3.5 20t-11 14t-18.5 5q-10 0 -16 -5t-9.5 -13.5t-5.5 -16.5q-1 -5 -2.5 -10t-3.5 -7.5t-6 -2.5q-3 0 -5 2.5t-3 6t-1 7.5t1.5 7.5t4.5 5.5t7 2v21q-10 0 -17.5 -4t-11.5 -12.5t-4 -19.5q0 -12 3.5 -20zM203 79v21h-63l63 46v18h-101v-21h62l-62 -44v-20h101zM123 178
v30h80v21h-80v28h-21v-79h21zM203 252v23l-18 7v40l18 8v23l-101 -41v-21zM123 463v28h80v23h-80v27h-21v-78h21zM165 585q11 0 20.5 5.5t14.5 15.5t5 22q0 11 -5 20.5t-14.5 15t-20.5 5.5h-63v-22h62q6 0 11 -2.5t7.5 -7t2.5 -9.5q0 -6 -2.5 -11t-7.5 -7.5t-11 -2.5h-62
v-22h63zM125 23.5q4 7.5 11.5 11.5t16.5 4q8 0 15.5 -4.5t12 -11.5t4.5 -16q0 -8 -4.5 -15.5t-12 -12t-15.5 -4.5q-9 0 -16 4.5t-11.5 12t-4.5 15.5q0 9 4 16.5zM165 316v-28l-37 14z" />
    <glyph glyph-name="space" unicode=" " horiz-adv-x="239" 
 />
    <glyph glyph-name="A" unicode="A" horiz-adv-x="641" 
d="M281 700h78l269 -700h-84l-66 178h-318l-66 -178h-81zM453 246l-134 361l-134 -361h268z" />
    <glyph glyph-name="Aacute" unicode="&#xc1;" 
d="M125 -107h86v-24h-86v-30h-22v84h22v-30zM107.5 418.5q7.5 -13.5 20.5 -21t29 -7.5t29 7.5t20.5 21t7.5 29.5t-7.5 29.5t-20.5 21t-29 7.5t-29 -7.5t-20.5 -21t-7.5 -29.5t7.5 -29.5zM211 -61v23h-37v16l37 21v26l-41 -24q-3 6 -7.5 10.5t-10.5 7t-13 2.5q-10 0 -18.5 -5
t-13 -13.5t-4.5 -19.5v-44h108zM103 65h108v-24h-108v24zM211 79v25l-20 7v43l20 8v26l-108 -44v-23zM211 201v66h-21v-42h-87v-24h108zM211 315v23h-41v38h-22v-38h-23v42h-22v-65h108zM211 524v23h-68l68 50v19h-108v-23h66l-66 -47v-22h108zM125 632v30h86v24h-86v30h-22
v-84h22zM127.5 465.5q4.5 7.5 12 12t17.5 4.5t18 -4.5t12.5 -12t4.5 -17.5q0 -9 -4.5 -17t-12.5 -12.5t-18 -4.5t-17.5 4.5t-12 12.5t-4.5 17q0 10 4.5 17.5zM124 -19q0 5 2 8.5t5 5.5t7 2t7.5 -2t5.5 -5.5t2 -8.5v-19h-29v19zM170 147v-28l-39 14z" />
    <glyph glyph-name="Abreve" unicode="&#x102;" 
d="M125 -107h86v-24h-86v-30h-22v84h22v-30zM107.5 418.5q7.5 -13.5 20.5 -21t29 -7.5t29 7.5t20.5 21t7.5 29.5t-7.5 29.5t-20.5 21t-29 7.5t-29 -7.5t-20.5 -21t-7.5 -29.5t7.5 -29.5zM211 -61v23h-37v16l37 21v26l-41 -24q-3 6 -7.5 10.5t-10.5 7t-13 2.5q-10 0 -18.5 -5
t-13 -13.5t-4.5 -19.5v-44h108zM103 65h108v-24h-108v24zM211 79v25l-20 7v43l20 8v26l-108 -44v-23zM211 201v66h-21v-42h-87v-24h108zM211 315v23h-41v38h-22v-38h-23v42h-22v-65h108zM211 524v23h-68l68 50v19h-108v-23h66l-66 -47v-22h108zM125 632v30h86v24h-86v30h-22
v-84h22zM127.5 465.5q4.5 7.5 12 12t17.5 4.5t18 -4.5t12.5 -12t4.5 -17.5q0 -9 -4.5 -17t-12.5 -12.5t-18 -4.5t-17.5 4.5t-12 12.5t-4.5 17q0 10 4.5 17.5zM124 -19q0 5 2 8.5t5 5.5t7 2t7.5 -2t5.5 -5.5t2 -8.5v-19h-29v19zM170 147v-28l-39 14z" />
    <glyph glyph-name="Acircumflex" unicode="&#xc2;" 
d="M125 -107h86v-24h-86v-30h-22v84h22v-30zM107.5 418.5q7.5 -13.5 20.5 -21t29 -7.5t29 7.5t20.5 21t7.5 29.5t-7.5 29.5t-20.5 21t-29 7.5t-29 -7.5t-20.5 -21t-7.5 -29.5t7.5 -29.5zM211 -61v23h-37v16l37 21v26l-41 -24q-3 6 -7.5 10.5t-10.5 7t-13 2.5q-10 0 -18.5 -5
t-13 -13.5t-4.5 -19.5v-44h108zM103 65h108v-24h-108v24zM211 79v25l-20 7v43l20 8v26l-108 -44v-23zM211 201v66h-21v-42h-87v-24h108zM211 315v23h-41v38h-22v-38h-23v42h-22v-65h108zM211 524v23h-68l68 50v19h-108v-23h66l-66 -47v-22h108zM125 632v30h86v24h-86v30h-22
v-84h22zM127.5 465.5q4.5 7.5 12 12t17.5 4.5t18 -4.5t12.5 -12t4.5 -17.5q0 -9 -4.5 -17t-12.5 -12.5t-18 -4.5t-17.5 4.5t-12 12.5t-4.5 17q0 10 4.5 17.5zM124 -19q0 5 2 8.5t5 5.5t7 2t7.5 -2t5.5 -5.5t2 -8.5v-19h-29v19zM170 147v-28l-39 14z" />
    <glyph glyph-name="Adieresis" unicode="&#xc4;" 
d="M125 -107h86v-24h-86v-30h-22v84h22v-30zM107.5 418.5q7.5 -13.5 20.5 -21t29 -7.5t29 7.5t20.5 21t7.5 29.5t-7.5 29.5t-20.5 21t-29 7.5t-29 -7.5t-20.5 -21t-7.5 -29.5t7.5 -29.5zM211 -61v23h-37v16l37 21v26l-41 -24q-3 6 -7.5 10.5t-10.5 7t-13 2.5q-10 0 -18.5 -5
t-13 -13.5t-4.5 -19.5v-44h108zM103 65h108v-24h-108v24zM211 79v25l-20 7v43l20 8v26l-108 -44v-23zM211 201v66h-21v-42h-87v-24h108zM211 315v23h-41v38h-22v-38h-23v42h-22v-65h108zM211 524v23h-68l68 50v19h-108v-23h66l-66 -47v-22h108zM125 632v30h86v24h-86v30h-22
v-84h22zM127.5 465.5q4.5 7.5 12 12t17.5 4.5t18 -4.5t12.5 -12t4.5 -17.5q0 -9 -4.5 -17t-12.5 -12.5t-18 -4.5t-17.5 4.5t-12 12.5t-4.5 17q0 10 4.5 17.5zM124 -19q0 5 2 8.5t5 5.5t7 2t7.5 -2t5.5 -5.5t2 -8.5v-19h-29v19zM170 147v-28l-39 14z" />
    <glyph glyph-name="Agrave" unicode="&#xc0;" 
d="M125 -107h86v-24h-86v-30h-22v84h22v-30zM107.5 418.5q7.5 -13.5 20.5 -21t29 -7.5t29 7.5t20.5 21t7.5 29.5t-7.5 29.5t-20.5 21t-29 7.5t-29 -7.5t-20.5 -21t-7.5 -29.5t7.5 -29.5zM211 -61v23h-37v16l37 21v26l-41 -24q-3 6 -7.5 10.5t-10.5 7t-13 2.5q-10 0 -18.5 -5
t-13 -13.5t-4.5 -19.5v-44h108zM103 65h108v-24h-108v24zM211 79v25l-20 7v43l20 8v26l-108 -44v-23zM211 201v66h-21v-42h-87v-24h108zM211 315v23h-41v38h-22v-38h-23v42h-22v-65h108zM211 524v23h-68l68 50v19h-108v-23h66l-66 -47v-22h108zM125 632v30h86v24h-86v30h-22
v-84h22zM127.5 465.5q4.5 7.5 12 12t17.5 4.5t18 -4.5t12.5 -12t4.5 -17.5q0 -9 -4.5 -17t-12.5 -12.5t-18 -4.5t-17.5 4.5t-12 12.5t-4.5 17q0 10 4.5 17.5zM124 -19q0 5 2 8.5t5 5.5t7 2t7.5 -2t5.5 -5.5t2 -8.5v-19h-29v19zM170 147v-28l-39 14z" />
    <glyph glyph-name="Amacron" unicode="&#x100;" 
d="M125 -107h86v-24h-86v-30h-22v84h22v-30zM107.5 418.5q7.5 -13.5 20.5 -21t29 -7.5t29 7.5t20.5 21t7.5 29.5t-7.5 29.5t-20.5 21t-29 7.5t-29 -7.5t-20.5 -21t-7.5 -29.5t7.5 -29.5zM211 -61v23h-37v16l37 21v26l-41 -24q-3 6 -7.5 10.5t-10.5 7t-13 2.5q-10 0 -18.5 -5
t-13 -13.5t-4.5 -19.5v-44h108zM103 65h108v-24h-108v24zM211 79v25l-20 7v43l20 8v26l-108 -44v-23zM211 201v66h-21v-42h-87v-24h108zM211 315v23h-41v38h-22v-38h-23v42h-22v-65h108zM211 524v23h-68l68 50v19h-108v-23h66l-66 -47v-22h108zM125 632v30h86v24h-86v30h-22
v-84h22zM127.5 465.5q4.5 7.5 12 12t17.5 4.5t18 -4.5t12.5 -12t4.5 -17.5q0 -9 -4.5 -17t-12.5 -12.5t-18 -4.5t-17.5 4.5t-12 12.5t-4.5 17q0 10 4.5 17.5zM124 -19q0 5 2 8.5t5 5.5t7 2t7.5 -2t5.5 -5.5t2 -8.5v-19h-29v19zM170 147v-28l-39 14z" />
    <glyph glyph-name="Aogonek" unicode="&#x104;" 
d="M125 -107h86v-24h-86v-30h-22v84h22v-30zM107.5 418.5q7.5 -13.5 20.5 -21t29 -7.5t29 7.5t20.5 21t7.5 29.5t-7.5 29.5t-20.5 21t-29 7.5t-29 -7.5t-20.5 -21t-7.5 -29.5t7.5 -29.5zM211 -61v23h-37v16l37 21v26l-41 -24q-3 6 -7.5 10.5t-10.5 7t-13 2.5q-10 0 -18.5 -5
t-13 -13.5t-4.5 -19.5v-44h108zM103 65h108v-24h-108v24zM211 79v25l-20 7v43l20 8v26l-108 -44v-23zM211 201v66h-21v-42h-87v-24h108zM211 315v23h-41v38h-22v-38h-23v42h-22v-65h108zM211 524v23h-68l68 50v19h-108v-23h66l-66 -47v-22h108zM125 632v30h86v24h-86v30h-22
v-84h22zM127.5 465.5q4.5 7.5 12 12t17.5 4.5t18 -4.5t12.5 -12t4.5 -17.5q0 -9 -4.5 -17t-12.5 -12.5t-18 -4.5t-17.5 4.5t-12 12.5t-4.5 17q0 10 4.5 17.5zM124 -19q0 5 2 8.5t5 5.5t7 2t7.5 -2t5.5 -5.5t2 -8.5v-19h-29v19zM170 147v-28l-39 14z" />
    <glyph glyph-name="Aring" unicode="&#xc5;" 
d="M125 -107h86v-24h-86v-30h-22v84h22v-30zM107.5 418.5q7.5 -13.5 20.5 -21t29 -7.5t29 7.5t20.5 21t7.5 29.5t-7.5 29.5t-20.5 21t-29 7.5t-29 -7.5t-20.5 -21t-7.5 -29.5t7.5 -29.5zM211 -61v23h-37v16l37 21v26l-41 -24q-3 6 -7.5 10.5t-10.5 7t-13 2.5q-10 0 -18.5 -5
t-13 -13.5t-4.5 -19.5v-44h108zM103 65h108v-24h-108v24zM211 79v25l-20 7v43l20 8v26l-108 -44v-23zM211 201v66h-21v-42h-87v-24h108zM211 315v23h-41v38h-22v-38h-23v42h-22v-65h108zM211 524v23h-68l68 50v19h-108v-23h66l-66 -47v-22h108zM125 632v30h86v24h-86v30h-22
v-84h22zM127.5 465.5q4.5 7.5 12 12t17.5 4.5t18 -4.5t12.5 -12t4.5 -17.5q0 -9 -4.5 -17t-12.5 -12.5t-18 -4.5t-17.5 4.5t-12 12.5t-4.5 17q0 10 4.5 17.5zM124 -19q0 5 2 8.5t5 5.5t7 2t7.5 -2t5.5 -5.5t2 -8.5v-19h-29v19zM170 147v-28l-39 14z" />
    <glyph glyph-name="Aringacute" unicode="&#x1fa;" 
d="M125 -107h86v-24h-86v-30h-22v84h22v-30zM107.5 418.5q7.5 -13.5 20.5 -21t29 -7.5t29 7.5t20.5 21t7.5 29.5t-7.5 29.5t-20.5 21t-29 7.5t-29 -7.5t-20.5 -21t-7.5 -29.5t7.5 -29.5zM211 -61v23h-37v16l37 21v26l-41 -24q-3 6 -7.5 10.5t-10.5 7t-13 2.5q-10 0 -18.5 -5
t-13 -13.5t-4.5 -19.5v-44h108zM103 65h108v-24h-108v24zM211 79v25l-20 7v43l20 8v26l-108 -44v-23zM211 201v66h-21v-42h-87v-24h108zM211 315v23h-41v38h-22v-38h-23v42h-22v-65h108zM211 524v23h-68l68 50v19h-108v-23h66l-66 -47v-22h108zM125 632v30h86v24h-86v30h-22
v-84h22zM127.5 465.5q4.5 7.5 12 12t17.5 4.5t18 -4.5t12.5 -12t4.5 -17.5q0 -9 -4.5 -17t-12.5 -12.5t-18 -4.5t-17.5 4.5t-12 12.5t-4.5 17q0 10 4.5 17.5zM124 -19q0 5 2 8.5t5 5.5t7 2t7.5 -2t5.5 -5.5t2 -8.5v-19h-29v19zM170 147v-28l-39 14z" />
    <glyph glyph-name="Atilde" unicode="&#xc3;" 
d="M125 -107h86v-24h-86v-30h-22v84h22v-30zM107.5 418.5q7.5 -13.5 20.5 -21t29 -7.5t29 7.5t20.5 21t7.5 29.5t-7.5 29.5t-20.5 21t-29 7.5t-29 -7.5t-20.5 -21t-7.5 -29.5t7.5 -29.5zM211 -61v23h-37v16l37 21v26l-41 -24q-3 6 -7.5 10.5t-10.5 7t-13 2.5q-10 0 -18.5 -5
t-13 -13.5t-4.5 -19.5v-44h108zM103 65h108v-24h-108v24zM211 79v25l-20 7v43l20 8v26l-108 -44v-23zM211 201v66h-21v-42h-87v-24h108zM211 315v23h-41v38h-22v-38h-23v42h-22v-65h108zM211 524v23h-68l68 50v19h-108v-23h66l-66 -47v-22h108zM125 632v30h86v24h-86v30h-22
v-84h22zM127.5 465.5q4.5 7.5 12 12t17.5 4.5t18 -4.5t12.5 -12t4.5 -17.5q0 -9 -4.5 -17t-12.5 -12.5t-18 -4.5t-17.5 4.5t-12 12.5t-4.5 17q0 10 4.5 17.5zM124 -19q0 5 2 8.5t5 5.5t7 2t7.5 -2t5.5 -5.5t2 -8.5v-19h-29v19zM170 147v-28l-39 14z" />
    <glyph glyph-name="AE" unicode="&#xc6;" 
d="M125 -107h86v-24h-86v-30h-22v84h22v-30zM107.5 418.5q7.5 -13.5 20.5 -21t29 -7.5t29 7.5t20.5 21t7.5 29.5t-7.5 29.5t-20.5 21t-29 7.5t-29 -7.5t-20.5 -21t-7.5 -29.5t7.5 -29.5zM211 -61v23h-37v16l37 21v26l-41 -24q-3 6 -7.5 10.5t-10.5 7t-13 2.5q-10 0 -18.5 -5
t-13 -13.5t-4.5 -19.5v-44h108zM103 65h108v-24h-108v24zM211 79v25l-20 7v43l20 8v26l-108 -44v-23zM211 201v66h-21v-42h-87v-24h108zM211 315v23h-41v38h-22v-38h-23v42h-22v-65h108zM211 524v23h-68l68 50v19h-108v-23h66l-66 -47v-22h108zM125 632v30h86v24h-86v30h-22
v-84h22zM127.5 465.5q4.5 7.5 12 12t17.5 4.5t18 -4.5t12.5 -12t4.5 -17.5q0 -9 -4.5 -17t-12.5 -12.5t-18 -4.5t-17.5 4.5t-12 12.5t-4.5 17q0 10 4.5 17.5zM124 -19q0 5 2 8.5t5 5.5t7 2t7.5 -2t5.5 -5.5t2 -8.5v-19h-29v19zM170 147v-28l-39 14z" />
    <glyph glyph-name="AEacute" unicode="&#x1fc;" 
d="M125 -107h86v-24h-86v-30h-22v84h22v-30zM107.5 418.5q7.5 -13.5 20.5 -21t29 -7.5t29 7.5t20.5 21t7.5 29.5t-7.5 29.5t-20.5 21t-29 7.5t-29 -7.5t-20.5 -21t-7.5 -29.5t7.5 -29.5zM211 -61v23h-37v16l37 21v26l-41 -24q-3 6 -7.5 10.5t-10.5 7t-13 2.5q-10 0 -18.5 -5
t-13 -13.5t-4.5 -19.5v-44h108zM103 65h108v-24h-108v24zM211 79v25l-20 7v43l20 8v26l-108 -44v-23zM211 201v66h-21v-42h-87v-24h108zM211 315v23h-41v38h-22v-38h-23v42h-22v-65h108zM211 524v23h-68l68 50v19h-108v-23h66l-66 -47v-22h108zM125 632v30h86v24h-86v30h-22
v-84h22zM127.5 465.5q4.5 7.5 12 12t17.5 4.5t18 -4.5t12.5 -12t4.5 -17.5q0 -9 -4.5 -17t-12.5 -12.5t-18 -4.5t-17.5 4.5t-12 12.5t-4.5 17q0 10 4.5 17.5zM124 -19q0 5 2 8.5t5 5.5t7 2t7.5 -2t5.5 -5.5t2 -8.5v-19h-29v19zM170 147v-28l-39 14z" />
    <glyph glyph-name="B" unicode="B" horiz-adv-x="656" 
d="M97 700h262q75 0 124.5 -20.5t74 -61.5t24.5 -103q0 -39 -10 -69.5t-31.5 -52.5t-54.5 -35q39 -13 64.5 -36t37.5 -56.5t12 -76.5q0 -63 -25.5 -105t-76.5 -63t-128 -21h-273v700zM370 68q51 0 84.5 13.5t50 42t16.5 71.5q0 42 -16 69.5t-49.5 41.5t-85.5 14h-195v-252
h195zM364 387q48 0 79 13.5t45.5 40.5t14.5 67q0 42 -16 69.5t-47.5 41t-80.5 13.5h-184v-245h189z" />
    <glyph glyph-name="C" unicode="C" horiz-adv-x="550" 
d="M180 26q-63 39 -94.5 119.5t-31.5 204.5t31.5 204.5t94.5 119.5t159 39q32 0 62.5 -5t55 -12.5t41.5 -14.5l4 -75q-15 9 -40 17.5t-56 14.5t-62 6q-72 0 -118 -30t-69 -94.5t-23 -169.5t23 -169.5t69 -94.5t118 -30q32 0 64.5 6t59 14.5t45.5 17.5l-11 -77
q-16 -7 -42 -14t-57.5 -11.5t-63.5 -4.5q-96 0 -159 39z" />
    <glyph glyph-name="Cacute" unicode="&#x106;" 
d="M125 -107h86v-24h-86v-30h-22v84h22v-30zM107.5 418.5q7.5 -13.5 20.5 -21t29 -7.5t29 7.5t20.5 21t7.5 29.5t-7.5 29.5t-20.5 21t-29 7.5t-29 -7.5t-20.5 -21t-7.5 -29.5t7.5 -29.5zM211 -61v23h-37v16l37 21v26l-41 -24q-3 6 -7.5 10.5t-10.5 7t-13 2.5q-10 0 -18.5 -5
t-13 -13.5t-4.5 -19.5v-44h108zM103 65h108v-24h-108v24zM211 79v25l-20 7v43l20 8v26l-108 -44v-23zM211 201v66h-21v-42h-87v-24h108zM211 315v23h-41v38h-22v-38h-23v42h-22v-65h108zM211 524v23h-68l68 50v19h-108v-23h66l-66 -47v-22h108zM125 632v30h86v24h-86v30h-22
v-84h22zM127.5 465.5q4.5 7.5 12 12t17.5 4.5t18 -4.5t12.5 -12t4.5 -17.5q0 -9 -4.5 -17t-12.5 -12.5t-18 -4.5t-17.5 4.5t-12 12.5t-4.5 17q0 10 4.5 17.5zM124 -19q0 5 2 8.5t5 5.5t7 2t7.5 -2t5.5 -5.5t2 -8.5v-19h-29v19zM170 147v-28l-39 14z" />
    <glyph glyph-name="Ccaron" unicode="&#x10c;" 
d="M125 -107h86v-24h-86v-30h-22v84h22v-30zM107.5 418.5q7.5 -13.5 20.5 -21t29 -7.5t29 7.5t20.5 21t7.5 29.5t-7.5 29.5t-20.5 21t-29 7.5t-29 -7.5t-20.5 -21t-7.5 -29.5t7.5 -29.5zM211 -61v23h-37v16l37 21v26l-41 -24q-3 6 -7.5 10.5t-10.5 7t-13 2.5q-10 0 -18.5 -5
t-13 -13.5t-4.5 -19.5v-44h108zM103 65h108v-24h-108v24zM211 79v25l-20 7v43l20 8v26l-108 -44v-23zM211 201v66h-21v-42h-87v-24h108zM211 315v23h-41v38h-22v-38h-23v42h-22v-65h108zM211 524v23h-68l68 50v19h-108v-23h66l-66 -47v-22h108zM125 632v30h86v24h-86v30h-22
v-84h22zM127.5 465.5q4.5 7.5 12 12t17.5 4.5t18 -4.5t12.5 -12t4.5 -17.5q0 -9 -4.5 -17t-12.5 -12.5t-18 -4.5t-17.5 4.5t-12 12.5t-4.5 17q0 10 4.5 17.5zM124 -19q0 5 2 8.5t5 5.5t7 2t7.5 -2t5.5 -5.5t2 -8.5v-19h-29v19zM170 147v-28l-39 14z" />
    <glyph glyph-name="Ccedilla" unicode="&#xc7;" 
d="M125 -107h86v-24h-86v-30h-22v84h22v-30zM107.5 418.5q7.5 -13.5 20.5 -21t29 -7.5t29 7.5t20.5 21t7.5 29.5t-7.5 29.5t-20.5 21t-29 7.5t-29 -7.5t-20.5 -21t-7.5 -29.5t7.5 -29.5zM211 -61v23h-37v16l37 21v26l-41 -24q-3 6 -7.5 10.5t-10.5 7t-13 2.5q-10 0 -18.5 -5
t-13 -13.5t-4.5 -19.5v-44h108zM103 65h108v-24h-108v24zM211 79v25l-20 7v43l20 8v26l-108 -44v-23zM211 201v66h-21v-42h-87v-24h108zM211 315v23h-41v38h-22v-38h-23v42h-22v-65h108zM211 524v23h-68l68 50v19h-108v-23h66l-66 -47v-22h108zM125 632v30h86v24h-86v30h-22
v-84h22zM127.5 465.5q4.5 7.5 12 12t17.5 4.5t18 -4.5t12.5 -12t4.5 -17.5q0 -9 -4.5 -17t-12.5 -12.5t-18 -4.5t-17.5 4.5t-12 12.5t-4.5 17q0 10 4.5 17.5zM124 -19q0 5 2 8.5t5 5.5t7 2t7.5 -2t5.5 -5.5t2 -8.5v-19h-29v19zM170 147v-28l-39 14z" />
    <glyph glyph-name="Ccircumflex" unicode="&#x108;" 
d="M125 -107h86v-24h-86v-30h-22v84h22v-30zM107.5 418.5q7.5 -13.5 20.5 -21t29 -7.5t29 7.5t20.5 21t7.5 29.5t-7.5 29.5t-20.5 21t-29 7.5t-29 -7.5t-20.5 -21t-7.5 -29.5t7.5 -29.5zM211 -61v23h-37v16l37 21v26l-41 -24q-3 6 -7.5 10.5t-10.5 7t-13 2.5q-10 0 -18.5 -5
t-13 -13.5t-4.5 -19.5v-44h108zM103 65h108v-24h-108v24zM211 79v25l-20 7v43l20 8v26l-108 -44v-23zM211 201v66h-21v-42h-87v-24h108zM211 315v23h-41v38h-22v-38h-23v42h-22v-65h108zM211 524v23h-68l68 50v19h-108v-23h66l-66 -47v-22h108zM125 632v30h86v24h-86v30h-22
v-84h22zM127.5 465.5q4.5 7.5 12 12t17.5 4.5t18 -4.5t12.5 -12t4.5 -17.5q0 -9 -4.5 -17t-12.5 -12.5t-18 -4.5t-17.5 4.5t-12 12.5t-4.5 17q0 10 4.5 17.5zM124 -19q0 5 2 8.5t5 5.5t7 2t7.5 -2t5.5 -5.5t2 -8.5v-19h-29v19zM170 147v-28l-39 14z" />
    <glyph glyph-name="Cdotaccent" unicode="&#x10a;" 
d="M125 -107h86v-24h-86v-30h-22v84h22v-30zM107.5 418.5q7.5 -13.5 20.5 -21t29 -7.5t29 7.5t20.5 21t7.5 29.5t-7.5 29.5t-20.5 21t-29 7.5t-29 -7.5t-20.5 -21t-7.5 -29.5t7.5 -29.5zM211 -61v23h-37v16l37 21v26l-41 -24q-3 6 -7.5 10.5t-10.5 7t-13 2.5q-10 0 -18.5 -5
t-13 -13.5t-4.5 -19.5v-44h108zM103 65h108v-24h-108v24zM211 79v25l-20 7v43l20 8v26l-108 -44v-23zM211 201v66h-21v-42h-87v-24h108zM211 315v23h-41v38h-22v-38h-23v42h-22v-65h108zM211 524v23h-68l68 50v19h-108v-23h66l-66 -47v-22h108zM125 632v30h86v24h-86v30h-22
v-84h22zM127.5 465.5q4.5 7.5 12 12t17.5 4.5t18 -4.5t12.5 -12t4.5 -17.5q0 -9 -4.5 -17t-12.5 -12.5t-18 -4.5t-17.5 4.5t-12 12.5t-4.5 17q0 10 4.5 17.5zM124 -19q0 5 2 8.5t5 5.5t7 2t7.5 -2t5.5 -5.5t2 -8.5v-19h-29v19zM170 147v-28l-39 14z" />
    <glyph glyph-name="D" unicode="D" horiz-adv-x="658" 
d="M97 700h238q93 0 151.5 -35t87.5 -112t29 -203t-29 -203t-87.5 -112t-151.5 -35h-238v700zM335 70q66 0 107 25.5t61.5 87t20.5 167.5t-20.5 167.5t-61.5 87t-107 25.5h-160v-560h160z" />
    <glyph glyph-name="Eth" unicode="&#xd0;" 
d="M125 -107h86v-24h-86v-30h-22v84h22v-30zM107.5 418.5q7.5 -13.5 20.5 -21t29 -7.5t29 7.5t20.5 21t7.5 29.5t-7.5 29.5t-20.5 21t-29 7.5t-29 -7.5t-20.5 -21t-7.5 -29.5t7.5 -29.5zM211 -61v23h-37v16l37 21v26l-41 -24q-3 6 -7.5 10.5t-10.5 7t-13 2.5q-10 0 -18.5 -5
t-13 -13.5t-4.5 -19.5v-44h108zM103 65h108v-24h-108v24zM211 79v25l-20 7v43l20 8v26l-108 -44v-23zM211 201v66h-21v-42h-87v-24h108zM211 315v23h-41v38h-22v-38h-23v42h-22v-65h108zM211 524v23h-68l68 50v19h-108v-23h66l-66 -47v-22h108zM125 632v30h86v24h-86v30h-22
v-84h22zM127.5 465.5q4.5 7.5 12 12t17.5 4.5t18 -4.5t12.5 -12t4.5 -17.5q0 -9 -4.5 -17t-12.5 -12.5t-18 -4.5t-17.5 4.5t-12 12.5t-4.5 17q0 10 4.5 17.5zM124 -19q0 5 2 8.5t5 5.5t7 2t7.5 -2t5.5 -5.5t2 -8.5v-19h-29v19zM170 147v-28l-39 14z" />
    <glyph glyph-name="Dcaron" unicode="&#x10e;" 
d="M125 -107h86v-24h-86v-30h-22v84h22v-30zM107.5 418.5q7.5 -13.5 20.5 -21t29 -7.5t29 7.5t20.5 21t7.5 29.5t-7.5 29.5t-20.5 21t-29 7.5t-29 -7.5t-20.5 -21t-7.5 -29.5t7.5 -29.5zM211 -61v23h-37v16l37 21v26l-41 -24q-3 6 -7.5 10.5t-10.5 7t-13 2.5q-10 0 -18.5 -5
t-13 -13.5t-4.5 -19.5v-44h108zM103 65h108v-24h-108v24zM211 79v25l-20 7v43l20 8v26l-108 -44v-23zM211 201v66h-21v-42h-87v-24h108zM211 315v23h-41v38h-22v-38h-23v42h-22v-65h108zM211 524v23h-68l68 50v19h-108v-23h66l-66 -47v-22h108zM125 632v30h86v24h-86v30h-22
v-84h22zM127.5 465.5q4.5 7.5 12 12t17.5 4.5t18 -4.5t12.5 -12t4.5 -17.5q0 -9 -4.5 -17t-12.5 -12.5t-18 -4.5t-17.5 4.5t-12 12.5t-4.5 17q0 10 4.5 17.5zM124 -19q0 5 2 8.5t5 5.5t7 2t7.5 -2t5.5 -5.5t2 -8.5v-19h-29v19zM170 147v-28l-39 14z" />
    <glyph glyph-name="Dcroat" unicode="&#x110;" 
d="M125 -107h86v-24h-86v-30h-22v84h22v-30zM107.5 418.5q7.5 -13.5 20.5 -21t29 -7.5t29 7.5t20.5 21t7.5 29.5t-7.5 29.5t-20.5 21t-29 7.5t-29 -7.5t-20.5 -21t-7.5 -29.5t7.5 -29.5zM211 -61v23h-37v16l37 21v26l-41 -24q-3 6 -7.5 10.5t-10.5 7t-13 2.5q-10 0 -18.5 -5
t-13 -13.5t-4.5 -19.5v-44h108zM103 65h108v-24h-108v24zM211 79v25l-20 7v43l20 8v26l-108 -44v-23zM211 201v66h-21v-42h-87v-24h108zM211 315v23h-41v38h-22v-38h-23v42h-22v-65h108zM211 524v23h-68l68 50v19h-108v-23h66l-66 -47v-22h108zM125 632v30h86v24h-86v30h-22
v-84h22zM127.5 465.5q4.5 7.5 12 12t17.5 4.5t18 -4.5t12.5 -12t4.5 -17.5q0 -9 -4.5 -17t-12.5 -12.5t-18 -4.5t-17.5 4.5t-12 12.5t-4.5 17q0 10 4.5 17.5zM124 -19q0 5 2 8.5t5 5.5t7 2t7.5 -2t5.5 -5.5t2 -8.5v-19h-29v19zM170 147v-28l-39 14z" />
    <glyph glyph-name="E" unicode="E" horiz-adv-x="595" 
d="M97 700h443l4 -70h-369v-241h332v-71h-332v-248h375l-11 -70h-442v700z" />
    <glyph glyph-name="Eacute" unicode="&#xc9;" 
d="M125 -107h86v-24h-86v-30h-22v84h22v-30zM107.5 418.5q7.5 -13.5 20.5 -21t29 -7.5t29 7.5t20.5 21t7.5 29.5t-7.5 29.5t-20.5 21t-29 7.5t-29 -7.5t-20.5 -21t-7.5 -29.5t7.5 -29.5zM211 -61v23h-37v16l37 21v26l-41 -24q-3 6 -7.5 10.5t-10.5 7t-13 2.5q-10 0 -18.5 -5
t-13 -13.5t-4.5 -19.5v-44h108zM103 65h108v-24h-108v24zM211 79v25l-20 7v43l20 8v26l-108 -44v-23zM211 201v66h-21v-42h-87v-24h108zM211 315v23h-41v38h-22v-38h-23v42h-22v-65h108zM211 524v23h-68l68 50v19h-108v-23h66l-66 -47v-22h108zM125 632v30h86v24h-86v30h-22
v-84h22zM127.5 465.5q4.5 7.5 12 12t17.5 4.5t18 -4.5t12.5 -12t4.5 -17.5q0 -9 -4.5 -17t-12.5 -12.5t-18 -4.5t-17.5 4.5t-12 12.5t-4.5 17q0 10 4.5 17.5zM124 -19q0 5 2 8.5t5 5.5t7 2t7.5 -2t5.5 -5.5t2 -8.5v-19h-29v19zM170 147v-28l-39 14z" />
    <glyph glyph-name="Ebreve" unicode="&#x114;" 
d="M125 -107h86v-24h-86v-30h-22v84h22v-30zM107.5 418.5q7.5 -13.5 20.5 -21t29 -7.5t29 7.5t20.5 21t7.5 29.5t-7.5 29.5t-20.5 21t-29 7.5t-29 -7.5t-20.5 -21t-7.5 -29.5t7.5 -29.5zM211 -61v23h-37v16l37 21v26l-41 -24q-3 6 -7.5 10.5t-10.5 7t-13 2.5q-10 0 -18.5 -5
t-13 -13.5t-4.5 -19.5v-44h108zM103 65h108v-24h-108v24zM211 79v25l-20 7v43l20 8v26l-108 -44v-23zM211 201v66h-21v-42h-87v-24h108zM211 315v23h-41v38h-22v-38h-23v42h-22v-65h108zM211 524v23h-68l68 50v19h-108v-23h66l-66 -47v-22h108zM125 632v30h86v24h-86v30h-22
v-84h22zM127.5 465.5q4.5 7.5 12 12t17.5 4.5t18 -4.5t12.5 -12t4.5 -17.5q0 -9 -4.5 -17t-12.5 -12.5t-18 -4.5t-17.5 4.5t-12 12.5t-4.5 17q0 10 4.5 17.5zM124 -19q0 5 2 8.5t5 5.5t7 2t7.5 -2t5.5 -5.5t2 -8.5v-19h-29v19zM170 147v-28l-39 14z" />
    <glyph glyph-name="Ecaron" unicode="&#x11a;" 
d="M125 -107h86v-24h-86v-30h-22v84h22v-30zM107.5 418.5q7.5 -13.5 20.5 -21t29 -7.5t29 7.5t20.5 21t7.5 29.5t-7.5 29.5t-20.5 21t-29 7.5t-29 -7.5t-20.5 -21t-7.5 -29.5t7.5 -29.5zM211 -61v23h-37v16l37 21v26l-41 -24q-3 6 -7.5 10.5t-10.5 7t-13 2.5q-10 0 -18.5 -5
t-13 -13.5t-4.5 -19.5v-44h108zM103 65h108v-24h-108v24zM211 79v25l-20 7v43l20 8v26l-108 -44v-23zM211 201v66h-21v-42h-87v-24h108zM211 315v23h-41v38h-22v-38h-23v42h-22v-65h108zM211 524v23h-68l68 50v19h-108v-23h66l-66 -47v-22h108zM125 632v30h86v24h-86v30h-22
v-84h22zM127.5 465.5q4.5 7.5 12 12t17.5 4.5t18 -4.5t12.5 -12t4.5 -17.5q0 -9 -4.5 -17t-12.5 -12.5t-18 -4.5t-17.5 4.5t-12 12.5t-4.5 17q0 10 4.5 17.5zM124 -19q0 5 2 8.5t5 5.5t7 2t7.5 -2t5.5 -5.5t2 -8.5v-19h-29v19zM170 147v-28l-39 14z" />
    <glyph glyph-name="Ecircumflex" unicode="&#xca;" 
d="M125 -107h86v-24h-86v-30h-22v84h22v-30zM107.5 418.5q7.5 -13.5 20.5 -21t29 -7.5t29 7.5t20.5 21t7.5 29.5t-7.5 29.5t-20.5 21t-29 7.5t-29 -7.5t-20.5 -21t-7.5 -29.5t7.5 -29.5zM211 -61v23h-37v16l37 21v26l-41 -24q-3 6 -7.5 10.5t-10.5 7t-13 2.5q-10 0 -18.5 -5
t-13 -13.5t-4.5 -19.5v-44h108zM103 65h108v-24h-108v24zM211 79v25l-20 7v43l20 8v26l-108 -44v-23zM211 201v66h-21v-42h-87v-24h108zM211 315v23h-41v38h-22v-38h-23v42h-22v-65h108zM211 524v23h-68l68 50v19h-108v-23h66l-66 -47v-22h108zM125 632v30h86v24h-86v30h-22
v-84h22zM127.5 465.5q4.5 7.5 12 12t17.5 4.5t18 -4.5t12.5 -12t4.5 -17.5q0 -9 -4.5 -17t-12.5 -12.5t-18 -4.5t-17.5 4.5t-12 12.5t-4.5 17q0 10 4.5 17.5zM124 -19q0 5 2 8.5t5 5.5t7 2t7.5 -2t5.5 -5.5t2 -8.5v-19h-29v19zM170 147v-28l-39 14z" />
    <glyph glyph-name="Edieresis" unicode="&#xcb;" 
d="M125 -107h86v-24h-86v-30h-22v84h22v-30zM107.5 418.5q7.5 -13.5 20.5 -21t29 -7.5t29 7.5t20.5 21t7.5 29.5t-7.5 29.5t-20.5 21t-29 7.5t-29 -7.5t-20.5 -21t-7.5 -29.5t7.5 -29.5zM211 -61v23h-37v16l37 21v26l-41 -24q-3 6 -7.5 10.5t-10.5 7t-13 2.5q-10 0 -18.5 -5
t-13 -13.5t-4.5 -19.5v-44h108zM103 65h108v-24h-108v24zM211 79v25l-20 7v43l20 8v26l-108 -44v-23zM211 201v66h-21v-42h-87v-24h108zM211 315v23h-41v38h-22v-38h-23v42h-22v-65h108zM211 524v23h-68l68 50v19h-108v-23h66l-66 -47v-22h108zM125 632v30h86v24h-86v30h-22
v-84h22zM127.5 465.5q4.5 7.5 12 12t17.5 4.5t18 -4.5t12.5 -12t4.5 -17.5q0 -9 -4.5 -17t-12.5 -12.5t-18 -4.5t-17.5 4.5t-12 12.5t-4.5 17q0 10 4.5 17.5zM124 -19q0 5 2 8.5t5 5.5t7 2t7.5 -2t5.5 -5.5t2 -8.5v-19h-29v19zM170 147v-28l-39 14z" />
    <glyph glyph-name="Edotaccent" unicode="&#x116;" 
d="M125 -107h86v-24h-86v-30h-22v84h22v-30zM107.5 418.5q7.5 -13.5 20.5 -21t29 -7.5t29 7.5t20.5 21t7.5 29.5t-7.5 29.5t-20.5 21t-29 7.5t-29 -7.5t-20.5 -21t-7.5 -29.5t7.5 -29.5zM211 -61v23h-37v16l37 21v26l-41 -24q-3 6 -7.5 10.5t-10.5 7t-13 2.5q-10 0 -18.5 -5
t-13 -13.5t-4.5 -19.5v-44h108zM103 65h108v-24h-108v24zM211 79v25l-20 7v43l20 8v26l-108 -44v-23zM211 201v66h-21v-42h-87v-24h108zM211 315v23h-41v38h-22v-38h-23v42h-22v-65h108zM211 524v23h-68l68 50v19h-108v-23h66l-66 -47v-22h108zM125 632v30h86v24h-86v30h-22
v-84h22zM127.5 465.5q4.5 7.5 12 12t17.5 4.5t18 -4.5t12.5 -12t4.5 -17.5q0 -9 -4.5 -17t-12.5 -12.5t-18 -4.5t-17.5 4.5t-12 12.5t-4.5 17q0 10 4.5 17.5zM124 -19q0 5 2 8.5t5 5.5t7 2t7.5 -2t5.5 -5.5t2 -8.5v-19h-29v19zM170 147v-28l-39 14z" />
    <glyph glyph-name="Egrave" unicode="&#xc8;" 
d="M125 -107h86v-24h-86v-30h-22v84h22v-30zM107.5 418.5q7.5 -13.5 20.5 -21t29 -7.5t29 7.5t20.5 21t7.5 29.5t-7.5 29.5t-20.5 21t-29 7.5t-29 -7.5t-20.5 -21t-7.5 -29.5t7.5 -29.5zM211 -61v23h-37v16l37 21v26l-41 -24q-3 6 -7.5 10.5t-10.5 7t-13 2.5q-10 0 -18.5 -5
t-13 -13.5t-4.5 -19.5v-44h108zM103 65h108v-24h-108v24zM211 79v25l-20 7v43l20 8v26l-108 -44v-23zM211 201v66h-21v-42h-87v-24h108zM211 315v23h-41v38h-22v-38h-23v42h-22v-65h108zM211 524v23h-68l68 50v19h-108v-23h66l-66 -47v-22h108zM125 632v30h86v24h-86v30h-22
v-84h22zM127.5 465.5q4.5 7.5 12 12t17.5 4.5t18 -4.5t12.5 -12t4.5 -17.5q0 -9 -4.5 -17t-12.5 -12.5t-18 -4.5t-17.5 4.5t-12 12.5t-4.5 17q0 10 4.5 17.5zM124 -19q0 5 2 8.5t5 5.5t7 2t7.5 -2t5.5 -5.5t2 -8.5v-19h-29v19zM170 147v-28l-39 14z" />
    <glyph glyph-name="Emacron" unicode="&#x112;" 
d="M125 -107h86v-24h-86v-30h-22v84h22v-30zM107.5 418.5q7.5 -13.5 20.5 -21t29 -7.5t29 7.5t20.5 21t7.5 29.5t-7.5 29.5t-20.5 21t-29 7.5t-29 -7.5t-20.5 -21t-7.5 -29.5t7.5 -29.5zM211 -61v23h-37v16l37 21v26l-41 -24q-3 6 -7.5 10.5t-10.5 7t-13 2.5q-10 0 -18.5 -5
t-13 -13.5t-4.5 -19.5v-44h108zM103 65h108v-24h-108v24zM211 79v25l-20 7v43l20 8v26l-108 -44v-23zM211 201v66h-21v-42h-87v-24h108zM211 315v23h-41v38h-22v-38h-23v42h-22v-65h108zM211 524v23h-68l68 50v19h-108v-23h66l-66 -47v-22h108zM125 632v30h86v24h-86v30h-22
v-84h22zM127.5 465.5q4.5 7.5 12 12t17.5 4.5t18 -4.5t12.5 -12t4.5 -17.5q0 -9 -4.5 -17t-12.5 -12.5t-18 -4.5t-17.5 4.5t-12 12.5t-4.5 17q0 10 4.5 17.5zM124 -19q0 5 2 8.5t5 5.5t7 2t7.5 -2t5.5 -5.5t2 -8.5v-19h-29v19zM170 147v-28l-39 14z" />
    <glyph glyph-name="Eogonek" unicode="&#x118;" 
d="M125 -107h86v-24h-86v-30h-22v84h22v-30zM107.5 418.5q7.5 -13.5 20.5 -21t29 -7.5t29 7.5t20.5 21t7.5 29.5t-7.5 29.5t-20.5 21t-29 7.5t-29 -7.5t-20.5 -21t-7.5 -29.5t7.5 -29.5zM211 -61v23h-37v16l37 21v26l-41 -24q-3 6 -7.5 10.5t-10.5 7t-13 2.5q-10 0 -18.5 -5
t-13 -13.5t-4.5 -19.5v-44h108zM103 65h108v-24h-108v24zM211 79v25l-20 7v43l20 8v26l-108 -44v-23zM211 201v66h-21v-42h-87v-24h108zM211 315v23h-41v38h-22v-38h-23v42h-22v-65h108zM211 524v23h-68l68 50v19h-108v-23h66l-66 -47v-22h108zM125 632v30h86v24h-86v30h-22
v-84h22zM127.5 465.5q4.5 7.5 12 12t17.5 4.5t18 -4.5t12.5 -12t4.5 -17.5q0 -9 -4.5 -17t-12.5 -12.5t-18 -4.5t-17.5 4.5t-12 12.5t-4.5 17q0 10 4.5 17.5zM124 -19q0 5 2 8.5t5 5.5t7 2t7.5 -2t5.5 -5.5t2 -8.5v-19h-29v19zM170 147v-28l-39 14z" />
    <glyph glyph-name="F" unicode="F" horiz-adv-x="575" 
d="M97 700h444l4 -70h-370v-246h332v-71h-332v-313h-78v700z" />
    <glyph glyph-name="G" unicode="G" horiz-adv-x="613" 
d="M185.5 26q-66.5 39 -99.5 119.5t-33 204.5t33 204.5t99 119.5t167 39q37 0 71.5 -5t62 -12t44.5 -15l4 -75q-18 9 -46 17.5t-64 14.5t-72 6q-75 0 -123 -30t-72 -94.5t-24 -169.5t24 -169.5t72 -94.5t124 -30q20 0 41.5 2.5t41 6t36.5 8.5v302h78v-352q-23 -10 -54 -18
t-68 -13t-75 -5q-101 0 -167.5 39z" />
    <glyph glyph-name="Gbreve" unicode="&#x11e;" 
d="M125 -107h86v-24h-86v-30h-22v84h22v-30zM107.5 418.5q7.5 -13.5 20.5 -21t29 -7.5t29 7.5t20.5 21t7.5 29.5t-7.5 29.5t-20.5 21t-29 7.5t-29 -7.5t-20.5 -21t-7.5 -29.5t7.5 -29.5zM211 -61v23h-37v16l37 21v26l-41 -24q-3 6 -7.5 10.5t-10.5 7t-13 2.5q-10 0 -18.5 -5
t-13 -13.5t-4.5 -19.5v-44h108zM103 65h108v-24h-108v24zM211 79v25l-20 7v43l20 8v26l-108 -44v-23zM211 201v66h-21v-42h-87v-24h108zM211 315v23h-41v38h-22v-38h-23v42h-22v-65h108zM211 524v23h-68l68 50v19h-108v-23h66l-66 -47v-22h108zM125 632v30h86v24h-86v30h-22
v-84h22zM127.5 465.5q4.5 7.5 12 12t17.5 4.5t18 -4.5t12.5 -12t4.5 -17.5q0 -9 -4.5 -17t-12.5 -12.5t-18 -4.5t-17.5 4.5t-12 12.5t-4.5 17q0 10 4.5 17.5zM124 -19q0 5 2 8.5t5 5.5t7 2t7.5 -2t5.5 -5.5t2 -8.5v-19h-29v19zM170 147v-28l-39 14z" />
    <glyph glyph-name="Gcircumflex" unicode="&#x11c;" 
d="M125 -107h86v-24h-86v-30h-22v84h22v-30zM107.5 418.5q7.5 -13.5 20.5 -21t29 -7.5t29 7.5t20.5 21t7.5 29.5t-7.5 29.5t-20.5 21t-29 7.5t-29 -7.5t-20.5 -21t-7.5 -29.5t7.5 -29.5zM211 -61v23h-37v16l37 21v26l-41 -24q-3 6 -7.5 10.5t-10.5 7t-13 2.5q-10 0 -18.5 -5
t-13 -13.5t-4.5 -19.5v-44h108zM103 65h108v-24h-108v24zM211 79v25l-20 7v43l20 8v26l-108 -44v-23zM211 201v66h-21v-42h-87v-24h108zM211 315v23h-41v38h-22v-38h-23v42h-22v-65h108zM211 524v23h-68l68 50v19h-108v-23h66l-66 -47v-22h108zM125 632v30h86v24h-86v30h-22
v-84h22zM127.5 465.5q4.5 7.5 12 12t17.5 4.5t18 -4.5t12.5 -12t4.5 -17.5q0 -9 -4.5 -17t-12.5 -12.5t-18 -4.5t-17.5 4.5t-12 12.5t-4.5 17q0 10 4.5 17.5zM124 -19q0 5 2 8.5t5 5.5t7 2t7.5 -2t5.5 -5.5t2 -8.5v-19h-29v19zM170 147v-28l-39 14z" />
    <glyph glyph-name="uni0122" unicode="&#x122;" 
d="M125 -107h86v-24h-86v-30h-22v84h22v-30zM107.5 418.5q7.5 -13.5 20.5 -21t29 -7.5t29 7.5t20.5 21t7.5 29.5t-7.5 29.5t-20.5 21t-29 7.5t-29 -7.5t-20.5 -21t-7.5 -29.5t7.5 -29.5zM211 -61v23h-37v16l37 21v26l-41 -24q-3 6 -7.5 10.5t-10.5 7t-13 2.5q-10 0 -18.5 -5
t-13 -13.5t-4.5 -19.5v-44h108zM103 65h108v-24h-108v24zM211 79v25l-20 7v43l20 8v26l-108 -44v-23zM211 201v66h-21v-42h-87v-24h108zM211 315v23h-41v38h-22v-38h-23v42h-22v-65h108zM211 524v23h-68l68 50v19h-108v-23h66l-66 -47v-22h108zM125 632v30h86v24h-86v30h-22
v-84h22zM127.5 465.5q4.5 7.5 12 12t17.5 4.5t18 -4.5t12.5 -12t4.5 -17.5q0 -9 -4.5 -17t-12.5 -12.5t-18 -4.5t-17.5 4.5t-12 12.5t-4.5 17q0 10 4.5 17.5zM124 -19q0 5 2 8.5t5 5.5t7 2t7.5 -2t5.5 -5.5t2 -8.5v-19h-29v19zM170 147v-28l-39 14z" />
    <glyph glyph-name="Gdotaccent" unicode="&#x120;" 
d="M125 -107h86v-24h-86v-30h-22v84h22v-30zM107.5 418.5q7.5 -13.5 20.5 -21t29 -7.5t29 7.5t20.5 21t7.5 29.5t-7.5 29.5t-20.5 21t-29 7.5t-29 -7.5t-20.5 -21t-7.5 -29.5t7.5 -29.5zM211 -61v23h-37v16l37 21v26l-41 -24q-3 6 -7.5 10.5t-10.5 7t-13 2.5q-10 0 -18.5 -5
t-13 -13.5t-4.5 -19.5v-44h108zM103 65h108v-24h-108v24zM211 79v25l-20 7v43l20 8v26l-108 -44v-23zM211 201v66h-21v-42h-87v-24h108zM211 315v23h-41v38h-22v-38h-23v42h-22v-65h108zM211 524v23h-68l68 50v19h-108v-23h66l-66 -47v-22h108zM125 632v30h86v24h-86v30h-22
v-84h22zM127.5 465.5q4.5 7.5 12 12t17.5 4.5t18 -4.5t12.5 -12t4.5 -17.5q0 -9 -4.5 -17t-12.5 -12.5t-18 -4.5t-17.5 4.5t-12 12.5t-4.5 17q0 10 4.5 17.5zM124 -19q0 5 2 8.5t5 5.5t7 2t7.5 -2t5.5 -5.5t2 -8.5v-19h-29v19zM170 147v-28l-39 14z" />
    <glyph glyph-name="H" unicode="H" horiz-adv-x="688" 
d="M591 700v-700h-78v318h-338v-318h-78v700h78v-311h338v311h78z" />
    <glyph glyph-name="Hbar" unicode="&#x126;" 
d="M125 -107h86v-24h-86v-30h-22v84h22v-30zM107.5 418.5q7.5 -13.5 20.5 -21t29 -7.5t29 7.5t20.5 21t7.5 29.5t-7.5 29.5t-20.5 21t-29 7.5t-29 -7.5t-20.5 -21t-7.5 -29.5t7.5 -29.5zM211 -61v23h-37v16l37 21v26l-41 -24q-3 6 -7.5 10.5t-10.5 7t-13 2.5q-10 0 -18.5 -5
t-13 -13.5t-4.5 -19.5v-44h108zM103 65h108v-24h-108v24zM211 79v25l-20 7v43l20 8v26l-108 -44v-23zM211 201v66h-21v-42h-87v-24h108zM211 315v23h-41v38h-22v-38h-23v42h-22v-65h108zM211 524v23h-68l68 50v19h-108v-23h66l-66 -47v-22h108zM125 632v30h86v24h-86v30h-22
v-84h22zM127.5 465.5q4.5 7.5 12 12t17.5 4.5t18 -4.5t12.5 -12t4.5 -17.5q0 -9 -4.5 -17t-12.5 -12.5t-18 -4.5t-17.5 4.5t-12 12.5t-4.5 17q0 10 4.5 17.5zM124 -19q0 5 2 8.5t5 5.5t7 2t7.5 -2t5.5 -5.5t2 -8.5v-19h-29v19zM170 147v-28l-39 14z" />
    <glyph glyph-name="Hcircumflex" unicode="&#x124;" 
d="M125 -107h86v-24h-86v-30h-22v84h22v-30zM107.5 418.5q7.5 -13.5 20.5 -21t29 -7.5t29 7.5t20.5 21t7.5 29.5t-7.5 29.5t-20.5 21t-29 7.5t-29 -7.5t-20.5 -21t-7.5 -29.5t7.5 -29.5zM211 -61v23h-37v16l37 21v26l-41 -24q-3 6 -7.5 10.5t-10.5 7t-13 2.5q-10 0 -18.5 -5
t-13 -13.5t-4.5 -19.5v-44h108zM103 65h108v-24h-108v24zM211 79v25l-20 7v43l20 8v26l-108 -44v-23zM211 201v66h-21v-42h-87v-24h108zM211 315v23h-41v38h-22v-38h-23v42h-22v-65h108zM211 524v23h-68l68 50v19h-108v-23h66l-66 -47v-22h108zM125 632v30h86v24h-86v30h-22
v-84h22zM127.5 465.5q4.5 7.5 12 12t17.5 4.5t18 -4.5t12.5 -12t4.5 -17.5q0 -9 -4.5 -17t-12.5 -12.5t-18 -4.5t-17.5 4.5t-12 12.5t-4.5 17q0 10 4.5 17.5zM124 -19q0 5 2 8.5t5 5.5t7 2t7.5 -2t5.5 -5.5t2 -8.5v-19h-29v19zM170 147v-28l-39 14z" />
    <glyph glyph-name="I" unicode="I" horiz-adv-x="272" 
d="M97 700h78v-700h-78v700z" />
    <glyph glyph-name="IJ" unicode="&#x132;" 
d="M125 -107h86v-24h-86v-30h-22v84h22v-30zM107.5 418.5q7.5 -13.5 20.5 -21t29 -7.5t29 7.5t20.5 21t7.5 29.5t-7.5 29.5t-20.5 21t-29 7.5t-29 -7.5t-20.5 -21t-7.5 -29.5t7.5 -29.5zM211 -61v23h-37v16l37 21v26l-41 -24q-3 6 -7.5 10.5t-10.5 7t-13 2.5q-10 0 -18.5 -5
t-13 -13.5t-4.5 -19.5v-44h108zM103 65h108v-24h-108v24zM211 79v25l-20 7v43l20 8v26l-108 -44v-23zM211 201v66h-21v-42h-87v-24h108zM211 315v23h-41v38h-22v-38h-23v42h-22v-65h108zM211 524v23h-68l68 50v19h-108v-23h66l-66 -47v-22h108zM125 632v30h86v24h-86v30h-22
v-84h22zM127.5 465.5q4.5 7.5 12 12t17.5 4.5t18 -4.5t12.5 -12t4.5 -17.5q0 -9 -4.5 -17t-12.5 -12.5t-18 -4.5t-17.5 4.5t-12 12.5t-4.5 17q0 10 4.5 17.5zM124 -19q0 5 2 8.5t5 5.5t7 2t7.5 -2t5.5 -5.5t2 -8.5v-19h-29v19zM170 147v-28l-39 14z" />
    <glyph glyph-name="Iacute" unicode="&#xcd;" 
d="M125 -107h86v-24h-86v-30h-22v84h22v-30zM107.5 418.5q7.5 -13.5 20.5 -21t29 -7.5t29 7.5t20.5 21t7.5 29.5t-7.5 29.5t-20.5 21t-29 7.5t-29 -7.5t-20.5 -21t-7.5 -29.5t7.5 -29.5zM211 -61v23h-37v16l37 21v26l-41 -24q-3 6 -7.5 10.5t-10.5 7t-13 2.5q-10 0 -18.5 -5
t-13 -13.5t-4.5 -19.5v-44h108zM103 65h108v-24h-108v24zM211 79v25l-20 7v43l20 8v26l-108 -44v-23zM211 201v66h-21v-42h-87v-24h108zM211 315v23h-41v38h-22v-38h-23v42h-22v-65h108zM211 524v23h-68l68 50v19h-108v-23h66l-66 -47v-22h108zM125 632v30h86v24h-86v30h-22
v-84h22zM127.5 465.5q4.5 7.5 12 12t17.5 4.5t18 -4.5t12.5 -12t4.5 -17.5q0 -9 -4.5 -17t-12.5 -12.5t-18 -4.5t-17.5 4.5t-12 12.5t-4.5 17q0 10 4.5 17.5zM124 -19q0 5 2 8.5t5 5.5t7 2t7.5 -2t5.5 -5.5t2 -8.5v-19h-29v19zM170 147v-28l-39 14z" />
    <glyph glyph-name="Ibreve" unicode="&#x12c;" 
d="M125 -107h86v-24h-86v-30h-22v84h22v-30zM107.5 418.5q7.5 -13.5 20.5 -21t29 -7.5t29 7.5t20.5 21t7.5 29.5t-7.5 29.5t-20.5 21t-29 7.5t-29 -7.5t-20.5 -21t-7.5 -29.5t7.5 -29.5zM211 -61v23h-37v16l37 21v26l-41 -24q-3 6 -7.5 10.5t-10.5 7t-13 2.5q-10 0 -18.5 -5
t-13 -13.5t-4.5 -19.5v-44h108zM103 65h108v-24h-108v24zM211 79v25l-20 7v43l20 8v26l-108 -44v-23zM211 201v66h-21v-42h-87v-24h108zM211 315v23h-41v38h-22v-38h-23v42h-22v-65h108zM211 524v23h-68l68 50v19h-108v-23h66l-66 -47v-22h108zM125 632v30h86v24h-86v30h-22
v-84h22zM127.5 465.5q4.5 7.5 12 12t17.5 4.5t18 -4.5t12.5 -12t4.5 -17.5q0 -9 -4.5 -17t-12.5 -12.5t-18 -4.5t-17.5 4.5t-12 12.5t-4.5 17q0 10 4.5 17.5zM124 -19q0 5 2 8.5t5 5.5t7 2t7.5 -2t5.5 -5.5t2 -8.5v-19h-29v19zM170 147v-28l-39 14z" />
    <glyph glyph-name="Icircumflex" unicode="&#xce;" 
d="M125 -107h86v-24h-86v-30h-22v84h22v-30zM107.5 418.5q7.5 -13.5 20.5 -21t29 -7.5t29 7.5t20.5 21t7.5 29.5t-7.5 29.5t-20.5 21t-29 7.5t-29 -7.5t-20.5 -21t-7.5 -29.5t7.5 -29.5zM211 -61v23h-37v16l37 21v26l-41 -24q-3 6 -7.5 10.5t-10.5 7t-13 2.5q-10 0 -18.5 -5
t-13 -13.5t-4.5 -19.5v-44h108zM103 65h108v-24h-108v24zM211 79v25l-20 7v43l20 8v26l-108 -44v-23zM211 201v66h-21v-42h-87v-24h108zM211 315v23h-41v38h-22v-38h-23v42h-22v-65h108zM211 524v23h-68l68 50v19h-108v-23h66l-66 -47v-22h108zM125 632v30h86v24h-86v30h-22
v-84h22zM127.5 465.5q4.5 7.5 12 12t17.5 4.5t18 -4.5t12.5 -12t4.5 -17.5q0 -9 -4.5 -17t-12.5 -12.5t-18 -4.5t-17.5 4.5t-12 12.5t-4.5 17q0 10 4.5 17.5zM124 -19q0 5 2 8.5t5 5.5t7 2t7.5 -2t5.5 -5.5t2 -8.5v-19h-29v19zM170 147v-28l-39 14z" />
    <glyph glyph-name="Idieresis" unicode="&#xcf;" 
d="M125 -107h86v-24h-86v-30h-22v84h22v-30zM107.5 418.5q7.5 -13.5 20.5 -21t29 -7.5t29 7.5t20.5 21t7.5 29.5t-7.5 29.5t-20.5 21t-29 7.5t-29 -7.5t-20.5 -21t-7.5 -29.5t7.5 -29.5zM211 -61v23h-37v16l37 21v26l-41 -24q-3 6 -7.5 10.5t-10.5 7t-13 2.5q-10 0 -18.5 -5
t-13 -13.5t-4.5 -19.5v-44h108zM103 65h108v-24h-108v24zM211 79v25l-20 7v43l20 8v26l-108 -44v-23zM211 201v66h-21v-42h-87v-24h108zM211 315v23h-41v38h-22v-38h-23v42h-22v-65h108zM211 524v23h-68l68 50v19h-108v-23h66l-66 -47v-22h108zM125 632v30h86v24h-86v30h-22
v-84h22zM127.5 465.5q4.5 7.5 12 12t17.5 4.5t18 -4.5t12.5 -12t4.5 -17.5q0 -9 -4.5 -17t-12.5 -12.5t-18 -4.5t-17.5 4.5t-12 12.5t-4.5 17q0 10 4.5 17.5zM124 -19q0 5 2 8.5t5 5.5t7 2t7.5 -2t5.5 -5.5t2 -8.5v-19h-29v19zM170 147v-28l-39 14z" />
    <glyph glyph-name="Idotaccent" unicode="&#x130;" 
d="M125 -107h86v-24h-86v-30h-22v84h22v-30zM107.5 418.5q7.5 -13.5 20.5 -21t29 -7.5t29 7.5t20.5 21t7.5 29.5t-7.5 29.5t-20.5 21t-29 7.5t-29 -7.5t-20.5 -21t-7.5 -29.5t7.5 -29.5zM211 -61v23h-37v16l37 21v26l-41 -24q-3 6 -7.5 10.5t-10.5 7t-13 2.5q-10 0 -18.5 -5
t-13 -13.5t-4.5 -19.5v-44h108zM103 65h108v-24h-108v24zM211 79v25l-20 7v43l20 8v26l-108 -44v-23zM211 201v66h-21v-42h-87v-24h108zM211 315v23h-41v38h-22v-38h-23v42h-22v-65h108zM211 524v23h-68l68 50v19h-108v-23h66l-66 -47v-22h108zM125 632v30h86v24h-86v30h-22
v-84h22zM127.5 465.5q4.5 7.5 12 12t17.5 4.5t18 -4.5t12.5 -12t4.5 -17.5q0 -9 -4.5 -17t-12.5 -12.5t-18 -4.5t-17.5 4.5t-12 12.5t-4.5 17q0 10 4.5 17.5zM124 -19q0 5 2 8.5t5 5.5t7 2t7.5 -2t5.5 -5.5t2 -8.5v-19h-29v19zM170 147v-28l-39 14z" />
    <glyph glyph-name="Igrave" unicode="&#xcc;" 
d="M125 -107h86v-24h-86v-30h-22v84h22v-30zM107.5 418.5q7.5 -13.5 20.5 -21t29 -7.5t29 7.5t20.5 21t7.5 29.5t-7.5 29.5t-20.5 21t-29 7.5t-29 -7.5t-20.5 -21t-7.5 -29.5t7.5 -29.5zM211 -61v23h-37v16l37 21v26l-41 -24q-3 6 -7.5 10.5t-10.5 7t-13 2.5q-10 0 -18.5 -5
t-13 -13.5t-4.5 -19.5v-44h108zM103 65h108v-24h-108v24zM211 79v25l-20 7v43l20 8v26l-108 -44v-23zM211 201v66h-21v-42h-87v-24h108zM211 315v23h-41v38h-22v-38h-23v42h-22v-65h108zM211 524v23h-68l68 50v19h-108v-23h66l-66 -47v-22h108zM125 632v30h86v24h-86v30h-22
v-84h22zM127.5 465.5q4.5 7.5 12 12t17.5 4.5t18 -4.5t12.5 -12t4.5 -17.5q0 -9 -4.5 -17t-12.5 -12.5t-18 -4.5t-17.5 4.5t-12 12.5t-4.5 17q0 10 4.5 17.5zM124 -19q0 5 2 8.5t5 5.5t7 2t7.5 -2t5.5 -5.5t2 -8.5v-19h-29v19zM170 147v-28l-39 14z" />
    <glyph glyph-name="Imacron" unicode="&#x12a;" 
d="M125 -107h86v-24h-86v-30h-22v84h22v-30zM107.5 418.5q7.5 -13.5 20.5 -21t29 -7.5t29 7.5t20.5 21t7.5 29.5t-7.5 29.5t-20.5 21t-29 7.5t-29 -7.5t-20.5 -21t-7.5 -29.5t7.5 -29.5zM211 -61v23h-37v16l37 21v26l-41 -24q-3 6 -7.5 10.5t-10.5 7t-13 2.5q-10 0 -18.5 -5
t-13 -13.5t-4.5 -19.5v-44h108zM103 65h108v-24h-108v24zM211 79v25l-20 7v43l20 8v26l-108 -44v-23zM211 201v66h-21v-42h-87v-24h108zM211 315v23h-41v38h-22v-38h-23v42h-22v-65h108zM211 524v23h-68l68 50v19h-108v-23h66l-66 -47v-22h108zM125 632v30h86v24h-86v30h-22
v-84h22zM127.5 465.5q4.5 7.5 12 12t17.5 4.5t18 -4.5t12.5 -12t4.5 -17.5q0 -9 -4.5 -17t-12.5 -12.5t-18 -4.5t-17.5 4.5t-12 12.5t-4.5 17q0 10 4.5 17.5zM124 -19q0 5 2 8.5t5 5.5t7 2t7.5 -2t5.5 -5.5t2 -8.5v-19h-29v19zM170 147v-28l-39 14z" />
    <glyph glyph-name="Iogonek" unicode="&#x12e;" 
d="M125 -107h86v-24h-86v-30h-22v84h22v-30zM107.5 418.5q7.5 -13.5 20.5 -21t29 -7.5t29 7.5t20.5 21t7.5 29.5t-7.5 29.5t-20.5 21t-29 7.5t-29 -7.5t-20.5 -21t-7.5 -29.5t7.5 -29.5zM211 -61v23h-37v16l37 21v26l-41 -24q-3 6 -7.5 10.5t-10.5 7t-13 2.5q-10 0 -18.5 -5
t-13 -13.5t-4.5 -19.5v-44h108zM103 65h108v-24h-108v24zM211 79v25l-20 7v43l20 8v26l-108 -44v-23zM211 201v66h-21v-42h-87v-24h108zM211 315v23h-41v38h-22v-38h-23v42h-22v-65h108zM211 524v23h-68l68 50v19h-108v-23h66l-66 -47v-22h108zM125 632v30h86v24h-86v30h-22
v-84h22zM127.5 465.5q4.5 7.5 12 12t17.5 4.5t18 -4.5t12.5 -12t4.5 -17.5q0 -9 -4.5 -17t-12.5 -12.5t-18 -4.5t-17.5 4.5t-12 12.5t-4.5 17q0 10 4.5 17.5zM124 -19q0 5 2 8.5t5 5.5t7 2t7.5 -2t5.5 -5.5t2 -8.5v-19h-29v19zM170 147v-28l-39 14z" />
    <glyph glyph-name="Itilde" unicode="&#x128;" 
d="M125 -107h86v-24h-86v-30h-22v84h22v-30zM107.5 418.5q7.5 -13.5 20.5 -21t29 -7.5t29 7.5t20.5 21t7.5 29.5t-7.5 29.5t-20.5 21t-29 7.5t-29 -7.5t-20.5 -21t-7.5 -29.5t7.5 -29.5zM211 -61v23h-37v16l37 21v26l-41 -24q-3 6 -7.5 10.5t-10.5 7t-13 2.5q-10 0 -18.5 -5
t-13 -13.5t-4.5 -19.5v-44h108zM103 65h108v-24h-108v24zM211 79v25l-20 7v43l20 8v26l-108 -44v-23zM211 201v66h-21v-42h-87v-24h108zM211 315v23h-41v38h-22v-38h-23v42h-22v-65h108zM211 524v23h-68l68 50v19h-108v-23h66l-66 -47v-22h108zM125 632v30h86v24h-86v30h-22
v-84h22zM127.5 465.5q4.5 7.5 12 12t17.5 4.5t18 -4.5t12.5 -12t4.5 -17.5q0 -9 -4.5 -17t-12.5 -12.5t-18 -4.5t-17.5 4.5t-12 12.5t-4.5 17q0 10 4.5 17.5zM124 -19q0 5 2 8.5t5 5.5t7 2t7.5 -2t5.5 -5.5t2 -8.5v-19h-29v19zM170 147v-28l-39 14z" />
    <glyph glyph-name="J" unicode="J" horiz-adv-x="502" 
d="M112.5 -9.5q-26.5 3.5 -47.5 8.5t-34 11l-11 76q14 -7 36.5 -13t50 -10.5t55.5 -4.5q58 0 96.5 21.5t57.5 66.5t19 115v439h79v-439q0 -90 -27.5 -151t-82.5 -92t-137 -31q-28 0 -54.5 3.5z" />
    <glyph glyph-name="Jcircumflex" unicode="&#x134;" 
d="M125 -107h86v-24h-86v-30h-22v84h22v-30zM107.5 418.5q7.5 -13.5 20.5 -21t29 -7.5t29 7.5t20.5 21t7.5 29.5t-7.5 29.5t-20.5 21t-29 7.5t-29 -7.5t-20.5 -21t-7.5 -29.5t7.5 -29.5zM211 -61v23h-37v16l37 21v26l-41 -24q-3 6 -7.5 10.5t-10.5 7t-13 2.5q-10 0 -18.5 -5
t-13 -13.5t-4.5 -19.5v-44h108zM103 65h108v-24h-108v24zM211 79v25l-20 7v43l20 8v26l-108 -44v-23zM211 201v66h-21v-42h-87v-24h108zM211 315v23h-41v38h-22v-38h-23v42h-22v-65h108zM211 524v23h-68l68 50v19h-108v-23h66l-66 -47v-22h108zM125 632v30h86v24h-86v30h-22
v-84h22zM127.5 465.5q4.5 7.5 12 12t17.5 4.5t18 -4.5t12.5 -12t4.5 -17.5q0 -9 -4.5 -17t-12.5 -12.5t-18 -4.5t-17.5 4.5t-12 12.5t-4.5 17q0 10 4.5 17.5zM124 -19q0 5 2 8.5t5 5.5t7 2t7.5 -2t5.5 -5.5t2 -8.5v-19h-29v19zM170 147v-28l-39 14z" />
    <glyph glyph-name="K" unicode="K" horiz-adv-x="632" 
d="M286 319h-111v-319h-78v700h78v-312h111l233 312h89l-256 -343l271 -357h-92z" />
    <glyph glyph-name="uni0136" unicode="&#x136;" 
d="M125 -107h86v-24h-86v-30h-22v84h22v-30zM107.5 418.5q7.5 -13.5 20.5 -21t29 -7.5t29 7.5t20.5 21t7.5 29.5t-7.5 29.5t-20.5 21t-29 7.5t-29 -7.5t-20.5 -21t-7.5 -29.5t7.5 -29.5zM211 -61v23h-37v16l37 21v26l-41 -24q-3 6 -7.5 10.5t-10.5 7t-13 2.5q-10 0 -18.5 -5
t-13 -13.5t-4.5 -19.5v-44h108zM103 65h108v-24h-108v24zM211 79v25l-20 7v43l20 8v26l-108 -44v-23zM211 201v66h-21v-42h-87v-24h108zM211 315v23h-41v38h-22v-38h-23v42h-22v-65h108zM211 524v23h-68l68 50v19h-108v-23h66l-66 -47v-22h108zM125 632v30h86v24h-86v30h-22
v-84h22zM127.5 465.5q4.5 7.5 12 12t17.5 4.5t18 -4.5t12.5 -12t4.5 -17.5q0 -9 -4.5 -17t-12.5 -12.5t-18 -4.5t-17.5 4.5t-12 12.5t-4.5 17q0 10 4.5 17.5zM124 -19q0 5 2 8.5t5 5.5t7 2t7.5 -2t5.5 -5.5t2 -8.5v-19h-29v19zM170 147v-28l-39 14z" />
    <glyph glyph-name="L" unicode="L" horiz-adv-x="550" 
d="M97 700h78v-629h356l-11 -71h-423v700z" />
    <glyph glyph-name="Lacute" unicode="&#x139;" 
d="M125 -107h86v-24h-86v-30h-22v84h22v-30zM107.5 418.5q7.5 -13.5 20.5 -21t29 -7.5t29 7.5t20.5 21t7.5 29.5t-7.5 29.5t-20.5 21t-29 7.5t-29 -7.5t-20.5 -21t-7.5 -29.5t7.5 -29.5zM211 -61v23h-37v16l37 21v26l-41 -24q-3 6 -7.5 10.5t-10.5 7t-13 2.5q-10 0 -18.5 -5
t-13 -13.5t-4.5 -19.5v-44h108zM103 65h108v-24h-108v24zM211 79v25l-20 7v43l20 8v26l-108 -44v-23zM211 201v66h-21v-42h-87v-24h108zM211 315v23h-41v38h-22v-38h-23v42h-22v-65h108zM211 524v23h-68l68 50v19h-108v-23h66l-66 -47v-22h108zM125 632v30h86v24h-86v30h-22
v-84h22zM127.5 465.5q4.5 7.5 12 12t17.5 4.5t18 -4.5t12.5 -12t4.5 -17.5q0 -9 -4.5 -17t-12.5 -12.5t-18 -4.5t-17.5 4.5t-12 12.5t-4.5 17q0 10 4.5 17.5zM124 -19q0 5 2 8.5t5 5.5t7 2t7.5 -2t5.5 -5.5t2 -8.5v-19h-29v19zM170 147v-28l-39 14z" />
    <glyph glyph-name="Lcaron" unicode="&#x13d;" 
d="M125 -107h86v-24h-86v-30h-22v84h22v-30zM107.5 418.5q7.5 -13.5 20.5 -21t29 -7.5t29 7.5t20.5 21t7.5 29.5t-7.5 29.5t-20.5 21t-29 7.5t-29 -7.5t-20.5 -21t-7.5 -29.5t7.5 -29.5zM211 -61v23h-37v16l37 21v26l-41 -24q-3 6 -7.5 10.5t-10.5 7t-13 2.5q-10 0 -18.5 -5
t-13 -13.5t-4.5 -19.5v-44h108zM103 65h108v-24h-108v24zM211 79v25l-20 7v43l20 8v26l-108 -44v-23zM211 201v66h-21v-42h-87v-24h108zM211 315v23h-41v38h-22v-38h-23v42h-22v-65h108zM211 524v23h-68l68 50v19h-108v-23h66l-66 -47v-22h108zM125 632v30h86v24h-86v30h-22
v-84h22zM127.5 465.5q4.5 7.5 12 12t17.5 4.5t18 -4.5t12.5 -12t4.5 -17.5q0 -9 -4.5 -17t-12.5 -12.5t-18 -4.5t-17.5 4.5t-12 12.5t-4.5 17q0 10 4.5 17.5zM124 -19q0 5 2 8.5t5 5.5t7 2t7.5 -2t5.5 -5.5t2 -8.5v-19h-29v19zM170 147v-28l-39 14z" />
    <glyph glyph-name="uni013B" unicode="&#x13b;" 
d="M125 -107h86v-24h-86v-30h-22v84h22v-30zM107.5 418.5q7.5 -13.5 20.5 -21t29 -7.5t29 7.5t20.5 21t7.5 29.5t-7.5 29.5t-20.5 21t-29 7.5t-29 -7.5t-20.5 -21t-7.5 -29.5t7.5 -29.5zM211 -61v23h-37v16l37 21v26l-41 -24q-3 6 -7.5 10.5t-10.5 7t-13 2.5q-10 0 -18.5 -5
t-13 -13.5t-4.5 -19.5v-44h108zM103 65h108v-24h-108v24zM211 79v25l-20 7v43l20 8v26l-108 -44v-23zM211 201v66h-21v-42h-87v-24h108zM211 315v23h-41v38h-22v-38h-23v42h-22v-65h108zM211 524v23h-68l68 50v19h-108v-23h66l-66 -47v-22h108zM125 632v30h86v24h-86v30h-22
v-84h22zM127.5 465.5q4.5 7.5 12 12t17.5 4.5t18 -4.5t12.5 -12t4.5 -17.5q0 -9 -4.5 -17t-12.5 -12.5t-18 -4.5t-17.5 4.5t-12 12.5t-4.5 17q0 10 4.5 17.5zM124 -19q0 5 2 8.5t5 5.5t7 2t7.5 -2t5.5 -5.5t2 -8.5v-19h-29v19zM170 147v-28l-39 14z" />
    <glyph glyph-name="Ldot" unicode="&#x13f;" 
d="M125 -107h86v-24h-86v-30h-22v84h22v-30zM107.5 418.5q7.5 -13.5 20.5 -21t29 -7.5t29 7.5t20.5 21t7.5 29.5t-7.5 29.5t-20.5 21t-29 7.5t-29 -7.5t-20.5 -21t-7.5 -29.5t7.5 -29.5zM211 -61v23h-37v16l37 21v26l-41 -24q-3 6 -7.5 10.5t-10.5 7t-13 2.5q-10 0 -18.5 -5
t-13 -13.5t-4.5 -19.5v-44h108zM103 65h108v-24h-108v24zM211 79v25l-20 7v43l20 8v26l-108 -44v-23zM211 201v66h-21v-42h-87v-24h108zM211 315v23h-41v38h-22v-38h-23v42h-22v-65h108zM211 524v23h-68l68 50v19h-108v-23h66l-66 -47v-22h108zM125 632v30h86v24h-86v30h-22
v-84h22zM127.5 465.5q4.5 7.5 12 12t17.5 4.5t18 -4.5t12.5 -12t4.5 -17.5q0 -9 -4.5 -17t-12.5 -12.5t-18 -4.5t-17.5 4.5t-12 12.5t-4.5 17q0 10 4.5 17.5zM124 -19q0 5 2 8.5t5 5.5t7 2t7.5 -2t5.5 -5.5t2 -8.5v-19h-29v19zM170 147v-28l-39 14z" />
    <glyph glyph-name="Lslash" unicode="&#x141;" 
d="M125 -107h86v-24h-86v-30h-22v84h22v-30zM107.5 418.5q7.5 -13.5 20.5 -21t29 -7.5t29 7.5t20.5 21t7.5 29.5t-7.5 29.5t-20.5 21t-29 7.5t-29 -7.5t-20.5 -21t-7.5 -29.5t7.5 -29.5zM211 -61v23h-37v16l37 21v26l-41 -24q-3 6 -7.5 10.5t-10.5 7t-13 2.5q-10 0 -18.5 -5
t-13 -13.5t-4.5 -19.5v-44h108zM103 65h108v-24h-108v24zM211 79v25l-20 7v43l20 8v26l-108 -44v-23zM211 201v66h-21v-42h-87v-24h108zM211 315v23h-41v38h-22v-38h-23v42h-22v-65h108zM211 524v23h-68l68 50v19h-108v-23h66l-66 -47v-22h108zM125 632v30h86v24h-86v30h-22
v-84h22zM127.5 465.5q4.5 7.5 12 12t17.5 4.5t18 -4.5t12.5 -12t4.5 -17.5q0 -9 -4.5 -17t-12.5 -12.5t-18 -4.5t-17.5 4.5t-12 12.5t-4.5 17q0 10 4.5 17.5zM124 -19q0 5 2 8.5t5 5.5t7 2t7.5 -2t5.5 -5.5t2 -8.5v-19h-29v19zM170 147v-28l-39 14z" />
    <glyph glyph-name="M" unicode="M" horiz-adv-x="832" 
d="M735 700v-700h-75v570l-244 -348l-246 348v-570h-73v700h66l253 -359l253 359h66z" />
    <glyph glyph-name="N" unicode="N" horiz-adv-x="706" 
d="M609 700v-700h-67l-371 563v-563h-74v700h68l371 -563v563h73z" />
    <glyph glyph-name="Nacute" unicode="&#x143;" 
d="M125 -107h86v-24h-86v-30h-22v84h22v-30zM107.5 418.5q7.5 -13.5 20.5 -21t29 -7.5t29 7.5t20.5 21t7.5 29.5t-7.5 29.5t-20.5 21t-29 7.5t-29 -7.5t-20.5 -21t-7.5 -29.5t7.5 -29.5zM211 -61v23h-37v16l37 21v26l-41 -24q-3 6 -7.5 10.5t-10.5 7t-13 2.5q-10 0 -18.5 -5
t-13 -13.5t-4.5 -19.5v-44h108zM103 65h108v-24h-108v24zM211 79v25l-20 7v43l20 8v26l-108 -44v-23zM211 201v66h-21v-42h-87v-24h108zM211 315v23h-41v38h-22v-38h-23v42h-22v-65h108zM211 524v23h-68l68 50v19h-108v-23h66l-66 -47v-22h108zM125 632v30h86v24h-86v30h-22
v-84h22zM127.5 465.5q4.5 7.5 12 12t17.5 4.5t18 -4.5t12.5 -12t4.5 -17.5q0 -9 -4.5 -17t-12.5 -12.5t-18 -4.5t-17.5 4.5t-12 12.5t-4.5 17q0 10 4.5 17.5zM124 -19q0 5 2 8.5t5 5.5t7 2t7.5 -2t5.5 -5.5t2 -8.5v-19h-29v19zM170 147v-28l-39 14z" />
    <glyph glyph-name="Ncaron" unicode="&#x147;" 
d="M125 -107h86v-24h-86v-30h-22v84h22v-30zM107.5 418.5q7.5 -13.5 20.5 -21t29 -7.5t29 7.5t20.5 21t7.5 29.5t-7.5 29.5t-20.5 21t-29 7.5t-29 -7.5t-20.5 -21t-7.5 -29.5t7.5 -29.5zM211 -61v23h-37v16l37 21v26l-41 -24q-3 6 -7.5 10.5t-10.5 7t-13 2.5q-10 0 -18.5 -5
t-13 -13.5t-4.5 -19.5v-44h108zM103 65h108v-24h-108v24zM211 79v25l-20 7v43l20 8v26l-108 -44v-23zM211 201v66h-21v-42h-87v-24h108zM211 315v23h-41v38h-22v-38h-23v42h-22v-65h108zM211 524v23h-68l68 50v19h-108v-23h66l-66 -47v-22h108zM125 632v30h86v24h-86v30h-22
v-84h22zM127.5 465.5q4.5 7.5 12 12t17.5 4.5t18 -4.5t12.5 -12t4.5 -17.5q0 -9 -4.5 -17t-12.5 -12.5t-18 -4.5t-17.5 4.5t-12 12.5t-4.5 17q0 10 4.5 17.5zM124 -19q0 5 2 8.5t5 5.5t7 2t7.5 -2t5.5 -5.5t2 -8.5v-19h-29v19zM170 147v-28l-39 14z" />
    <glyph glyph-name="uni0145" unicode="&#x145;" 
d="M125 -107h86v-24h-86v-30h-22v84h22v-30zM107.5 418.5q7.5 -13.5 20.5 -21t29 -7.5t29 7.5t20.5 21t7.5 29.5t-7.5 29.5t-20.5 21t-29 7.5t-29 -7.5t-20.5 -21t-7.5 -29.5t7.5 -29.5zM211 -61v23h-37v16l37 21v26l-41 -24q-3 6 -7.5 10.5t-10.5 7t-13 2.5q-10 0 -18.5 -5
t-13 -13.5t-4.5 -19.5v-44h108zM103 65h108v-24h-108v24zM211 79v25l-20 7v43l20 8v26l-108 -44v-23zM211 201v66h-21v-42h-87v-24h108zM211 315v23h-41v38h-22v-38h-23v42h-22v-65h108zM211 524v23h-68l68 50v19h-108v-23h66l-66 -47v-22h108zM125 632v30h86v24h-86v30h-22
v-84h22zM127.5 465.5q4.5 7.5 12 12t17.5 4.5t18 -4.5t12.5 -12t4.5 -17.5q0 -9 -4.5 -17t-12.5 -12.5t-18 -4.5t-17.5 4.5t-12 12.5t-4.5 17q0 10 4.5 17.5zM124 -19q0 5 2 8.5t5 5.5t7 2t7.5 -2t5.5 -5.5t2 -8.5v-19h-29v19zM170 147v-28l-39 14z" />
    <glyph glyph-name="Ntilde" unicode="&#xd1;" 
d="M125 -107h86v-24h-86v-30h-22v84h22v-30zM107.5 418.5q7.5 -13.5 20.5 -21t29 -7.5t29 7.5t20.5 21t7.5 29.5t-7.5 29.5t-20.5 21t-29 7.5t-29 -7.5t-20.5 -21t-7.5 -29.5t7.5 -29.5zM211 -61v23h-37v16l37 21v26l-41 -24q-3 6 -7.5 10.5t-10.5 7t-13 2.5q-10 0 -18.5 -5
t-13 -13.5t-4.5 -19.5v-44h108zM103 65h108v-24h-108v24zM211 79v25l-20 7v43l20 8v26l-108 -44v-23zM211 201v66h-21v-42h-87v-24h108zM211 315v23h-41v38h-22v-38h-23v42h-22v-65h108zM211 524v23h-68l68 50v19h-108v-23h66l-66 -47v-22h108zM125 632v30h86v24h-86v30h-22
v-84h22zM127.5 465.5q4.5 7.5 12 12t17.5 4.5t18 -4.5t12.5 -12t4.5 -17.5q0 -9 -4.5 -17t-12.5 -12.5t-18 -4.5t-17.5 4.5t-12 12.5t-4.5 17q0 10 4.5 17.5zM124 -19q0 5 2 8.5t5 5.5t7 2t7.5 -2t5.5 -5.5t2 -8.5v-19h-29v19zM170 147v-28l-39 14z" />
    <glyph glyph-name="Eng" unicode="&#x14a;" 
d="M125 -107h86v-24h-86v-30h-22v84h22v-30zM107.5 418.5q7.5 -13.5 20.5 -21t29 -7.5t29 7.5t20.5 21t7.5 29.5t-7.5 29.5t-20.5 21t-29 7.5t-29 -7.5t-20.5 -21t-7.5 -29.5t7.5 -29.5zM211 -61v23h-37v16l37 21v26l-41 -24q-3 6 -7.5 10.5t-10.5 7t-13 2.5q-10 0 -18.5 -5
t-13 -13.5t-4.5 -19.5v-44h108zM103 65h108v-24h-108v24zM211 79v25l-20 7v43l20 8v26l-108 -44v-23zM211 201v66h-21v-42h-87v-24h108zM211 315v23h-41v38h-22v-38h-23v42h-22v-65h108zM211 524v23h-68l68 50v19h-108v-23h66l-66 -47v-22h108zM125 632v30h86v24h-86v30h-22
v-84h22zM127.5 465.5q4.5 7.5 12 12t17.5 4.5t18 -4.5t12.5 -12t4.5 -17.5q0 -9 -4.5 -17t-12.5 -12.5t-18 -4.5t-17.5 4.5t-12 12.5t-4.5 17q0 10 4.5 17.5zM124 -19q0 5 2 8.5t5 5.5t7 2t7.5 -2t5.5 -5.5t2 -8.5v-19h-29v19zM170 147v-28l-39 14z" />
    <glyph glyph-name="O" unicode="O" horiz-adv-x="656" 
d="M174 23.5q-60 36.5 -89.5 116.5t-29.5 210t29.5 210t89.5 116.5t154 36.5t154 -36.5t89.5 -116.5t29.5 -210t-29.5 -210t-89.5 -116.5t-154 -36.5t-154 36.5zM156 176.5q21 -64.5 63 -92.5t109 -28t109.5 28t63.5 92.5t21 173.5t-21 173.5t-63.5 92.5t-109.5 28t-109 -28
t-63 -92.5t-21 -173.5t21 -173.5z" />
    <glyph glyph-name="Oacute" unicode="&#xd3;" 
d="M125 -107h86v-24h-86v-30h-22v84h22v-30zM107.5 418.5q7.5 -13.5 20.5 -21t29 -7.5t29 7.5t20.5 21t7.5 29.5t-7.5 29.5t-20.5 21t-29 7.5t-29 -7.5t-20.5 -21t-7.5 -29.5t7.5 -29.5zM211 -61v23h-37v16l37 21v26l-41 -24q-3 6 -7.5 10.5t-10.5 7t-13 2.5q-10 0 -18.5 -5
t-13 -13.5t-4.5 -19.5v-44h108zM103 65h108v-24h-108v24zM211 79v25l-20 7v43l20 8v26l-108 -44v-23zM211 201v66h-21v-42h-87v-24h108zM211 315v23h-41v38h-22v-38h-23v42h-22v-65h108zM211 524v23h-68l68 50v19h-108v-23h66l-66 -47v-22h108zM125 632v30h86v24h-86v30h-22
v-84h22zM127.5 465.5q4.5 7.5 12 12t17.5 4.5t18 -4.5t12.5 -12t4.5 -17.5q0 -9 -4.5 -17t-12.5 -12.5t-18 -4.5t-17.5 4.5t-12 12.5t-4.5 17q0 10 4.5 17.5zM124 -19q0 5 2 8.5t5 5.5t7 2t7.5 -2t5.5 -5.5t2 -8.5v-19h-29v19zM170 147v-28l-39 14z" />
    <glyph glyph-name="Obreve" unicode="&#x14e;" 
d="M125 -107h86v-24h-86v-30h-22v84h22v-30zM107.5 418.5q7.5 -13.5 20.5 -21t29 -7.5t29 7.5t20.5 21t7.5 29.5t-7.5 29.5t-20.5 21t-29 7.5t-29 -7.5t-20.5 -21t-7.5 -29.5t7.5 -29.5zM211 -61v23h-37v16l37 21v26l-41 -24q-3 6 -7.5 10.5t-10.5 7t-13 2.5q-10 0 -18.5 -5
t-13 -13.5t-4.5 -19.5v-44h108zM103 65h108v-24h-108v24zM211 79v25l-20 7v43l20 8v26l-108 -44v-23zM211 201v66h-21v-42h-87v-24h108zM211 315v23h-41v38h-22v-38h-23v42h-22v-65h108zM211 524v23h-68l68 50v19h-108v-23h66l-66 -47v-22h108zM125 632v30h86v24h-86v30h-22
v-84h22zM127.5 465.5q4.5 7.5 12 12t17.5 4.5t18 -4.5t12.5 -12t4.5 -17.5q0 -9 -4.5 -17t-12.5 -12.5t-18 -4.5t-17.5 4.5t-12 12.5t-4.5 17q0 10 4.5 17.5zM124 -19q0 5 2 8.5t5 5.5t7 2t7.5 -2t5.5 -5.5t2 -8.5v-19h-29v19zM170 147v-28l-39 14z" />
    <glyph glyph-name="Ocircumflex" unicode="&#xd4;" 
d="M125 -107h86v-24h-86v-30h-22v84h22v-30zM107.5 418.5q7.5 -13.5 20.5 -21t29 -7.5t29 7.5t20.5 21t7.5 29.5t-7.5 29.5t-20.5 21t-29 7.5t-29 -7.5t-20.5 -21t-7.5 -29.5t7.5 -29.5zM211 -61v23h-37v16l37 21v26l-41 -24q-3 6 -7.5 10.5t-10.5 7t-13 2.5q-10 0 -18.5 -5
t-13 -13.5t-4.5 -19.5v-44h108zM103 65h108v-24h-108v24zM211 79v25l-20 7v43l20 8v26l-108 -44v-23zM211 201v66h-21v-42h-87v-24h108zM211 315v23h-41v38h-22v-38h-23v42h-22v-65h108zM211 524v23h-68l68 50v19h-108v-23h66l-66 -47v-22h108zM125 632v30h86v24h-86v30h-22
v-84h22zM127.5 465.5q4.5 7.5 12 12t17.5 4.5t18 -4.5t12.5 -12t4.5 -17.5q0 -9 -4.5 -17t-12.5 -12.5t-18 -4.5t-17.5 4.5t-12 12.5t-4.5 17q0 10 4.5 17.5zM124 -19q0 5 2 8.5t5 5.5t7 2t7.5 -2t5.5 -5.5t2 -8.5v-19h-29v19zM170 147v-28l-39 14z" />
    <glyph glyph-name="Odieresis" unicode="&#xd6;" 
d="M125 -107h86v-24h-86v-30h-22v84h22v-30zM107.5 418.5q7.5 -13.5 20.5 -21t29 -7.5t29 7.5t20.5 21t7.5 29.5t-7.5 29.5t-20.5 21t-29 7.5t-29 -7.5t-20.5 -21t-7.5 -29.5t7.5 -29.5zM211 -61v23h-37v16l37 21v26l-41 -24q-3 6 -7.5 10.5t-10.5 7t-13 2.5q-10 0 -18.5 -5
t-13 -13.5t-4.5 -19.5v-44h108zM103 65h108v-24h-108v24zM211 79v25l-20 7v43l20 8v26l-108 -44v-23zM211 201v66h-21v-42h-87v-24h108zM211 315v23h-41v38h-22v-38h-23v42h-22v-65h108zM211 524v23h-68l68 50v19h-108v-23h66l-66 -47v-22h108zM125 632v30h86v24h-86v30h-22
v-84h22zM127.5 465.5q4.5 7.5 12 12t17.5 4.5t18 -4.5t12.5 -12t4.5 -17.5q0 -9 -4.5 -17t-12.5 -12.5t-18 -4.5t-17.5 4.5t-12 12.5t-4.5 17q0 10 4.5 17.5zM124 -19q0 5 2 8.5t5 5.5t7 2t7.5 -2t5.5 -5.5t2 -8.5v-19h-29v19zM170 147v-28l-39 14z" />
    <glyph glyph-name="Ograve" unicode="&#xd2;" 
d="M125 -107h86v-24h-86v-30h-22v84h22v-30zM107.5 418.5q7.5 -13.5 20.5 -21t29 -7.5t29 7.5t20.5 21t7.5 29.5t-7.5 29.5t-20.5 21t-29 7.5t-29 -7.5t-20.5 -21t-7.5 -29.5t7.5 -29.5zM211 -61v23h-37v16l37 21v26l-41 -24q-3 6 -7.5 10.5t-10.5 7t-13 2.5q-10 0 -18.5 -5
t-13 -13.5t-4.5 -19.5v-44h108zM103 65h108v-24h-108v24zM211 79v25l-20 7v43l20 8v26l-108 -44v-23zM211 201v66h-21v-42h-87v-24h108zM211 315v23h-41v38h-22v-38h-23v42h-22v-65h108zM211 524v23h-68l68 50v19h-108v-23h66l-66 -47v-22h108zM125 632v30h86v24h-86v30h-22
v-84h22zM127.5 465.5q4.5 7.5 12 12t17.5 4.5t18 -4.5t12.5 -12t4.5 -17.5q0 -9 -4.5 -17t-12.5 -12.5t-18 -4.5t-17.5 4.5t-12 12.5t-4.5 17q0 10 4.5 17.5zM124 -19q0 5 2 8.5t5 5.5t7 2t7.5 -2t5.5 -5.5t2 -8.5v-19h-29v19zM170 147v-28l-39 14z" />
    <glyph glyph-name="Ohungarumlaut" unicode="&#x150;" 
d="M125 -107h86v-24h-86v-30h-22v84h22v-30zM107.5 418.5q7.5 -13.5 20.5 -21t29 -7.5t29 7.5t20.5 21t7.5 29.5t-7.5 29.5t-20.5 21t-29 7.5t-29 -7.5t-20.5 -21t-7.5 -29.5t7.5 -29.5zM211 -61v23h-37v16l37 21v26l-41 -24q-3 6 -7.5 10.5t-10.5 7t-13 2.5q-10 0 -18.5 -5
t-13 -13.5t-4.5 -19.5v-44h108zM103 65h108v-24h-108v24zM211 79v25l-20 7v43l20 8v26l-108 -44v-23zM211 201v66h-21v-42h-87v-24h108zM211 315v23h-41v38h-22v-38h-23v42h-22v-65h108zM211 524v23h-68l68 50v19h-108v-23h66l-66 -47v-22h108zM125 632v30h86v24h-86v30h-22
v-84h22zM127.5 465.5q4.5 7.5 12 12t17.5 4.5t18 -4.5t12.5 -12t4.5 -17.5q0 -9 -4.5 -17t-12.5 -12.5t-18 -4.5t-17.5 4.5t-12 12.5t-4.5 17q0 10 4.5 17.5zM124 -19q0 5 2 8.5t5 5.5t7 2t7.5 -2t5.5 -5.5t2 -8.5v-19h-29v19zM170 147v-28l-39 14z" />
    <glyph glyph-name="Omacron" unicode="&#x14c;" 
d="M125 -107h86v-24h-86v-30h-22v84h22v-30zM107.5 418.5q7.5 -13.5 20.5 -21t29 -7.5t29 7.5t20.5 21t7.5 29.5t-7.5 29.5t-20.5 21t-29 7.5t-29 -7.5t-20.5 -21t-7.5 -29.5t7.5 -29.5zM211 -61v23h-37v16l37 21v26l-41 -24q-3 6 -7.5 10.5t-10.5 7t-13 2.5q-10 0 -18.5 -5
t-13 -13.5t-4.5 -19.5v-44h108zM103 65h108v-24h-108v24zM211 79v25l-20 7v43l20 8v26l-108 -44v-23zM211 201v66h-21v-42h-87v-24h108zM211 315v23h-41v38h-22v-38h-23v42h-22v-65h108zM211 524v23h-68l68 50v19h-108v-23h66l-66 -47v-22h108zM125 632v30h86v24h-86v30h-22
v-84h22zM127.5 465.5q4.5 7.5 12 12t17.5 4.5t18 -4.5t12.5 -12t4.5 -17.5q0 -9 -4.5 -17t-12.5 -12.5t-18 -4.5t-17.5 4.5t-12 12.5t-4.5 17q0 10 4.5 17.5zM124 -19q0 5 2 8.5t5 5.5t7 2t7.5 -2t5.5 -5.5t2 -8.5v-19h-29v19zM170 147v-28l-39 14z" />
    <glyph glyph-name="Oslash" unicode="&#xd8;" 
d="M125 -107h86v-24h-86v-30h-22v84h22v-30zM107.5 418.5q7.5 -13.5 20.5 -21t29 -7.5t29 7.5t20.5 21t7.5 29.5t-7.5 29.5t-20.5 21t-29 7.5t-29 -7.5t-20.5 -21t-7.5 -29.5t7.5 -29.5zM211 -61v23h-37v16l37 21v26l-41 -24q-3 6 -7.5 10.5t-10.5 7t-13 2.5q-10 0 -18.5 -5
t-13 -13.5t-4.5 -19.5v-44h108zM103 65h108v-24h-108v24zM211 79v25l-20 7v43l20 8v26l-108 -44v-23zM211 201v66h-21v-42h-87v-24h108zM211 315v23h-41v38h-22v-38h-23v42h-22v-65h108zM211 524v23h-68l68 50v19h-108v-23h66l-66 -47v-22h108zM125 632v30h86v24h-86v30h-22
v-84h22zM127.5 465.5q4.5 7.5 12 12t17.5 4.5t18 -4.5t12.5 -12t4.5 -17.5q0 -9 -4.5 -17t-12.5 -12.5t-18 -4.5t-17.5 4.5t-12 12.5t-4.5 17q0 10 4.5 17.5zM124 -19q0 5 2 8.5t5 5.5t7 2t7.5 -2t5.5 -5.5t2 -8.5v-19h-29v19zM170 147v-28l-39 14z" />
    <glyph glyph-name="Oslashacute" unicode="&#x1fe;" 
d="M125 -107h86v-24h-86v-30h-22v84h22v-30zM107.5 418.5q7.5 -13.5 20.5 -21t29 -7.5t29 7.5t20.5 21t7.5 29.5t-7.5 29.5t-20.5 21t-29 7.5t-29 -7.5t-20.5 -21t-7.5 -29.5t7.5 -29.5zM211 -61v23h-37v16l37 21v26l-41 -24q-3 6 -7.5 10.5t-10.5 7t-13 2.5q-10 0 -18.5 -5
t-13 -13.5t-4.5 -19.5v-44h108zM103 65h108v-24h-108v24zM211 79v25l-20 7v43l20 8v26l-108 -44v-23zM211 201v66h-21v-42h-87v-24h108zM211 315v23h-41v38h-22v-38h-23v42h-22v-65h108zM211 524v23h-68l68 50v19h-108v-23h66l-66 -47v-22h108zM125 632v30h86v24h-86v30h-22
v-84h22zM127.5 465.5q4.5 7.5 12 12t17.5 4.5t18 -4.5t12.5 -12t4.5 -17.5q0 -9 -4.5 -17t-12.5 -12.5t-18 -4.5t-17.5 4.5t-12 12.5t-4.5 17q0 10 4.5 17.5zM124 -19q0 5 2 8.5t5 5.5t7 2t7.5 -2t5.5 -5.5t2 -8.5v-19h-29v19zM170 147v-28l-39 14z" />
    <glyph glyph-name="Otilde" unicode="&#xd5;" 
d="M125 -107h86v-24h-86v-30h-22v84h22v-30zM107.5 418.5q7.5 -13.5 20.5 -21t29 -7.5t29 7.5t20.5 21t7.5 29.5t-7.5 29.5t-20.5 21t-29 7.5t-29 -7.5t-20.5 -21t-7.5 -29.5t7.5 -29.5zM211 -61v23h-37v16l37 21v26l-41 -24q-3 6 -7.5 10.5t-10.5 7t-13 2.5q-10 0 -18.5 -5
t-13 -13.5t-4.5 -19.5v-44h108zM103 65h108v-24h-108v24zM211 79v25l-20 7v43l20 8v26l-108 -44v-23zM211 201v66h-21v-42h-87v-24h108zM211 315v23h-41v38h-22v-38h-23v42h-22v-65h108zM211 524v23h-68l68 50v19h-108v-23h66l-66 -47v-22h108zM125 632v30h86v24h-86v30h-22
v-84h22zM127.5 465.5q4.5 7.5 12 12t17.5 4.5t18 -4.5t12.5 -12t4.5 -17.5q0 -9 -4.5 -17t-12.5 -12.5t-18 -4.5t-17.5 4.5t-12 12.5t-4.5 17q0 10 4.5 17.5zM124 -19q0 5 2 8.5t5 5.5t7 2t7.5 -2t5.5 -5.5t2 -8.5v-19h-29v19zM170 147v-28l-39 14z" />
    <glyph glyph-name="OE" unicode="&#x152;" 
d="M125 -107h86v-24h-86v-30h-22v84h22v-30zM107.5 418.5q7.5 -13.5 20.5 -21t29 -7.5t29 7.5t20.5 21t7.5 29.5t-7.5 29.5t-20.5 21t-29 7.5t-29 -7.5t-20.5 -21t-7.5 -29.5t7.5 -29.5zM211 -61v23h-37v16l37 21v26l-41 -24q-3 6 -7.5 10.5t-10.5 7t-13 2.5q-10 0 -18.5 -5
t-13 -13.5t-4.5 -19.5v-44h108zM103 65h108v-24h-108v24zM211 79v25l-20 7v43l20 8v26l-108 -44v-23zM211 201v66h-21v-42h-87v-24h108zM211 315v23h-41v38h-22v-38h-23v42h-22v-65h108zM211 524v23h-68l68 50v19h-108v-23h66l-66 -47v-22h108zM125 632v30h86v24h-86v30h-22
v-84h22zM127.5 465.5q4.5 7.5 12 12t17.5 4.5t18 -4.5t12.5 -12t4.5 -17.5q0 -9 -4.5 -17t-12.5 -12.5t-18 -4.5t-17.5 4.5t-12 12.5t-4.5 17q0 10 4.5 17.5zM124 -19q0 5 2 8.5t5 5.5t7 2t7.5 -2t5.5 -5.5t2 -8.5v-19h-29v19zM170 147v-28l-39 14z" />
    <glyph glyph-name="P" unicode="P" horiz-adv-x="627" 
d="M97 700h260q79 0 131.5 -25.5t78.5 -73.5t26 -117q0 -68 -26 -116t-78.5 -73.5t-131.5 -25.5h-182v-269h-78v700zM357 337q52 0 87 17t52.5 50t17.5 80t-17.5 80t-52.5 50.5t-87 17.5h-182v-295h182z" />
    <glyph glyph-name="Thorn" unicode="&#xde;" 
d="M125 -107h86v-24h-86v-30h-22v84h22v-30zM107.5 418.5q7.5 -13.5 20.5 -21t29 -7.5t29 7.5t20.5 21t7.5 29.5t-7.5 29.5t-20.5 21t-29 7.5t-29 -7.5t-20.5 -21t-7.5 -29.5t7.5 -29.5zM211 -61v23h-37v16l37 21v26l-41 -24q-3 6 -7.5 10.5t-10.5 7t-13 2.5q-10 0 -18.5 -5
t-13 -13.5t-4.5 -19.5v-44h108zM103 65h108v-24h-108v24zM211 79v25l-20 7v43l20 8v26l-108 -44v-23zM211 201v66h-21v-42h-87v-24h108zM211 315v23h-41v38h-22v-38h-23v42h-22v-65h108zM211 524v23h-68l68 50v19h-108v-23h66l-66 -47v-22h108zM125 632v30h86v24h-86v30h-22
v-84h22zM127.5 465.5q4.5 7.5 12 12t17.5 4.5t18 -4.5t12.5 -12t4.5 -17.5q0 -9 -4.5 -17t-12.5 -12.5t-18 -4.5t-17.5 4.5t-12 12.5t-4.5 17q0 10 4.5 17.5zM124 -19q0 5 2 8.5t5 5.5t7 2t7.5 -2t5.5 -5.5t2 -8.5v-19h-29v19zM170 147v-28l-39 14z" />
    <glyph glyph-name="Q" unicode="Q" horiz-adv-x="656" 
d="M361 -11.5q-8 -0.5 -16.5 -1t-16.5 -0.5q-94 0 -154 36.5t-89.5 116.5t-29.5 210t29.5 210t89.5 116.5t154 36.5t154 -36.5t89.5 -116.5t29.5 -210q0 -94 -15.5 -161t-46.5 -110t-78 -65l143 -86l-28 -71l-199 133q-8 -1 -16 -1.5zM156 176.5q21 -64.5 63 -92.5t109 -28
t109.5 28t63.5 92.5t21 173.5t-21 173.5t-63.5 92.5t-109.5 28t-109 -28t-63 -92.5t-21 -173.5t21 -173.5z" />
    <glyph glyph-name="R" unicode="R" horiz-adv-x="653" 
d="M529 0l-180 285h-174v-285h-78v700h262q78 0 130.5 -24t78 -71t25.5 -114q0 -55 -18 -96t-54 -67t-90 -35l187 -293h-89zM359 353q52 0 86.5 15.5t51.5 46.5t17 77t-17 77t-51.5 47t-86.5 16h-184v-279h184z" />
    <glyph glyph-name="Racute" unicode="&#x154;" 
d="M125 -107h86v-24h-86v-30h-22v84h22v-30zM107.5 418.5q7.5 -13.5 20.5 -21t29 -7.5t29 7.5t20.5 21t7.5 29.5t-7.5 29.5t-20.5 21t-29 7.5t-29 -7.5t-20.5 -21t-7.5 -29.5t7.5 -29.5zM211 -61v23h-37v16l37 21v26l-41 -24q-3 6 -7.5 10.5t-10.5 7t-13 2.5q-10 0 -18.5 -5
t-13 -13.5t-4.5 -19.5v-44h108zM103 65h108v-24h-108v24zM211 79v25l-20 7v43l20 8v26l-108 -44v-23zM211 201v66h-21v-42h-87v-24h108zM211 315v23h-41v38h-22v-38h-23v42h-22v-65h108zM211 524v23h-68l68 50v19h-108v-23h66l-66 -47v-22h108zM125 632v30h86v24h-86v30h-22
v-84h22zM127.5 465.5q4.5 7.5 12 12t17.5 4.5t18 -4.5t12.5 -12t4.5 -17.5q0 -9 -4.5 -17t-12.5 -12.5t-18 -4.5t-17.5 4.5t-12 12.5t-4.5 17q0 10 4.5 17.5zM124 -19q0 5 2 8.5t5 5.5t7 2t7.5 -2t5.5 -5.5t2 -8.5v-19h-29v19zM170 147v-28l-39 14z" />
    <glyph glyph-name="Rcaron" unicode="&#x158;" 
d="M125 -107h86v-24h-86v-30h-22v84h22v-30zM107.5 418.5q7.5 -13.5 20.5 -21t29 -7.5t29 7.5t20.5 21t7.5 29.5t-7.5 29.5t-20.5 21t-29 7.5t-29 -7.5t-20.5 -21t-7.5 -29.5t7.5 -29.5zM211 -61v23h-37v16l37 21v26l-41 -24q-3 6 -7.5 10.5t-10.5 7t-13 2.5q-10 0 -18.5 -5
t-13 -13.5t-4.5 -19.5v-44h108zM103 65h108v-24h-108v24zM211 79v25l-20 7v43l20 8v26l-108 -44v-23zM211 201v66h-21v-42h-87v-24h108zM211 315v23h-41v38h-22v-38h-23v42h-22v-65h108zM211 524v23h-68l68 50v19h-108v-23h66l-66 -47v-22h108zM125 632v30h86v24h-86v30h-22
v-84h22zM127.5 465.5q4.5 7.5 12 12t17.5 4.5t18 -4.5t12.5 -12t4.5 -17.5q0 -9 -4.5 -17t-12.5 -12.5t-18 -4.5t-17.5 4.5t-12 12.5t-4.5 17q0 10 4.5 17.5zM124 -19q0 5 2 8.5t5 5.5t7 2t7.5 -2t5.5 -5.5t2 -8.5v-19h-29v19zM170 147v-28l-39 14z" />
    <glyph glyph-name="uni0156" unicode="&#x156;" 
d="M125 -107h86v-24h-86v-30h-22v84h22v-30zM107.5 418.5q7.5 -13.5 20.5 -21t29 -7.5t29 7.5t20.5 21t7.5 29.5t-7.5 29.5t-20.5 21t-29 7.5t-29 -7.5t-20.5 -21t-7.5 -29.5t7.5 -29.5zM211 -61v23h-37v16l37 21v26l-41 -24q-3 6 -7.5 10.5t-10.5 7t-13 2.5q-10 0 -18.5 -5
t-13 -13.5t-4.5 -19.5v-44h108zM103 65h108v-24h-108v24zM211 79v25l-20 7v43l20 8v26l-108 -44v-23zM211 201v66h-21v-42h-87v-24h108zM211 315v23h-41v38h-22v-38h-23v42h-22v-65h108zM211 524v23h-68l68 50v19h-108v-23h66l-66 -47v-22h108zM125 632v30h86v24h-86v30h-22
v-84h22zM127.5 465.5q4.5 7.5 12 12t17.5 4.5t18 -4.5t12.5 -12t4.5 -17.5q0 -9 -4.5 -17t-12.5 -12.5t-18 -4.5t-17.5 4.5t-12 12.5t-4.5 17q0 10 4.5 17.5zM124 -19q0 5 2 8.5t5 5.5t7 2t7.5 -2t5.5 -5.5t2 -8.5v-19h-29v19zM170 147v-28l-39 14z" />
    <glyph glyph-name="S" unicode="S" horiz-adv-x="577" 
d="M199.5 -8q-44.5 5 -79 12t-55.5 15l-12 76q25 -9 62 -18t82 -15t90 -6q60 0 99 15t57.5 42.5t18.5 66.5q0 35 -13.5 58.5t-42 39t-76.5 28.5l-123 32q-56 15 -91.5 39t-53 59.5t-17.5 87.5q0 57 26.5 99.5t81 66t135.5 23.5q44 0 85.5 -4.5t73.5 -11t52 -13.5l4 -73
q-22 8 -54.5 15.5t-73 12.5t-81.5 5q-60 0 -98 -14.5t-55.5 -41t-17.5 -62.5q0 -34 13 -56.5t40 -38t74 -28.5l121 -31q58 -16 95 -39.5t56 -60t19 -90.5q0 -59 -27 -103t-83 -68t-140 -24q-47 0 -91.5 5z" />
    <glyph glyph-name="Sacute" unicode="&#x15a;" 
d="M125 -107h86v-24h-86v-30h-22v84h22v-30zM107.5 418.5q7.5 -13.5 20.5 -21t29 -7.5t29 7.5t20.5 21t7.5 29.5t-7.5 29.5t-20.5 21t-29 7.5t-29 -7.5t-20.5 -21t-7.5 -29.5t7.5 -29.5zM211 -61v23h-37v16l37 21v26l-41 -24q-3 6 -7.5 10.5t-10.5 7t-13 2.5q-10 0 -18.5 -5
t-13 -13.5t-4.5 -19.5v-44h108zM103 65h108v-24h-108v24zM211 79v25l-20 7v43l20 8v26l-108 -44v-23zM211 201v66h-21v-42h-87v-24h108zM211 315v23h-41v38h-22v-38h-23v42h-22v-65h108zM211 524v23h-68l68 50v19h-108v-23h66l-66 -47v-22h108zM125 632v30h86v24h-86v30h-22
v-84h22zM127.5 465.5q4.5 7.5 12 12t17.5 4.5t18 -4.5t12.5 -12t4.5 -17.5q0 -9 -4.5 -17t-12.5 -12.5t-18 -4.5t-17.5 4.5t-12 12.5t-4.5 17q0 10 4.5 17.5zM124 -19q0 5 2 8.5t5 5.5t7 2t7.5 -2t5.5 -5.5t2 -8.5v-19h-29v19zM170 147v-28l-39 14z" />
    <glyph glyph-name="Scaron" unicode="&#x160;" 
d="M125 -107h86v-24h-86v-30h-22v84h22v-30zM107.5 418.5q7.5 -13.5 20.5 -21t29 -7.5t29 7.5t20.5 21t7.5 29.5t-7.5 29.5t-20.5 21t-29 7.5t-29 -7.5t-20.5 -21t-7.5 -29.5t7.5 -29.5zM211 -61v23h-37v16l37 21v26l-41 -24q-3 6 -7.5 10.5t-10.5 7t-13 2.5q-10 0 -18.5 -5
t-13 -13.5t-4.5 -19.5v-44h108zM103 65h108v-24h-108v24zM211 79v25l-20 7v43l20 8v26l-108 -44v-23zM211 201v66h-21v-42h-87v-24h108zM211 315v23h-41v38h-22v-38h-23v42h-22v-65h108zM211 524v23h-68l68 50v19h-108v-23h66l-66 -47v-22h108zM125 632v30h86v24h-86v30h-22
v-84h22zM127.5 465.5q4.5 7.5 12 12t17.5 4.5t18 -4.5t12.5 -12t4.5 -17.5q0 -9 -4.5 -17t-12.5 -12.5t-18 -4.5t-17.5 4.5t-12 12.5t-4.5 17q0 10 4.5 17.5zM124 -19q0 5 2 8.5t5 5.5t7 2t7.5 -2t5.5 -5.5t2 -8.5v-19h-29v19zM170 147v-28l-39 14z" />
    <glyph glyph-name="Scedilla" unicode="&#x15e;" 
d="M125 -107h86v-24h-86v-30h-22v84h22v-30zM107.5 418.5q7.5 -13.5 20.5 -21t29 -7.5t29 7.5t20.5 21t7.5 29.5t-7.5 29.5t-20.5 21t-29 7.5t-29 -7.5t-20.5 -21t-7.5 -29.5t7.5 -29.5zM211 -61v23h-37v16l37 21v26l-41 -24q-3 6 -7.5 10.5t-10.5 7t-13 2.5q-10 0 -18.5 -5
t-13 -13.5t-4.5 -19.5v-44h108zM103 65h108v-24h-108v24zM211 79v25l-20 7v43l20 8v26l-108 -44v-23zM211 201v66h-21v-42h-87v-24h108zM211 315v23h-41v38h-22v-38h-23v42h-22v-65h108zM211 524v23h-68l68 50v19h-108v-23h66l-66 -47v-22h108zM125 632v30h86v24h-86v30h-22
v-84h22zM127.5 465.5q4.5 7.5 12 12t17.5 4.5t18 -4.5t12.5 -12t4.5 -17.5q0 -9 -4.5 -17t-12.5 -12.5t-18 -4.5t-17.5 4.5t-12 12.5t-4.5 17q0 10 4.5 17.5zM124 -19q0 5 2 8.5t5 5.5t7 2t7.5 -2t5.5 -5.5t2 -8.5v-19h-29v19zM170 147v-28l-39 14z" />
    <glyph glyph-name="Scircumflex" unicode="&#x15c;" 
d="M125 -107h86v-24h-86v-30h-22v84h22v-30zM107.5 418.5q7.5 -13.5 20.5 -21t29 -7.5t29 7.5t20.5 21t7.5 29.5t-7.5 29.5t-20.5 21t-29 7.5t-29 -7.5t-20.5 -21t-7.5 -29.5t7.5 -29.5zM211 -61v23h-37v16l37 21v26l-41 -24q-3 6 -7.5 10.5t-10.5 7t-13 2.5q-10 0 -18.5 -5
t-13 -13.5t-4.5 -19.5v-44h108zM103 65h108v-24h-108v24zM211 79v25l-20 7v43l20 8v26l-108 -44v-23zM211 201v66h-21v-42h-87v-24h108zM211 315v23h-41v38h-22v-38h-23v42h-22v-65h108zM211 524v23h-68l68 50v19h-108v-23h66l-66 -47v-22h108zM125 632v30h86v24h-86v30h-22
v-84h22zM127.5 465.5q4.5 7.5 12 12t17.5 4.5t18 -4.5t12.5 -12t4.5 -17.5q0 -9 -4.5 -17t-12.5 -12.5t-18 -4.5t-17.5 4.5t-12 12.5t-4.5 17q0 10 4.5 17.5zM124 -19q0 5 2 8.5t5 5.5t7 2t7.5 -2t5.5 -5.5t2 -8.5v-19h-29v19zM170 147v-28l-39 14z" />
    <glyph glyph-name="uni0218" unicode="&#x218;" 
d="M125 -107h86v-24h-86v-30h-22v84h22v-30zM107.5 418.5q7.5 -13.5 20.5 -21t29 -7.5t29 7.5t20.5 21t7.5 29.5t-7.5 29.5t-20.5 21t-29 7.5t-29 -7.5t-20.5 -21t-7.5 -29.5t7.5 -29.5zM211 -61v23h-37v16l37 21v26l-41 -24q-3 6 -7.5 10.5t-10.5 7t-13 2.5q-10 0 -18.5 -5
t-13 -13.5t-4.5 -19.5v-44h108zM103 65h108v-24h-108v24zM211 79v25l-20 7v43l20 8v26l-108 -44v-23zM211 201v66h-21v-42h-87v-24h108zM211 315v23h-41v38h-22v-38h-23v42h-22v-65h108zM211 524v23h-68l68 50v19h-108v-23h66l-66 -47v-22h108zM125 632v30h86v24h-86v30h-22
v-84h22zM127.5 465.5q4.5 7.5 12 12t17.5 4.5t18 -4.5t12.5 -12t4.5 -17.5q0 -9 -4.5 -17t-12.5 -12.5t-18 -4.5t-17.5 4.5t-12 12.5t-4.5 17q0 10 4.5 17.5zM124 -19q0 5 2 8.5t5 5.5t7 2t7.5 -2t5.5 -5.5t2 -8.5v-19h-29v19zM170 147v-28l-39 14z" />
    <glyph glyph-name="uni1E9E" unicode="&#x1e9e;" 
d="M125 -107h86v-24h-86v-30h-22v84h22v-30zM107.5 418.5q7.5 -13.5 20.5 -21t29 -7.5t29 7.5t20.5 21t7.5 29.5t-7.5 29.5t-20.5 21t-29 7.5t-29 -7.5t-20.5 -21t-7.5 -29.5t7.5 -29.5zM211 -61v23h-37v16l37 21v26l-41 -24q-3 6 -7.5 10.5t-10.5 7t-13 2.5q-10 0 -18.5 -5
t-13 -13.5t-4.5 -19.5v-44h108zM103 65h108v-24h-108v24zM211 79v25l-20 7v43l20 8v26l-108 -44v-23zM211 201v66h-21v-42h-87v-24h108zM211 315v23h-41v38h-22v-38h-23v42h-22v-65h108zM211 524v23h-68l68 50v19h-108v-23h66l-66 -47v-22h108zM125 632v30h86v24h-86v30h-22
v-84h22zM127.5 465.5q4.5 7.5 12 12t17.5 4.5t18 -4.5t12.5 -12t4.5 -17.5q0 -9 -4.5 -17t-12.5 -12.5t-18 -4.5t-17.5 4.5t-12 12.5t-4.5 17q0 10 4.5 17.5zM124 -19q0 5 2 8.5t5 5.5t7 2t7.5 -2t5.5 -5.5t2 -8.5v-19h-29v19zM170 147v-28l-39 14z" />
    <glyph glyph-name="T" unicode="T" horiz-adv-x="540" 
d="M519 629h-210v-629h-78v629h-210v71h498v-71z" />
    <glyph glyph-name="Tbar" unicode="&#x166;" 
d="M125 -107h86v-24h-86v-30h-22v84h22v-30zM107.5 418.5q7.5 -13.5 20.5 -21t29 -7.5t29 7.5t20.5 21t7.5 29.5t-7.5 29.5t-20.5 21t-29 7.5t-29 -7.5t-20.5 -21t-7.5 -29.5t7.5 -29.5zM211 -61v23h-37v16l37 21v26l-41 -24q-3 6 -7.5 10.5t-10.5 7t-13 2.5q-10 0 -18.5 -5
t-13 -13.5t-4.5 -19.5v-44h108zM103 65h108v-24h-108v24zM211 79v25l-20 7v43l20 8v26l-108 -44v-23zM211 201v66h-21v-42h-87v-24h108zM211 315v23h-41v38h-22v-38h-23v42h-22v-65h108zM211 524v23h-68l68 50v19h-108v-23h66l-66 -47v-22h108zM125 632v30h86v24h-86v30h-22
v-84h22zM127.5 465.5q4.5 7.5 12 12t17.5 4.5t18 -4.5t12.5 -12t4.5 -17.5q0 -9 -4.5 -17t-12.5 -12.5t-18 -4.5t-17.5 4.5t-12 12.5t-4.5 17q0 10 4.5 17.5zM124 -19q0 5 2 8.5t5 5.5t7 2t7.5 -2t5.5 -5.5t2 -8.5v-19h-29v19zM170 147v-28l-39 14z" />
    <glyph glyph-name="Tcaron" unicode="&#x164;" 
d="M125 -107h86v-24h-86v-30h-22v84h22v-30zM107.5 418.5q7.5 -13.5 20.5 -21t29 -7.5t29 7.5t20.5 21t7.5 29.5t-7.5 29.5t-20.5 21t-29 7.5t-29 -7.5t-20.5 -21t-7.5 -29.5t7.5 -29.5zM211 -61v23h-37v16l37 21v26l-41 -24q-3 6 -7.5 10.5t-10.5 7t-13 2.5q-10 0 -18.5 -5
t-13 -13.5t-4.5 -19.5v-44h108zM103 65h108v-24h-108v24zM211 79v25l-20 7v43l20 8v26l-108 -44v-23zM211 201v66h-21v-42h-87v-24h108zM211 315v23h-41v38h-22v-38h-23v42h-22v-65h108zM211 524v23h-68l68 50v19h-108v-23h66l-66 -47v-22h108zM125 632v30h86v24h-86v30h-22
v-84h22zM127.5 465.5q4.5 7.5 12 12t17.5 4.5t18 -4.5t12.5 -12t4.5 -17.5q0 -9 -4.5 -17t-12.5 -12.5t-18 -4.5t-17.5 4.5t-12 12.5t-4.5 17q0 10 4.5 17.5zM124 -19q0 5 2 8.5t5 5.5t7 2t7.5 -2t5.5 -5.5t2 -8.5v-19h-29v19zM170 147v-28l-39 14z" />
    <glyph glyph-name="U" unicode="U" horiz-adv-x="666" 
d="M196 14.5q-54 27.5 -80.5 84.5t-26.5 146v455h77v-455q0 -68 19 -109.5t56 -60t92 -18.5t91.5 18.5t56 60t19.5 109.5v455h78v-455q0 -89 -27 -146t-81 -84.5t-137 -27.5t-137 27.5z" />
    <glyph glyph-name="Uacute" unicode="&#xda;" 
d="M125 -107h86v-24h-86v-30h-22v84h22v-30zM107.5 418.5q7.5 -13.5 20.5 -21t29 -7.5t29 7.5t20.5 21t7.5 29.5t-7.5 29.5t-20.5 21t-29 7.5t-29 -7.5t-20.5 -21t-7.5 -29.5t7.5 -29.5zM211 -61v23h-37v16l37 21v26l-41 -24q-3 6 -7.5 10.5t-10.5 7t-13 2.5q-10 0 -18.5 -5
t-13 -13.5t-4.5 -19.5v-44h108zM103 65h108v-24h-108v24zM211 79v25l-20 7v43l20 8v26l-108 -44v-23zM211 201v66h-21v-42h-87v-24h108zM211 315v23h-41v38h-22v-38h-23v42h-22v-65h108zM211 524v23h-68l68 50v19h-108v-23h66l-66 -47v-22h108zM125 632v30h86v24h-86v30h-22
v-84h22zM127.5 465.5q4.5 7.5 12 12t17.5 4.5t18 -4.5t12.5 -12t4.5 -17.5q0 -9 -4.5 -17t-12.5 -12.5t-18 -4.5t-17.5 4.5t-12 12.5t-4.5 17q0 10 4.5 17.5zM124 -19q0 5 2 8.5t5 5.5t7 2t7.5 -2t5.5 -5.5t2 -8.5v-19h-29v19zM170 147v-28l-39 14z" />
    <glyph glyph-name="Ucircumflex" unicode="&#xdb;" 
d="M125 -107h86v-24h-86v-30h-22v84h22v-30zM107.5 418.5q7.5 -13.5 20.5 -21t29 -7.5t29 7.5t20.5 21t7.5 29.5t-7.5 29.5t-20.5 21t-29 7.5t-29 -7.5t-20.5 -21t-7.5 -29.5t7.5 -29.5zM211 -61v23h-37v16l37 21v26l-41 -24q-3 6 -7.5 10.5t-10.5 7t-13 2.5q-10 0 -18.5 -5
t-13 -13.5t-4.5 -19.5v-44h108zM103 65h108v-24h-108v24zM211 79v25l-20 7v43l20 8v26l-108 -44v-23zM211 201v66h-21v-42h-87v-24h108zM211 315v23h-41v38h-22v-38h-23v42h-22v-65h108zM211 524v23h-68l68 50v19h-108v-23h66l-66 -47v-22h108zM125 632v30h86v24h-86v30h-22
v-84h22zM127.5 465.5q4.5 7.5 12 12t17.5 4.5t18 -4.5t12.5 -12t4.5 -17.5q0 -9 -4.5 -17t-12.5 -12.5t-18 -4.5t-17.5 4.5t-12 12.5t-4.5 17q0 10 4.5 17.5zM124 -19q0 5 2 8.5t5 5.5t7 2t7.5 -2t5.5 -5.5t2 -8.5v-19h-29v19zM170 147v-28l-39 14z" />
    <glyph glyph-name="Udieresis" unicode="&#xdc;" 
d="M125 -107h86v-24h-86v-30h-22v84h22v-30zM107.5 418.5q7.5 -13.5 20.5 -21t29 -7.5t29 7.5t20.5 21t7.5 29.5t-7.5 29.5t-20.5 21t-29 7.5t-29 -7.5t-20.5 -21t-7.5 -29.5t7.5 -29.5zM211 -61v23h-37v16l37 21v26l-41 -24q-3 6 -7.5 10.5t-10.5 7t-13 2.5q-10 0 -18.5 -5
t-13 -13.5t-4.5 -19.5v-44h108zM103 65h108v-24h-108v24zM211 79v25l-20 7v43l20 8v26l-108 -44v-23zM211 201v66h-21v-42h-87v-24h108zM211 315v23h-41v38h-22v-38h-23v42h-22v-65h108zM211 524v23h-68l68 50v19h-108v-23h66l-66 -47v-22h108zM125 632v30h86v24h-86v30h-22
v-84h22zM127.5 465.5q4.5 7.5 12 12t17.5 4.5t18 -4.5t12.5 -12t4.5 -17.5q0 -9 -4.5 -17t-12.5 -12.5t-18 -4.5t-17.5 4.5t-12 12.5t-4.5 17q0 10 4.5 17.5zM124 -19q0 5 2 8.5t5 5.5t7 2t7.5 -2t5.5 -5.5t2 -8.5v-19h-29v19zM170 147v-28l-39 14z" />
    <glyph glyph-name="Ugrave" unicode="&#xd9;" 
d="M125 -107h86v-24h-86v-30h-22v84h22v-30zM107.5 418.5q7.5 -13.5 20.5 -21t29 -7.5t29 7.5t20.5 21t7.5 29.5t-7.5 29.5t-20.5 21t-29 7.5t-29 -7.5t-20.5 -21t-7.5 -29.5t7.5 -29.5zM211 -61v23h-37v16l37 21v26l-41 -24q-3 6 -7.5 10.5t-10.5 7t-13 2.5q-10 0 -18.5 -5
t-13 -13.5t-4.5 -19.5v-44h108zM103 65h108v-24h-108v24zM211 79v25l-20 7v43l20 8v26l-108 -44v-23zM211 201v66h-21v-42h-87v-24h108zM211 315v23h-41v38h-22v-38h-23v42h-22v-65h108zM211 524v23h-68l68 50v19h-108v-23h66l-66 -47v-22h108zM125 632v30h86v24h-86v30h-22
v-84h22zM127.5 465.5q4.5 7.5 12 12t17.5 4.5t18 -4.5t12.5 -12t4.5 -17.5q0 -9 -4.5 -17t-12.5 -12.5t-18 -4.5t-17.5 4.5t-12 12.5t-4.5 17q0 10 4.5 17.5zM124 -19q0 5 2 8.5t5 5.5t7 2t7.5 -2t5.5 -5.5t2 -8.5v-19h-29v19zM170 147v-28l-39 14z" />
    <glyph glyph-name="Uhungarumlaut" unicode="&#x170;" 
d="M125 -107h86v-24h-86v-30h-22v84h22v-30zM107.5 418.5q7.5 -13.5 20.5 -21t29 -7.5t29 7.5t20.5 21t7.5 29.5t-7.5 29.5t-20.5 21t-29 7.5t-29 -7.5t-20.5 -21t-7.5 -29.5t7.5 -29.5zM211 -61v23h-37v16l37 21v26l-41 -24q-3 6 -7.5 10.5t-10.5 7t-13 2.5q-10 0 -18.5 -5
t-13 -13.5t-4.5 -19.5v-44h108zM103 65h108v-24h-108v24zM211 79v25l-20 7v43l20 8v26l-108 -44v-23zM211 201v66h-21v-42h-87v-24h108zM211 315v23h-41v38h-22v-38h-23v42h-22v-65h108zM211 524v23h-68l68 50v19h-108v-23h66l-66 -47v-22h108zM125 632v30h86v24h-86v30h-22
v-84h22zM127.5 465.5q4.5 7.5 12 12t17.5 4.5t18 -4.5t12.5 -12t4.5 -17.5q0 -9 -4.5 -17t-12.5 -12.5t-18 -4.5t-17.5 4.5t-12 12.5t-4.5 17q0 10 4.5 17.5zM124 -19q0 5 2 8.5t5 5.5t7 2t7.5 -2t5.5 -5.5t2 -8.5v-19h-29v19zM170 147v-28l-39 14z" />
    <glyph glyph-name="Umacron" unicode="&#x16a;" 
d="M125 -107h86v-24h-86v-30h-22v84h22v-30zM107.5 418.5q7.5 -13.5 20.5 -21t29 -7.5t29 7.5t20.5 21t7.5 29.5t-7.5 29.5t-20.5 21t-29 7.5t-29 -7.5t-20.5 -21t-7.5 -29.5t7.5 -29.5zM211 -61v23h-37v16l37 21v26l-41 -24q-3 6 -7.5 10.5t-10.5 7t-13 2.5q-10 0 -18.5 -5
t-13 -13.5t-4.5 -19.5v-44h108zM103 65h108v-24h-108v24zM211 79v25l-20 7v43l20 8v26l-108 -44v-23zM211 201v66h-21v-42h-87v-24h108zM211 315v23h-41v38h-22v-38h-23v42h-22v-65h108zM211 524v23h-68l68 50v19h-108v-23h66l-66 -47v-22h108zM125 632v30h86v24h-86v30h-22
v-84h22zM127.5 465.5q4.5 7.5 12 12t17.5 4.5t18 -4.5t12.5 -12t4.5 -17.5q0 -9 -4.5 -17t-12.5 -12.5t-18 -4.5t-17.5 4.5t-12 12.5t-4.5 17q0 10 4.5 17.5zM124 -19q0 5 2 8.5t5 5.5t7 2t7.5 -2t5.5 -5.5t2 -8.5v-19h-29v19zM170 147v-28l-39 14z" />
    <glyph glyph-name="Uogonek" unicode="&#x172;" 
d="M125 -107h86v-24h-86v-30h-22v84h22v-30zM107.5 418.5q7.5 -13.5 20.5 -21t29 -7.5t29 7.5t20.5 21t7.5 29.5t-7.5 29.5t-20.5 21t-29 7.5t-29 -7.5t-20.5 -21t-7.5 -29.5t7.5 -29.5zM211 -61v23h-37v16l37 21v26l-41 -24q-3 6 -7.5 10.5t-10.5 7t-13 2.5q-10 0 -18.5 -5
t-13 -13.5t-4.5 -19.5v-44h108zM103 65h108v-24h-108v24zM211 79v25l-20 7v43l20 8v26l-108 -44v-23zM211 201v66h-21v-42h-87v-24h108zM211 315v23h-41v38h-22v-38h-23v42h-22v-65h108zM211 524v23h-68l68 50v19h-108v-23h66l-66 -47v-22h108zM125 632v30h86v24h-86v30h-22
v-84h22zM127.5 465.5q4.5 7.5 12 12t17.5 4.5t18 -4.5t12.5 -12t4.5 -17.5q0 -9 -4.5 -17t-12.5 -12.5t-18 -4.5t-17.5 4.5t-12 12.5t-4.5 17q0 10 4.5 17.5zM124 -19q0 5 2 8.5t5 5.5t7 2t7.5 -2t5.5 -5.5t2 -8.5v-19h-29v19zM170 147v-28l-39 14z" />
    <glyph glyph-name="Uring" unicode="&#x16e;" 
d="M125 -107h86v-24h-86v-30h-22v84h22v-30zM107.5 418.5q7.5 -13.5 20.5 -21t29 -7.5t29 7.5t20.5 21t7.5 29.5t-7.5 29.5t-20.5 21t-29 7.5t-29 -7.5t-20.5 -21t-7.5 -29.5t7.5 -29.5zM211 -61v23h-37v16l37 21v26l-41 -24q-3 6 -7.5 10.5t-10.5 7t-13 2.5q-10 0 -18.5 -5
t-13 -13.5t-4.5 -19.5v-44h108zM103 65h108v-24h-108v24zM211 79v25l-20 7v43l20 8v26l-108 -44v-23zM211 201v66h-21v-42h-87v-24h108zM211 315v23h-41v38h-22v-38h-23v42h-22v-65h108zM211 524v23h-68l68 50v19h-108v-23h66l-66 -47v-22h108zM125 632v30h86v24h-86v30h-22
v-84h22zM127.5 465.5q4.5 7.5 12 12t17.5 4.5t18 -4.5t12.5 -12t4.5 -17.5q0 -9 -4.5 -17t-12.5 -12.5t-18 -4.5t-17.5 4.5t-12 12.5t-4.5 17q0 10 4.5 17.5zM124 -19q0 5 2 8.5t5 5.5t7 2t7.5 -2t5.5 -5.5t2 -8.5v-19h-29v19zM170 147v-28l-39 14z" />
    <glyph glyph-name="Utilde" unicode="&#x168;" 
d="M125 -107h86v-24h-86v-30h-22v84h22v-30zM107.5 418.5q7.5 -13.5 20.5 -21t29 -7.5t29 7.5t20.5 21t7.5 29.5t-7.5 29.5t-20.5 21t-29 7.5t-29 -7.5t-20.5 -21t-7.5 -29.5t7.5 -29.5zM211 -61v23h-37v16l37 21v26l-41 -24q-3 6 -7.5 10.5t-10.5 7t-13 2.5q-10 0 -18.5 -5
t-13 -13.5t-4.5 -19.5v-44h108zM103 65h108v-24h-108v24zM211 79v25l-20 7v43l20 8v26l-108 -44v-23zM211 201v66h-21v-42h-87v-24h108zM211 315v23h-41v38h-22v-38h-23v42h-22v-65h108zM211 524v23h-68l68 50v19h-108v-23h66l-66 -47v-22h108zM125 632v30h86v24h-86v30h-22
v-84h22zM127.5 465.5q4.5 7.5 12 12t17.5 4.5t18 -4.5t12.5 -12t4.5 -17.5q0 -9 -4.5 -17t-12.5 -12.5t-18 -4.5t-17.5 4.5t-12 12.5t-4.5 17q0 10 4.5 17.5zM124 -19q0 5 2 8.5t5 5.5t7 2t7.5 -2t5.5 -5.5t2 -8.5v-19h-29v19zM170 147v-28l-39 14z" />
    <glyph glyph-name="V" unicode="V" horiz-adv-x="613" 
d="M598 700l-254 -700h-75l-253 700h85l207 -589l207 589h83z" />
    <glyph glyph-name="W" unicode="W" horiz-adv-x="879" 
d="M848 700l-147 -700h-78l-183 522l-184 -522h-77l-149 700h79l118 -581l208 581h11l208 -582l117 582h77z" />
    <glyph glyph-name="Wacute" unicode="&#x1e82;" 
d="M125 -107h86v-24h-86v-30h-22v84h22v-30zM107.5 418.5q7.5 -13.5 20.5 -21t29 -7.5t29 7.5t20.5 21t7.5 29.5t-7.5 29.5t-20.5 21t-29 7.5t-29 -7.5t-20.5 -21t-7.5 -29.5t7.5 -29.5zM211 -61v23h-37v16l37 21v26l-41 -24q-3 6 -7.5 10.5t-10.5 7t-13 2.5q-10 0 -18.5 -5
t-13 -13.5t-4.5 -19.5v-44h108zM103 65h108v-24h-108v24zM211 79v25l-20 7v43l20 8v26l-108 -44v-23zM211 201v66h-21v-42h-87v-24h108zM211 315v23h-41v38h-22v-38h-23v42h-22v-65h108zM211 524v23h-68l68 50v19h-108v-23h66l-66 -47v-22h108zM125 632v30h86v24h-86v30h-22
v-84h22zM127.5 465.5q4.5 7.5 12 12t17.5 4.5t18 -4.5t12.5 -12t4.5 -17.5q0 -9 -4.5 -17t-12.5 -12.5t-18 -4.5t-17.5 4.5t-12 12.5t-4.5 17q0 10 4.5 17.5zM124 -19q0 5 2 8.5t5 5.5t7 2t7.5 -2t5.5 -5.5t2 -8.5v-19h-29v19zM170 147v-28l-39 14z" />
    <glyph glyph-name="Wcircumflex" unicode="&#x174;" 
d="M125 -107h86v-24h-86v-30h-22v84h22v-30zM107.5 418.5q7.5 -13.5 20.5 -21t29 -7.5t29 7.5t20.5 21t7.5 29.5t-7.5 29.5t-20.5 21t-29 7.5t-29 -7.5t-20.5 -21t-7.5 -29.5t7.5 -29.5zM211 -61v23h-37v16l37 21v26l-41 -24q-3 6 -7.5 10.5t-10.5 7t-13 2.5q-10 0 -18.5 -5
t-13 -13.5t-4.5 -19.5v-44h108zM103 65h108v-24h-108v24zM211 79v25l-20 7v43l20 8v26l-108 -44v-23zM211 201v66h-21v-42h-87v-24h108zM211 315v23h-41v38h-22v-38h-23v42h-22v-65h108zM211 524v23h-68l68 50v19h-108v-23h66l-66 -47v-22h108zM125 632v30h86v24h-86v30h-22
v-84h22zM127.5 465.5q4.5 7.5 12 12t17.5 4.5t18 -4.5t12.5 -12t4.5 -17.5q0 -9 -4.5 -17t-12.5 -12.5t-18 -4.5t-17.5 4.5t-12 12.5t-4.5 17q0 10 4.5 17.5zM124 -19q0 5 2 8.5t5 5.5t7 2t7.5 -2t5.5 -5.5t2 -8.5v-19h-29v19zM170 147v-28l-39 14z" />
    <glyph glyph-name="Wdieresis" unicode="&#x1e84;" 
d="M125 -107h86v-24h-86v-30h-22v84h22v-30zM107.5 418.5q7.5 -13.5 20.5 -21t29 -7.5t29 7.5t20.5 21t7.5 29.5t-7.5 29.5t-20.5 21t-29 7.5t-29 -7.5t-20.5 -21t-7.5 -29.5t7.5 -29.5zM211 -61v23h-37v16l37 21v26l-41 -24q-3 6 -7.5 10.5t-10.5 7t-13 2.5q-10 0 -18.5 -5
t-13 -13.5t-4.5 -19.5v-44h108zM103 65h108v-24h-108v24zM211 79v25l-20 7v43l20 8v26l-108 -44v-23zM211 201v66h-21v-42h-87v-24h108zM211 315v23h-41v38h-22v-38h-23v42h-22v-65h108zM211 524v23h-68l68 50v19h-108v-23h66l-66 -47v-22h108zM125 632v30h86v24h-86v30h-22
v-84h22zM127.5 465.5q4.5 7.5 12 12t17.5 4.5t18 -4.5t12.5 -12t4.5 -17.5q0 -9 -4.5 -17t-12.5 -12.5t-18 -4.5t-17.5 4.5t-12 12.5t-4.5 17q0 10 4.5 17.5zM124 -19q0 5 2 8.5t5 5.5t7 2t7.5 -2t5.5 -5.5t2 -8.5v-19h-29v19zM170 147v-28l-39 14z" />
    <glyph glyph-name="Wgrave" unicode="&#x1e80;" 
d="M125 -107h86v-24h-86v-30h-22v84h22v-30zM107.5 418.5q7.5 -13.5 20.5 -21t29 -7.5t29 7.5t20.5 21t7.5 29.5t-7.5 29.5t-20.5 21t-29 7.5t-29 -7.5t-20.5 -21t-7.5 -29.5t7.5 -29.5zM211 -61v23h-37v16l37 21v26l-41 -24q-3 6 -7.5 10.5t-10.5 7t-13 2.5q-10 0 -18.5 -5
t-13 -13.5t-4.5 -19.5v-44h108zM103 65h108v-24h-108v24zM211 79v25l-20 7v43l20 8v26l-108 -44v-23zM211 201v66h-21v-42h-87v-24h108zM211 315v23h-41v38h-22v-38h-23v42h-22v-65h108zM211 524v23h-68l68 50v19h-108v-23h66l-66 -47v-22h108zM125 632v30h86v24h-86v30h-22
v-84h22zM127.5 465.5q4.5 7.5 12 12t17.5 4.5t18 -4.5t12.5 -12t4.5 -17.5q0 -9 -4.5 -17t-12.5 -12.5t-18 -4.5t-17.5 4.5t-12 12.5t-4.5 17q0 10 4.5 17.5zM124 -19q0 5 2 8.5t5 5.5t7 2t7.5 -2t5.5 -5.5t2 -8.5v-19h-29v19zM170 147v-28l-39 14z" />
    <glyph glyph-name="X" unicode="X" horiz-adv-x="597" 
d="M493 0l-195 295l-197 -295h-90l242 356l-230 344h92l184 -278l186 278h89l-229 -340l240 -360h-92z" />
    <glyph glyph-name="Y" unicode="Y" horiz-adv-x="603" 
d="M341 274v-274h-78v273l-246 427h88l198 -345l197 345h86z" />
    <glyph glyph-name="Yacute" unicode="&#xdd;" 
d="M125 -107h86v-24h-86v-30h-22v84h22v-30zM107.5 418.5q7.5 -13.5 20.5 -21t29 -7.5t29 7.5t20.5 21t7.5 29.5t-7.5 29.5t-20.5 21t-29 7.5t-29 -7.5t-20.5 -21t-7.5 -29.5t7.5 -29.5zM211 -61v23h-37v16l37 21v26l-41 -24q-3 6 -7.5 10.5t-10.5 7t-13 2.5q-10 0 -18.5 -5
t-13 -13.5t-4.5 -19.5v-44h108zM103 65h108v-24h-108v24zM211 79v25l-20 7v43l20 8v26l-108 -44v-23zM211 201v66h-21v-42h-87v-24h108zM211 315v23h-41v38h-22v-38h-23v42h-22v-65h108zM211 524v23h-68l68 50v19h-108v-23h66l-66 -47v-22h108zM125 632v30h86v24h-86v30h-22
v-84h22zM127.5 465.5q4.5 7.5 12 12t17.5 4.5t18 -4.5t12.5 -12t4.5 -17.5q0 -9 -4.5 -17t-12.5 -12.5t-18 -4.5t-17.5 4.5t-12 12.5t-4.5 17q0 10 4.5 17.5zM124 -19q0 5 2 8.5t5 5.5t7 2t7.5 -2t5.5 -5.5t2 -8.5v-19h-29v19zM170 147v-28l-39 14z" />
    <glyph glyph-name="Ycircumflex" unicode="&#x176;" 
d="M125 -107h86v-24h-86v-30h-22v84h22v-30zM107.5 418.5q7.5 -13.5 20.5 -21t29 -7.5t29 7.5t20.5 21t7.5 29.5t-7.5 29.5t-20.5 21t-29 7.5t-29 -7.5t-20.5 -21t-7.5 -29.5t7.5 -29.5zM211 -61v23h-37v16l37 21v26l-41 -24q-3 6 -7.5 10.5t-10.5 7t-13 2.5q-10 0 -18.5 -5
t-13 -13.5t-4.5 -19.5v-44h108zM103 65h108v-24h-108v24zM211 79v25l-20 7v43l20 8v26l-108 -44v-23zM211 201v66h-21v-42h-87v-24h108zM211 315v23h-41v38h-22v-38h-23v42h-22v-65h108zM211 524v23h-68l68 50v19h-108v-23h66l-66 -47v-22h108zM125 632v30h86v24h-86v30h-22
v-84h22zM127.5 465.5q4.5 7.5 12 12t17.5 4.5t18 -4.5t12.5 -12t4.5 -17.5q0 -9 -4.5 -17t-12.5 -12.5t-18 -4.5t-17.5 4.5t-12 12.5t-4.5 17q0 10 4.5 17.5zM124 -19q0 5 2 8.5t5 5.5t7 2t7.5 -2t5.5 -5.5t2 -8.5v-19h-29v19zM170 147v-28l-39 14z" />
    <glyph glyph-name="Ydieresis" unicode="&#x178;" 
d="M125 -107h86v-24h-86v-30h-22v84h22v-30zM107.5 418.5q7.5 -13.5 20.5 -21t29 -7.5t29 7.5t20.5 21t7.5 29.5t-7.5 29.5t-20.5 21t-29 7.5t-29 -7.5t-20.5 -21t-7.5 -29.5t7.5 -29.5zM211 -61v23h-37v16l37 21v26l-41 -24q-3 6 -7.5 10.5t-10.5 7t-13 2.5q-10 0 -18.5 -5
t-13 -13.5t-4.5 -19.5v-44h108zM103 65h108v-24h-108v24zM211 79v25l-20 7v43l20 8v26l-108 -44v-23zM211 201v66h-21v-42h-87v-24h108zM211 315v23h-41v38h-22v-38h-23v42h-22v-65h108zM211 524v23h-68l68 50v19h-108v-23h66l-66 -47v-22h108zM125 632v30h86v24h-86v30h-22
v-84h22zM127.5 465.5q4.5 7.5 12 12t17.5 4.5t18 -4.5t12.5 -12t4.5 -17.5q0 -9 -4.5 -17t-12.5 -12.5t-18 -4.5t-17.5 4.5t-12 12.5t-4.5 17q0 10 4.5 17.5zM124 -19q0 5 2 8.5t5 5.5t7 2t7.5 -2t5.5 -5.5t2 -8.5v-19h-29v19zM170 147v-28l-39 14z" />
    <glyph glyph-name="Ygrave" unicode="&#x1ef2;" 
d="M125 -107h86v-24h-86v-30h-22v84h22v-30zM107.5 418.5q7.5 -13.5 20.5 -21t29 -7.5t29 7.5t20.5 21t7.5 29.5t-7.5 29.5t-20.5 21t-29 7.5t-29 -7.5t-20.5 -21t-7.5 -29.5t7.5 -29.5zM211 -61v23h-37v16l37 21v26l-41 -24q-3 6 -7.5 10.5t-10.5 7t-13 2.5q-10 0 -18.5 -5
t-13 -13.5t-4.5 -19.5v-44h108zM103 65h108v-24h-108v24zM211 79v25l-20 7v43l20 8v26l-108 -44v-23zM211 201v66h-21v-42h-87v-24h108zM211 315v23h-41v38h-22v-38h-23v42h-22v-65h108zM211 524v23h-68l68 50v19h-108v-23h66l-66 -47v-22h108zM125 632v30h86v24h-86v30h-22
v-84h22zM127.5 465.5q4.5 7.5 12 12t17.5 4.5t18 -4.5t12.5 -12t4.5 -17.5q0 -9 -4.5 -17t-12.5 -12.5t-18 -4.5t-17.5 4.5t-12 12.5t-4.5 17q0 10 4.5 17.5zM124 -19q0 5 2 8.5t5 5.5t7 2t7.5 -2t5.5 -5.5t2 -8.5v-19h-29v19zM170 147v-28l-39 14z" />
    <glyph glyph-name="Z" unicode="Z" horiz-adv-x="548" 
d="M512 71l-12 -71h-466v63l377 566h-364v71h459v-63l-376 -566h382z" />
    <glyph glyph-name="Zacute" unicode="&#x179;" 
d="M125 -107h86v-24h-86v-30h-22v84h22v-30zM107.5 418.5q7.5 -13.5 20.5 -21t29 -7.5t29 7.5t20.5 21t7.5 29.5t-7.5 29.5t-20.5 21t-29 7.5t-29 -7.5t-20.5 -21t-7.5 -29.5t7.5 -29.5zM211 -61v23h-37v16l37 21v26l-41 -24q-3 6 -7.5 10.5t-10.5 7t-13 2.5q-10 0 -18.5 -5
t-13 -13.5t-4.5 -19.5v-44h108zM103 65h108v-24h-108v24zM211 79v25l-20 7v43l20 8v26l-108 -44v-23zM211 201v66h-21v-42h-87v-24h108zM211 315v23h-41v38h-22v-38h-23v42h-22v-65h108zM211 524v23h-68l68 50v19h-108v-23h66l-66 -47v-22h108zM125 632v30h86v24h-86v30h-22
v-84h22zM127.5 465.5q4.5 7.5 12 12t17.5 4.5t18 -4.5t12.5 -12t4.5 -17.5q0 -9 -4.5 -17t-12.5 -12.5t-18 -4.5t-17.5 4.5t-12 12.5t-4.5 17q0 10 4.5 17.5zM124 -19q0 5 2 8.5t5 5.5t7 2t7.5 -2t5.5 -5.5t2 -8.5v-19h-29v19zM170 147v-28l-39 14z" />
    <glyph glyph-name="Zcaron" unicode="&#x17d;" 
d="M125 -107h86v-24h-86v-30h-22v84h22v-30zM107.5 418.5q7.5 -13.5 20.5 -21t29 -7.5t29 7.5t20.5 21t7.5 29.5t-7.5 29.5t-20.5 21t-29 7.5t-29 -7.5t-20.5 -21t-7.5 -29.5t7.5 -29.5zM211 -61v23h-37v16l37 21v26l-41 -24q-3 6 -7.5 10.5t-10.5 7t-13 2.5q-10 0 -18.5 -5
t-13 -13.5t-4.5 -19.5v-44h108zM103 65h108v-24h-108v24zM211 79v25l-20 7v43l20 8v26l-108 -44v-23zM211 201v66h-21v-42h-87v-24h108zM211 315v23h-41v38h-22v-38h-23v42h-22v-65h108zM211 524v23h-68l68 50v19h-108v-23h66l-66 -47v-22h108zM125 632v30h86v24h-86v30h-22
v-84h22zM127.5 465.5q4.5 7.5 12 12t17.5 4.5t18 -4.5t12.5 -12t4.5 -17.5q0 -9 -4.5 -17t-12.5 -12.5t-18 -4.5t-17.5 4.5t-12 12.5t-4.5 17q0 10 4.5 17.5zM124 -19q0 5 2 8.5t5 5.5t7 2t7.5 -2t5.5 -5.5t2 -8.5v-19h-29v19zM170 147v-28l-39 14z" />
    <glyph glyph-name="Zdotaccent" unicode="&#x17b;" 
d="M125 -107h86v-24h-86v-30h-22v84h22v-30zM107.5 418.5q7.5 -13.5 20.5 -21t29 -7.5t29 7.5t20.5 21t7.5 29.5t-7.5 29.5t-20.5 21t-29 7.5t-29 -7.5t-20.5 -21t-7.5 -29.5t7.5 -29.5zM211 -61v23h-37v16l37 21v26l-41 -24q-3 6 -7.5 10.5t-10.5 7t-13 2.5q-10 0 -18.5 -5
t-13 -13.5t-4.5 -19.5v-44h108zM103 65h108v-24h-108v24zM211 79v25l-20 7v43l20 8v26l-108 -44v-23zM211 201v66h-21v-42h-87v-24h108zM211 315v23h-41v38h-22v-38h-23v42h-22v-65h108zM211 524v23h-68l68 50v19h-108v-23h66l-66 -47v-22h108zM125 632v30h86v24h-86v30h-22
v-84h22zM127.5 465.5q4.5 7.5 12 12t17.5 4.5t18 -4.5t12.5 -12t4.5 -17.5q0 -9 -4.5 -17t-12.5 -12.5t-18 -4.5t-17.5 4.5t-12 12.5t-4.5 17q0 10 4.5 17.5zM124 -19q0 5 2 8.5t5 5.5t7 2t7.5 -2t5.5 -5.5t2 -8.5v-19h-29v19zM170 147v-28l-39 14z" />
    <glyph glyph-name="uni0162" unicode="&#x162;" 
d="M125 -107h86v-24h-86v-30h-22v84h22v-30zM107.5 418.5q7.5 -13.5 20.5 -21t29 -7.5t29 7.5t20.5 21t7.5 29.5t-7.5 29.5t-20.5 21t-29 7.5t-29 -7.5t-20.5 -21t-7.5 -29.5t7.5 -29.5zM211 -61v23h-37v16l37 21v26l-41 -24q-3 6 -7.5 10.5t-10.5 7t-13 2.5q-10 0 -18.5 -5
t-13 -13.5t-4.5 -19.5v-44h108zM103 65h108v-24h-108v24zM211 79v25l-20 7v43l20 8v26l-108 -44v-23zM211 201v66h-21v-42h-87v-24h108zM211 315v23h-41v38h-22v-38h-23v42h-22v-65h108zM211 524v23h-68l68 50v19h-108v-23h66l-66 -47v-22h108zM125 632v30h86v24h-86v30h-22
v-84h22zM127.5 465.5q4.5 7.5 12 12t17.5 4.5t18 -4.5t12.5 -12t4.5 -17.5q0 -9 -4.5 -17t-12.5 -12.5t-18 -4.5t-17.5 4.5t-12 12.5t-4.5 17q0 10 4.5 17.5zM124 -19q0 5 2 8.5t5 5.5t7 2t7.5 -2t5.5 -5.5t2 -8.5v-19h-29v19zM170 147v-28l-39 14z" />
    <glyph glyph-name="uni021A" unicode="&#x21a;" 
d="M125 -107h86v-24h-86v-30h-22v84h22v-30zM107.5 418.5q7.5 -13.5 20.5 -21t29 -7.5t29 7.5t20.5 21t7.5 29.5t-7.5 29.5t-20.5 21t-29 7.5t-29 -7.5t-20.5 -21t-7.5 -29.5t7.5 -29.5zM211 -61v23h-37v16l37 21v26l-41 -24q-3 6 -7.5 10.5t-10.5 7t-13 2.5q-10 0 -18.5 -5
t-13 -13.5t-4.5 -19.5v-44h108zM103 65h108v-24h-108v24zM211 79v25l-20 7v43l20 8v26l-108 -44v-23zM211 201v66h-21v-42h-87v-24h108zM211 315v23h-41v38h-22v-38h-23v42h-22v-65h108zM211 524v23h-68l68 50v19h-108v-23h66l-66 -47v-22h108zM125 632v30h86v24h-86v30h-22
v-84h22zM127.5 465.5q4.5 7.5 12 12t17.5 4.5t18 -4.5t12.5 -12t4.5 -17.5q0 -9 -4.5 -17t-12.5 -12.5t-18 -4.5t-17.5 4.5t-12 12.5t-4.5 17q0 10 4.5 17.5zM124 -19q0 5 2 8.5t5 5.5t7 2t7.5 -2t5.5 -5.5t2 -8.5v-19h-29v19zM170 147v-28l-39 14z" />
    <glyph glyph-name="a" unicode="a" horiz-adv-x="523" 
d="M114 9.5q-38 18.5 -57 53.5t-19 82q0 45 20 77.5t60 50t99 17.5h159v29q0 45 -13.5 73t-44.5 41.5t-84 13.5q-28 0 -57.5 -3t-55 -7.5t-42.5 -9.5l12 66q16 4 40.5 8.5t55 7t61.5 2.5q70 0 114.5 -21.5t65.5 -64t21 -106.5v-319h-61l-12 81q-12 -28 -34.5 -48t-56 -31
t-78.5 -11q-55 0 -93 18.5zM123.5 94q11.5 -21 36 -32.5t61.5 -11.5q49 0 83.5 15t53 47.5t18.5 81.5v42h-148q-40 0 -66 -10.5t-38 -30.5t-12 -50t11.5 -51z" />
    <glyph glyph-name="aacute" unicode="&#xe1;" 
d="M125 -107h86v-24h-86v-30h-22v84h22v-30zM107.5 418.5q7.5 -13.5 20.5 -21t29 -7.5t29 7.5t20.5 21t7.5 29.5t-7.5 29.5t-20.5 21t-29 7.5t-29 -7.5t-20.5 -21t-7.5 -29.5t7.5 -29.5zM211 -61v23h-37v16l37 21v26l-41 -24q-3 6 -7.5 10.5t-10.5 7t-13 2.5q-10 0 -18.5 -5
t-13 -13.5t-4.5 -19.5v-44h108zM103 65h108v-24h-108v24zM211 79v25l-20 7v43l20 8v26l-108 -44v-23zM211 201v66h-21v-42h-87v-24h108zM211 315v23h-41v38h-22v-38h-23v42h-22v-65h108zM211 524v23h-68l68 50v19h-108v-23h66l-66 -47v-22h108zM125 632v30h86v24h-86v30h-22
v-84h22zM127.5 465.5q4.5 7.5 12 12t17.5 4.5t18 -4.5t12.5 -12t4.5 -17.5q0 -9 -4.5 -17t-12.5 -12.5t-18 -4.5t-17.5 4.5t-12 12.5t-4.5 17q0 10 4.5 17.5zM124 -19q0 5 2 8.5t5 5.5t7 2t7.5 -2t5.5 -5.5t2 -8.5v-19h-29v19zM170 147v-28l-39 14z" />
    <glyph glyph-name="abreve" unicode="&#x103;" 
d="M125 -107h86v-24h-86v-30h-22v84h22v-30zM107.5 418.5q7.5 -13.5 20.5 -21t29 -7.5t29 7.5t20.5 21t7.5 29.5t-7.5 29.5t-20.5 21t-29 7.5t-29 -7.5t-20.5 -21t-7.5 -29.5t7.5 -29.5zM211 -61v23h-37v16l37 21v26l-41 -24q-3 6 -7.5 10.5t-10.5 7t-13 2.5q-10 0 -18.5 -5
t-13 -13.5t-4.5 -19.5v-44h108zM103 65h108v-24h-108v24zM211 79v25l-20 7v43l20 8v26l-108 -44v-23zM211 201v66h-21v-42h-87v-24h108zM211 315v23h-41v38h-22v-38h-23v42h-22v-65h108zM211 524v23h-68l68 50v19h-108v-23h66l-66 -47v-22h108zM125 632v30h86v24h-86v30h-22
v-84h22zM127.5 465.5q4.5 7.5 12 12t17.5 4.5t18 -4.5t12.5 -12t4.5 -17.5q0 -9 -4.5 -17t-12.5 -12.5t-18 -4.5t-17.5 4.5t-12 12.5t-4.5 17q0 10 4.5 17.5zM124 -19q0 5 2 8.5t5 5.5t7 2t7.5 -2t5.5 -5.5t2 -8.5v-19h-29v19zM170 147v-28l-39 14z" />
    <glyph glyph-name="acircumflex" unicode="&#xe2;" 
d="M125 -107h86v-24h-86v-30h-22v84h22v-30zM107.5 418.5q7.5 -13.5 20.5 -21t29 -7.5t29 7.5t20.5 21t7.5 29.5t-7.5 29.5t-20.5 21t-29 7.5t-29 -7.5t-20.5 -21t-7.5 -29.5t7.5 -29.5zM211 -61v23h-37v16l37 21v26l-41 -24q-3 6 -7.5 10.5t-10.5 7t-13 2.5q-10 0 -18.5 -5
t-13 -13.5t-4.5 -19.5v-44h108zM103 65h108v-24h-108v24zM211 79v25l-20 7v43l20 8v26l-108 -44v-23zM211 201v66h-21v-42h-87v-24h108zM211 315v23h-41v38h-22v-38h-23v42h-22v-65h108zM211 524v23h-68l68 50v19h-108v-23h66l-66 -47v-22h108zM125 632v30h86v24h-86v30h-22
v-84h22zM127.5 465.5q4.5 7.5 12 12t17.5 4.5t18 -4.5t12.5 -12t4.5 -17.5q0 -9 -4.5 -17t-12.5 -12.5t-18 -4.5t-17.5 4.5t-12 12.5t-4.5 17q0 10 4.5 17.5zM124 -19q0 5 2 8.5t5 5.5t7 2t7.5 -2t5.5 -5.5t2 -8.5v-19h-29v19zM170 147v-28l-39 14z" />
    <glyph glyph-name="adieresis" unicode="&#xe4;" 
d="M125 -107h86v-24h-86v-30h-22v84h22v-30zM107.5 418.5q7.5 -13.5 20.5 -21t29 -7.5t29 7.5t20.5 21t7.5 29.5t-7.5 29.5t-20.5 21t-29 7.5t-29 -7.5t-20.5 -21t-7.5 -29.5t7.5 -29.5zM211 -61v23h-37v16l37 21v26l-41 -24q-3 6 -7.5 10.5t-10.5 7t-13 2.5q-10 0 -18.5 -5
t-13 -13.5t-4.5 -19.5v-44h108zM103 65h108v-24h-108v24zM211 79v25l-20 7v43l20 8v26l-108 -44v-23zM211 201v66h-21v-42h-87v-24h108zM211 315v23h-41v38h-22v-38h-23v42h-22v-65h108zM211 524v23h-68l68 50v19h-108v-23h66l-66 -47v-22h108zM125 632v30h86v24h-86v30h-22
v-84h22zM127.5 465.5q4.5 7.5 12 12t17.5 4.5t18 -4.5t12.5 -12t4.5 -17.5q0 -9 -4.5 -17t-12.5 -12.5t-18 -4.5t-17.5 4.5t-12 12.5t-4.5 17q0 10 4.5 17.5zM124 -19q0 5 2 8.5t5 5.5t7 2t7.5 -2t5.5 -5.5t2 -8.5v-19h-29v19zM170 147v-28l-39 14z" />
    <glyph glyph-name="agrave" unicode="&#xe0;" 
d="M125 -107h86v-24h-86v-30h-22v84h22v-30zM107.5 418.5q7.5 -13.5 20.5 -21t29 -7.5t29 7.5t20.5 21t7.5 29.5t-7.5 29.5t-20.5 21t-29 7.5t-29 -7.5t-20.5 -21t-7.5 -29.5t7.5 -29.5zM211 -61v23h-37v16l37 21v26l-41 -24q-3 6 -7.5 10.5t-10.5 7t-13 2.5q-10 0 -18.5 -5
t-13 -13.5t-4.5 -19.5v-44h108zM103 65h108v-24h-108v24zM211 79v25l-20 7v43l20 8v26l-108 -44v-23zM211 201v66h-21v-42h-87v-24h108zM211 315v23h-41v38h-22v-38h-23v42h-22v-65h108zM211 524v23h-68l68 50v19h-108v-23h66l-66 -47v-22h108zM125 632v30h86v24h-86v30h-22
v-84h22zM127.5 465.5q4.5 7.5 12 12t17.5 4.5t18 -4.5t12.5 -12t4.5 -17.5q0 -9 -4.5 -17t-12.5 -12.5t-18 -4.5t-17.5 4.5t-12 12.5t-4.5 17q0 10 4.5 17.5zM124 -19q0 5 2 8.5t5 5.5t7 2t7.5 -2t5.5 -5.5t2 -8.5v-19h-29v19zM170 147v-28l-39 14z" />
    <glyph glyph-name="amacron" unicode="&#x101;" 
d="M125 -107h86v-24h-86v-30h-22v84h22v-30zM107.5 418.5q7.5 -13.5 20.5 -21t29 -7.5t29 7.5t20.5 21t7.5 29.5t-7.5 29.5t-20.5 21t-29 7.5t-29 -7.5t-20.5 -21t-7.5 -29.5t7.5 -29.5zM211 -61v23h-37v16l37 21v26l-41 -24q-3 6 -7.5 10.5t-10.5 7t-13 2.5q-10 0 -18.5 -5
t-13 -13.5t-4.5 -19.5v-44h108zM103 65h108v-24h-108v24zM211 79v25l-20 7v43l20 8v26l-108 -44v-23zM211 201v66h-21v-42h-87v-24h108zM211 315v23h-41v38h-22v-38h-23v42h-22v-65h108zM211 524v23h-68l68 50v19h-108v-23h66l-66 -47v-22h108zM125 632v30h86v24h-86v30h-22
v-84h22zM127.5 465.5q4.5 7.5 12 12t17.5 4.5t18 -4.5t12.5 -12t4.5 -17.5q0 -9 -4.5 -17t-12.5 -12.5t-18 -4.5t-17.5 4.5t-12 12.5t-4.5 17q0 10 4.5 17.5zM124 -19q0 5 2 8.5t5 5.5t7 2t7.5 -2t5.5 -5.5t2 -8.5v-19h-29v19zM170 147v-28l-39 14z" />
    <glyph glyph-name="aogonek" unicode="&#x105;" 
d="M125 -107h86v-24h-86v-30h-22v84h22v-30zM107.5 418.5q7.5 -13.5 20.5 -21t29 -7.5t29 7.5t20.5 21t7.5 29.5t-7.5 29.5t-20.5 21t-29 7.5t-29 -7.5t-20.5 -21t-7.5 -29.5t7.5 -29.5zM211 -61v23h-37v16l37 21v26l-41 -24q-3 6 -7.5 10.5t-10.5 7t-13 2.5q-10 0 -18.5 -5
t-13 -13.5t-4.5 -19.5v-44h108zM103 65h108v-24h-108v24zM211 79v25l-20 7v43l20 8v26l-108 -44v-23zM211 201v66h-21v-42h-87v-24h108zM211 315v23h-41v38h-22v-38h-23v42h-22v-65h108zM211 524v23h-68l68 50v19h-108v-23h66l-66 -47v-22h108zM125 632v30h86v24h-86v30h-22
v-84h22zM127.5 465.5q4.5 7.5 12 12t17.5 4.5t18 -4.5t12.5 -12t4.5 -17.5q0 -9 -4.5 -17t-12.5 -12.5t-18 -4.5t-17.5 4.5t-12 12.5t-4.5 17q0 10 4.5 17.5zM124 -19q0 5 2 8.5t5 5.5t7 2t7.5 -2t5.5 -5.5t2 -8.5v-19h-29v19zM170 147v-28l-39 14z" />
    <glyph glyph-name="aring" unicode="&#xe5;" 
d="M125 -107h86v-24h-86v-30h-22v84h22v-30zM107.5 418.5q7.5 -13.5 20.5 -21t29 -7.5t29 7.5t20.5 21t7.5 29.5t-7.5 29.5t-20.5 21t-29 7.5t-29 -7.5t-20.5 -21t-7.5 -29.5t7.5 -29.5zM211 -61v23h-37v16l37 21v26l-41 -24q-3 6 -7.5 10.5t-10.5 7t-13 2.5q-10 0 -18.5 -5
t-13 -13.5t-4.5 -19.5v-44h108zM103 65h108v-24h-108v24zM211 79v25l-20 7v43l20 8v26l-108 -44v-23zM211 201v66h-21v-42h-87v-24h108zM211 315v23h-41v38h-22v-38h-23v42h-22v-65h108zM211 524v23h-68l68 50v19h-108v-23h66l-66 -47v-22h108zM125 632v30h86v24h-86v30h-22
v-84h22zM127.5 465.5q4.5 7.5 12 12t17.5 4.5t18 -4.5t12.5 -12t4.5 -17.5q0 -9 -4.5 -17t-12.5 -12.5t-18 -4.5t-17.5 4.5t-12 12.5t-4.5 17q0 10 4.5 17.5zM124 -19q0 5 2 8.5t5 5.5t7 2t7.5 -2t5.5 -5.5t2 -8.5v-19h-29v19zM170 147v-28l-39 14z" />
    <glyph glyph-name="aringacute" unicode="&#x1fb;" 
d="M125 -107h86v-24h-86v-30h-22v84h22v-30zM107.5 418.5q7.5 -13.5 20.5 -21t29 -7.5t29 7.5t20.5 21t7.5 29.5t-7.5 29.5t-20.5 21t-29 7.5t-29 -7.5t-20.5 -21t-7.5 -29.5t7.5 -29.5zM211 -61v23h-37v16l37 21v26l-41 -24q-3 6 -7.5 10.5t-10.5 7t-13 2.5q-10 0 -18.5 -5
t-13 -13.5t-4.5 -19.5v-44h108zM103 65h108v-24h-108v24zM211 79v25l-20 7v43l20 8v26l-108 -44v-23zM211 201v66h-21v-42h-87v-24h108zM211 315v23h-41v38h-22v-38h-23v42h-22v-65h108zM211 524v23h-68l68 50v19h-108v-23h66l-66 -47v-22h108zM125 632v30h86v24h-86v30h-22
v-84h22zM127.5 465.5q4.5 7.5 12 12t17.5 4.5t18 -4.5t12.5 -12t4.5 -17.5q0 -9 -4.5 -17t-12.5 -12.5t-18 -4.5t-17.5 4.5t-12 12.5t-4.5 17q0 10 4.5 17.5zM124 -19q0 5 2 8.5t5 5.5t7 2t7.5 -2t5.5 -5.5t2 -8.5v-19h-29v19zM170 147v-28l-39 14z" />
    <glyph glyph-name="atilde" unicode="&#xe3;" 
d="M125 -107h86v-24h-86v-30h-22v84h22v-30zM107.5 418.5q7.5 -13.5 20.5 -21t29 -7.5t29 7.5t20.5 21t7.5 29.5t-7.5 29.5t-20.5 21t-29 7.5t-29 -7.5t-20.5 -21t-7.5 -29.5t7.5 -29.5zM211 -61v23h-37v16l37 21v26l-41 -24q-3 6 -7.5 10.5t-10.5 7t-13 2.5q-10 0 -18.5 -5
t-13 -13.5t-4.5 -19.5v-44h108zM103 65h108v-24h-108v24zM211 79v25l-20 7v43l20 8v26l-108 -44v-23zM211 201v66h-21v-42h-87v-24h108zM211 315v23h-41v38h-22v-38h-23v42h-22v-65h108zM211 524v23h-68l68 50v19h-108v-23h66l-66 -47v-22h108zM125 632v30h86v24h-86v30h-22
v-84h22zM127.5 465.5q4.5 7.5 12 12t17.5 4.5t18 -4.5t12.5 -12t4.5 -17.5q0 -9 -4.5 -17t-12.5 -12.5t-18 -4.5t-17.5 4.5t-12 12.5t-4.5 17q0 10 4.5 17.5zM124 -19q0 5 2 8.5t5 5.5t7 2t7.5 -2t5.5 -5.5t2 -8.5v-19h-29v19zM170 147v-28l-39 14z" />
    <glyph glyph-name="ae" unicode="&#xe6;" 
d="M125 -107h86v-24h-86v-30h-22v84h22v-30zM107.5 418.5q7.5 -13.5 20.5 -21t29 -7.5t29 7.5t20.5 21t7.5 29.5t-7.5 29.5t-20.5 21t-29 7.5t-29 -7.5t-20.5 -21t-7.5 -29.5t7.5 -29.5zM211 -61v23h-37v16l37 21v26l-41 -24q-3 6 -7.5 10.5t-10.5 7t-13 2.5q-10 0 -18.5 -5
t-13 -13.5t-4.5 -19.5v-44h108zM103 65h108v-24h-108v24zM211 79v25l-20 7v43l20 8v26l-108 -44v-23zM211 201v66h-21v-42h-87v-24h108zM211 315v23h-41v38h-22v-38h-23v42h-22v-65h108zM211 524v23h-68l68 50v19h-108v-23h66l-66 -47v-22h108zM125 632v30h86v24h-86v30h-22
v-84h22zM127.5 465.5q4.5 7.5 12 12t17.5 4.5t18 -4.5t12.5 -12t4.5 -17.5q0 -9 -4.5 -17t-12.5 -12.5t-18 -4.5t-17.5 4.5t-12 12.5t-4.5 17q0 10 4.5 17.5zM124 -19q0 5 2 8.5t5 5.5t7 2t7.5 -2t5.5 -5.5t2 -8.5v-19h-29v19zM170 147v-28l-39 14z" />
    <glyph glyph-name="aeacute" unicode="&#x1fd;" 
d="M125 -107h86v-24h-86v-30h-22v84h22v-30zM107.5 418.5q7.5 -13.5 20.5 -21t29 -7.5t29 7.5t20.5 21t7.5 29.5t-7.5 29.5t-20.5 21t-29 7.5t-29 -7.5t-20.5 -21t-7.5 -29.5t7.5 -29.5zM211 -61v23h-37v16l37 21v26l-41 -24q-3 6 -7.5 10.5t-10.5 7t-13 2.5q-10 0 -18.5 -5
t-13 -13.5t-4.5 -19.5v-44h108zM103 65h108v-24h-108v24zM211 79v25l-20 7v43l20 8v26l-108 -44v-23zM211 201v66h-21v-42h-87v-24h108zM211 315v23h-41v38h-22v-38h-23v42h-22v-65h108zM211 524v23h-68l68 50v19h-108v-23h66l-66 -47v-22h108zM125 632v30h86v24h-86v30h-22
v-84h22zM127.5 465.5q4.5 7.5 12 12t17.5 4.5t18 -4.5t12.5 -12t4.5 -17.5q0 -9 -4.5 -17t-12.5 -12.5t-18 -4.5t-17.5 4.5t-12 12.5t-4.5 17q0 10 4.5 17.5zM124 -19q0 5 2 8.5t5 5.5t7 2t7.5 -2t5.5 -5.5t2 -8.5v-19h-29v19zM170 147v-28l-39 14z" />
    <glyph glyph-name="b" unicode="b" horiz-adv-x="563" 
d="M426 486.5q44 -27.5 65.5 -85.5t21.5 -149t-21.5 -148.5t-65.5 -85t-112 -27.5q-45 0 -78 13t-53 33t-29 42l-12 -79h-61v697l73 12v-284q9 22 29 42.5t53 33.5t78 13q68 0 112 -27.5zM169 138.5q15 -43.5 46 -63.5t81 -20t81.5 20t46.5 63.5t15 113.5t-15 113.5
t-46.5 63.5t-81.5 20t-81 -20t-46 -63.5t-15 -113.5t15 -113.5z" />
    <glyph glyph-name="c" unicode="c" horiz-adv-x="448" 
d="M147 19.5q-50 28.5 -74.5 86.5t-24.5 146q0 89 25 147t75.5 86.5t128.5 28.5q27 0 51.5 -4t44 -9.5t30.5 -11.5l4 -67q-13 6 -33 12.5t-43.5 10.5t-47.5 4q-56 0 -91 -20.5t-52 -63.5t-17 -113q0 -69 16.5 -112.5t51 -64t87.5 -20.5q27 0 53.5 4.5t48 11.5t34.5 14
l-11 -69q-11 -6 -30 -11.5t-45 -9.5t-56 -4q-75 0 -125 28.5z" />
    <glyph glyph-name="cacute" unicode="&#x107;" 
d="M125 -107h86v-24h-86v-30h-22v84h22v-30zM107.5 418.5q7.5 -13.5 20.5 -21t29 -7.5t29 7.5t20.5 21t7.5 29.5t-7.5 29.5t-20.5 21t-29 7.5t-29 -7.5t-20.5 -21t-7.5 -29.5t7.5 -29.5zM211 -61v23h-37v16l37 21v26l-41 -24q-3 6 -7.5 10.5t-10.5 7t-13 2.5q-10 0 -18.5 -5
t-13 -13.5t-4.5 -19.5v-44h108zM103 65h108v-24h-108v24zM211 79v25l-20 7v43l20 8v26l-108 -44v-23zM211 201v66h-21v-42h-87v-24h108zM211 315v23h-41v38h-22v-38h-23v42h-22v-65h108zM211 524v23h-68l68 50v19h-108v-23h66l-66 -47v-22h108zM125 632v30h86v24h-86v30h-22
v-84h22zM127.5 465.5q4.5 7.5 12 12t17.5 4.5t18 -4.5t12.5 -12t4.5 -17.5q0 -9 -4.5 -17t-12.5 -12.5t-18 -4.5t-17.5 4.5t-12 12.5t-4.5 17q0 10 4.5 17.5zM124 -19q0 5 2 8.5t5 5.5t7 2t7.5 -2t5.5 -5.5t2 -8.5v-19h-29v19zM170 147v-28l-39 14z" />
    <glyph glyph-name="ccaron" unicode="&#x10d;" 
d="M125 -107h86v-24h-86v-30h-22v84h22v-30zM107.5 418.5q7.5 -13.5 20.5 -21t29 -7.5t29 7.5t20.5 21t7.5 29.5t-7.5 29.5t-20.5 21t-29 7.5t-29 -7.5t-20.5 -21t-7.5 -29.5t7.5 -29.5zM211 -61v23h-37v16l37 21v26l-41 -24q-3 6 -7.5 10.5t-10.5 7t-13 2.5q-10 0 -18.5 -5
t-13 -13.5t-4.5 -19.5v-44h108zM103 65h108v-24h-108v24zM211 79v25l-20 7v43l20 8v26l-108 -44v-23zM211 201v66h-21v-42h-87v-24h108zM211 315v23h-41v38h-22v-38h-23v42h-22v-65h108zM211 524v23h-68l68 50v19h-108v-23h66l-66 -47v-22h108zM125 632v30h86v24h-86v30h-22
v-84h22zM127.5 465.5q4.5 7.5 12 12t17.5 4.5t18 -4.5t12.5 -12t4.5 -17.5q0 -9 -4.5 -17t-12.5 -12.5t-18 -4.5t-17.5 4.5t-12 12.5t-4.5 17q0 10 4.5 17.5zM124 -19q0 5 2 8.5t5 5.5t7 2t7.5 -2t5.5 -5.5t2 -8.5v-19h-29v19zM170 147v-28l-39 14z" />
    <glyph glyph-name="ccedilla" unicode="&#xe7;" 
d="M125 -107h86v-24h-86v-30h-22v84h22v-30zM107.5 418.5q7.5 -13.5 20.5 -21t29 -7.5t29 7.5t20.5 21t7.5 29.5t-7.5 29.5t-20.5 21t-29 7.5t-29 -7.5t-20.5 -21t-7.5 -29.5t7.5 -29.5zM211 -61v23h-37v16l37 21v26l-41 -24q-3 6 -7.5 10.5t-10.5 7t-13 2.5q-10 0 -18.5 -5
t-13 -13.5t-4.5 -19.5v-44h108zM103 65h108v-24h-108v24zM211 79v25l-20 7v43l20 8v26l-108 -44v-23zM211 201v66h-21v-42h-87v-24h108zM211 315v23h-41v38h-22v-38h-23v42h-22v-65h108zM211 524v23h-68l68 50v19h-108v-23h66l-66 -47v-22h108zM125 632v30h86v24h-86v30h-22
v-84h22zM127.5 465.5q4.5 7.5 12 12t17.5 4.5t18 -4.5t12.5 -12t4.5 -17.5q0 -9 -4.5 -17t-12.5 -12.5t-18 -4.5t-17.5 4.5t-12 12.5t-4.5 17q0 10 4.5 17.5zM124 -19q0 5 2 8.5t5 5.5t7 2t7.5 -2t5.5 -5.5t2 -8.5v-19h-29v19zM170 147v-28l-39 14z" />
    <glyph glyph-name="ccircumflex" unicode="&#x109;" 
d="M125 -107h86v-24h-86v-30h-22v84h22v-30zM107.5 418.5q7.5 -13.5 20.5 -21t29 -7.5t29 7.5t20.5 21t7.5 29.5t-7.5 29.5t-20.5 21t-29 7.5t-29 -7.5t-20.5 -21t-7.5 -29.5t7.5 -29.5zM211 -61v23h-37v16l37 21v26l-41 -24q-3 6 -7.5 10.5t-10.5 7t-13 2.5q-10 0 -18.5 -5
t-13 -13.5t-4.5 -19.5v-44h108zM103 65h108v-24h-108v24zM211 79v25l-20 7v43l20 8v26l-108 -44v-23zM211 201v66h-21v-42h-87v-24h108zM211 315v23h-41v38h-22v-38h-23v42h-22v-65h108zM211 524v23h-68l68 50v19h-108v-23h66l-66 -47v-22h108zM125 632v30h86v24h-86v30h-22
v-84h22zM127.5 465.5q4.5 7.5 12 12t17.5 4.5t18 -4.5t12.5 -12t4.5 -17.5q0 -9 -4.5 -17t-12.5 -12.5t-18 -4.5t-17.5 4.5t-12 12.5t-4.5 17q0 10 4.5 17.5zM124 -19q0 5 2 8.5t5 5.5t7 2t7.5 -2t5.5 -5.5t2 -8.5v-19h-29v19zM170 147v-28l-39 14z" />
    <glyph glyph-name="cdotaccent" unicode="&#x10b;" 
d="M125 -107h86v-24h-86v-30h-22v84h22v-30zM107.5 418.5q7.5 -13.5 20.5 -21t29 -7.5t29 7.5t20.5 21t7.5 29.5t-7.5 29.5t-20.5 21t-29 7.5t-29 -7.5t-20.5 -21t-7.5 -29.5t7.5 -29.5zM211 -61v23h-37v16l37 21v26l-41 -24q-3 6 -7.5 10.5t-10.5 7t-13 2.5q-10 0 -18.5 -5
t-13 -13.5t-4.5 -19.5v-44h108zM103 65h108v-24h-108v24zM211 79v25l-20 7v43l20 8v26l-108 -44v-23zM211 201v66h-21v-42h-87v-24h108zM211 315v23h-41v38h-22v-38h-23v42h-22v-65h108zM211 524v23h-68l68 50v19h-108v-23h66l-66 -47v-22h108zM125 632v30h86v24h-86v30h-22
v-84h22zM127.5 465.5q4.5 7.5 12 12t17.5 4.5t18 -4.5t12.5 -12t4.5 -17.5q0 -9 -4.5 -17t-12.5 -12.5t-18 -4.5t-17.5 4.5t-12 12.5t-4.5 17q0 10 4.5 17.5zM124 -19q0 5 2 8.5t5 5.5t7 2t7.5 -2t5.5 -5.5t2 -8.5v-19h-29v19zM170 147v-28l-39 14z" />
    <glyph glyph-name="d" unicode="d" horiz-adv-x="563" 
d="M482 709v-709h-61l-12 79q-9 -22 -29 -42t-53 -33t-78 -13q-68 0 -112 27.5t-65.5 85t-21.5 148.5t21.5 149t65.5 85.5t112 27.5q45 0 78 -13t53 -33.5t29 -42.5v272zM139 138.5q15 -43.5 46.5 -63.5t81.5 -20t81 20t46 63.5t15 113.5t-15 113.5t-46 63.5t-81 20
t-81.5 -20t-46.5 -63.5t-15 -113.5t15 -113.5z" />
    <glyph glyph-name="eth" unicode="&#xf0;" 
d="M125 -107h86v-24h-86v-30h-22v84h22v-30zM107.5 418.5q7.5 -13.5 20.5 -21t29 -7.5t29 7.5t20.5 21t7.5 29.5t-7.5 29.5t-20.5 21t-29 7.5t-29 -7.5t-20.5 -21t-7.5 -29.5t7.5 -29.5zM211 -61v23h-37v16l37 21v26l-41 -24q-3 6 -7.5 10.5t-10.5 7t-13 2.5q-10 0 -18.5 -5
t-13 -13.5t-4.5 -19.5v-44h108zM103 65h108v-24h-108v24zM211 79v25l-20 7v43l20 8v26l-108 -44v-23zM211 201v66h-21v-42h-87v-24h108zM211 315v23h-41v38h-22v-38h-23v42h-22v-65h108zM211 524v23h-68l68 50v19h-108v-23h66l-66 -47v-22h108zM125 632v30h86v24h-86v30h-22
v-84h22zM127.5 465.5q4.5 7.5 12 12t17.5 4.5t18 -4.5t12.5 -12t4.5 -17.5q0 -9 -4.5 -17t-12.5 -12.5t-18 -4.5t-17.5 4.5t-12 12.5t-4.5 17q0 10 4.5 17.5zM124 -19q0 5 2 8.5t5 5.5t7 2t7.5 -2t5.5 -5.5t2 -8.5v-19h-29v19zM170 147v-28l-39 14z" />
    <glyph glyph-name="dcaron" unicode="&#x10f;" 
d="M125 -107h86v-24h-86v-30h-22v84h22v-30zM107.5 418.5q7.5 -13.5 20.5 -21t29 -7.5t29 7.5t20.5 21t7.5 29.5t-7.5 29.5t-20.5 21t-29 7.5t-29 -7.5t-20.5 -21t-7.5 -29.5t7.5 -29.5zM211 -61v23h-37v16l37 21v26l-41 -24q-3 6 -7.5 10.5t-10.5 7t-13 2.5q-10 0 -18.5 -5
t-13 -13.5t-4.5 -19.5v-44h108zM103 65h108v-24h-108v24zM211 79v25l-20 7v43l20 8v26l-108 -44v-23zM211 201v66h-21v-42h-87v-24h108zM211 315v23h-41v38h-22v-38h-23v42h-22v-65h108zM211 524v23h-68l68 50v19h-108v-23h66l-66 -47v-22h108zM125 632v30h86v24h-86v30h-22
v-84h22zM127.5 465.5q4.5 7.5 12 12t17.5 4.5t18 -4.5t12.5 -12t4.5 -17.5q0 -9 -4.5 -17t-12.5 -12.5t-18 -4.5t-17.5 4.5t-12 12.5t-4.5 17q0 10 4.5 17.5zM124 -19q0 5 2 8.5t5 5.5t7 2t7.5 -2t5.5 -5.5t2 -8.5v-19h-29v19zM170 147v-28l-39 14z" />
    <glyph glyph-name="dcroat" unicode="&#x111;" 
d="M125 -107h86v-24h-86v-30h-22v84h22v-30zM107.5 418.5q7.5 -13.5 20.5 -21t29 -7.5t29 7.5t20.5 21t7.5 29.5t-7.5 29.5t-20.5 21t-29 7.5t-29 -7.5t-20.5 -21t-7.5 -29.5t7.5 -29.5zM211 -61v23h-37v16l37 21v26l-41 -24q-3 6 -7.5 10.5t-10.5 7t-13 2.5q-10 0 -18.5 -5
t-13 -13.5t-4.5 -19.5v-44h108zM103 65h108v-24h-108v24zM211 79v25l-20 7v43l20 8v26l-108 -44v-23zM211 201v66h-21v-42h-87v-24h108zM211 315v23h-41v38h-22v-38h-23v42h-22v-65h108zM211 524v23h-68l68 50v19h-108v-23h66l-66 -47v-22h108zM125 632v30h86v24h-86v30h-22
v-84h22zM127.5 465.5q4.5 7.5 12 12t17.5 4.5t18 -4.5t12.5 -12t4.5 -17.5q0 -9 -4.5 -17t-12.5 -12.5t-18 -4.5t-17.5 4.5t-12 12.5t-4.5 17q0 10 4.5 17.5zM124 -19q0 5 2 8.5t5 5.5t7 2t7.5 -2t5.5 -5.5t2 -8.5v-19h-29v19zM170 147v-28l-39 14z" />
    <glyph glyph-name="e" unicode="e" horiz-adv-x="525" 
d="M153 21q-55 30 -80 88t-25 146q0 84 25 142t74.5 87.5t120.5 29.5q69 0 116.5 -27.5t73 -85t25.5 -147.5v-25h-361q1 -58 18.5 -96.5t57 -58t103.5 -19.5q29 0 58.5 4t53 9.5t38.5 11.5l-11 -68q-14 -5 -36 -10t-49.5 -8t-56.5 -3q-90 0 -145 30zM412 282q-1 59 -18.5 97
t-49 55.5t-75.5 17.5q-46 0 -78.5 -19t-50 -57t-18.5 -94h290z" />
    <glyph glyph-name="eacute" unicode="&#xe9;" 
d="M125 -107h86v-24h-86v-30h-22v84h22v-30zM107.5 418.5q7.5 -13.5 20.5 -21t29 -7.5t29 7.5t20.5 21t7.5 29.5t-7.5 29.5t-20.5 21t-29 7.5t-29 -7.5t-20.5 -21t-7.5 -29.5t7.5 -29.5zM211 -61v23h-37v16l37 21v26l-41 -24q-3 6 -7.5 10.5t-10.5 7t-13 2.5q-10 0 -18.5 -5
t-13 -13.5t-4.5 -19.5v-44h108zM103 65h108v-24h-108v24zM211 79v25l-20 7v43l20 8v26l-108 -44v-23zM211 201v66h-21v-42h-87v-24h108zM211 315v23h-41v38h-22v-38h-23v42h-22v-65h108zM211 524v23h-68l68 50v19h-108v-23h66l-66 -47v-22h108zM125 632v30h86v24h-86v30h-22
v-84h22zM127.5 465.5q4.5 7.5 12 12t17.5 4.5t18 -4.5t12.5 -12t4.5 -17.5q0 -9 -4.5 -17t-12.5 -12.5t-18 -4.5t-17.5 4.5t-12 12.5t-4.5 17q0 10 4.5 17.5zM124 -19q0 5 2 8.5t5 5.5t7 2t7.5 -2t5.5 -5.5t2 -8.5v-19h-29v19zM170 147v-28l-39 14z" />
    <glyph glyph-name="ebreve" unicode="&#x115;" 
d="M125 -107h86v-24h-86v-30h-22v84h22v-30zM107.5 418.5q7.5 -13.5 20.5 -21t29 -7.5t29 7.5t20.5 21t7.5 29.5t-7.5 29.5t-20.5 21t-29 7.5t-29 -7.5t-20.5 -21t-7.5 -29.5t7.5 -29.5zM211 -61v23h-37v16l37 21v26l-41 -24q-3 6 -7.5 10.5t-10.5 7t-13 2.5q-10 0 -18.5 -5
t-13 -13.5t-4.5 -19.5v-44h108zM103 65h108v-24h-108v24zM211 79v25l-20 7v43l20 8v26l-108 -44v-23zM211 201v66h-21v-42h-87v-24h108zM211 315v23h-41v38h-22v-38h-23v42h-22v-65h108zM211 524v23h-68l68 50v19h-108v-23h66l-66 -47v-22h108zM125 632v30h86v24h-86v30h-22
v-84h22zM127.5 465.5q4.5 7.5 12 12t17.5 4.5t18 -4.5t12.5 -12t4.5 -17.5q0 -9 -4.5 -17t-12.5 -12.5t-18 -4.5t-17.5 4.5t-12 12.5t-4.5 17q0 10 4.5 17.5zM124 -19q0 5 2 8.5t5 5.5t7 2t7.5 -2t5.5 -5.5t2 -8.5v-19h-29v19zM170 147v-28l-39 14z" />
    <glyph glyph-name="ecaron" unicode="&#x11b;" 
d="M125 -107h86v-24h-86v-30h-22v84h22v-30zM107.5 418.5q7.5 -13.5 20.5 -21t29 -7.5t29 7.5t20.5 21t7.5 29.5t-7.5 29.5t-20.5 21t-29 7.5t-29 -7.5t-20.5 -21t-7.5 -29.5t7.5 -29.5zM211 -61v23h-37v16l37 21v26l-41 -24q-3 6 -7.5 10.5t-10.5 7t-13 2.5q-10 0 -18.5 -5
t-13 -13.5t-4.5 -19.5v-44h108zM103 65h108v-24h-108v24zM211 79v25l-20 7v43l20 8v26l-108 -44v-23zM211 201v66h-21v-42h-87v-24h108zM211 315v23h-41v38h-22v-38h-23v42h-22v-65h108zM211 524v23h-68l68 50v19h-108v-23h66l-66 -47v-22h108zM125 632v30h86v24h-86v30h-22
v-84h22zM127.5 465.5q4.5 7.5 12 12t17.5 4.5t18 -4.5t12.5 -12t4.5 -17.5q0 -9 -4.5 -17t-12.5 -12.5t-18 -4.5t-17.5 4.5t-12 12.5t-4.5 17q0 10 4.5 17.5zM124 -19q0 5 2 8.5t5 5.5t7 2t7.5 -2t5.5 -5.5t2 -8.5v-19h-29v19zM170 147v-28l-39 14z" />
    <glyph glyph-name="ecircumflex" unicode="&#xea;" 
d="M125 -107h86v-24h-86v-30h-22v84h22v-30zM107.5 418.5q7.5 -13.5 20.5 -21t29 -7.5t29 7.5t20.5 21t7.5 29.5t-7.5 29.5t-20.5 21t-29 7.5t-29 -7.5t-20.5 -21t-7.5 -29.5t7.5 -29.5zM211 -61v23h-37v16l37 21v26l-41 -24q-3 6 -7.5 10.5t-10.5 7t-13 2.5q-10 0 -18.5 -5
t-13 -13.5t-4.5 -19.5v-44h108zM103 65h108v-24h-108v24zM211 79v25l-20 7v43l20 8v26l-108 -44v-23zM211 201v66h-21v-42h-87v-24h108zM211 315v23h-41v38h-22v-38h-23v42h-22v-65h108zM211 524v23h-68l68 50v19h-108v-23h66l-66 -47v-22h108zM125 632v30h86v24h-86v30h-22
v-84h22zM127.5 465.5q4.5 7.5 12 12t17.5 4.5t18 -4.5t12.5 -12t4.5 -17.5q0 -9 -4.5 -17t-12.5 -12.5t-18 -4.5t-17.5 4.5t-12 12.5t-4.5 17q0 10 4.5 17.5zM124 -19q0 5 2 8.5t5 5.5t7 2t7.5 -2t5.5 -5.5t2 -8.5v-19h-29v19zM170 147v-28l-39 14z" />
    <glyph glyph-name="edieresis" unicode="&#xeb;" 
d="M125 -107h86v-24h-86v-30h-22v84h22v-30zM107.5 418.5q7.5 -13.5 20.5 -21t29 -7.5t29 7.5t20.5 21t7.5 29.5t-7.5 29.5t-20.5 21t-29 7.5t-29 -7.5t-20.5 -21t-7.5 -29.5t7.5 -29.5zM211 -61v23h-37v16l37 21v26l-41 -24q-3 6 -7.5 10.5t-10.5 7t-13 2.5q-10 0 -18.5 -5
t-13 -13.5t-4.5 -19.5v-44h108zM103 65h108v-24h-108v24zM211 79v25l-20 7v43l20 8v26l-108 -44v-23zM211 201v66h-21v-42h-87v-24h108zM211 315v23h-41v38h-22v-38h-23v42h-22v-65h108zM211 524v23h-68l68 50v19h-108v-23h66l-66 -47v-22h108zM125 632v30h86v24h-86v30h-22
v-84h22zM127.5 465.5q4.5 7.5 12 12t17.5 4.5t18 -4.5t12.5 -12t4.5 -17.5q0 -9 -4.5 -17t-12.5 -12.5t-18 -4.5t-17.5 4.5t-12 12.5t-4.5 17q0 10 4.5 17.5zM124 -19q0 5 2 8.5t5 5.5t7 2t7.5 -2t5.5 -5.5t2 -8.5v-19h-29v19zM170 147v-28l-39 14z" />
    <glyph glyph-name="edotaccent" unicode="&#x117;" 
d="M125 -107h86v-24h-86v-30h-22v84h22v-30zM107.5 418.5q7.5 -13.5 20.5 -21t29 -7.5t29 7.5t20.5 21t7.5 29.5t-7.5 29.5t-20.5 21t-29 7.5t-29 -7.5t-20.5 -21t-7.5 -29.5t7.5 -29.5zM211 -61v23h-37v16l37 21v26l-41 -24q-3 6 -7.5 10.5t-10.5 7t-13 2.5q-10 0 -18.5 -5
t-13 -13.5t-4.5 -19.5v-44h108zM103 65h108v-24h-108v24zM211 79v25l-20 7v43l20 8v26l-108 -44v-23zM211 201v66h-21v-42h-87v-24h108zM211 315v23h-41v38h-22v-38h-23v42h-22v-65h108zM211 524v23h-68l68 50v19h-108v-23h66l-66 -47v-22h108zM125 632v30h86v24h-86v30h-22
v-84h22zM127.5 465.5q4.5 7.5 12 12t17.5 4.5t18 -4.5t12.5 -12t4.5 -17.5q0 -9 -4.5 -17t-12.5 -12.5t-18 -4.5t-17.5 4.5t-12 12.5t-4.5 17q0 10 4.5 17.5zM124 -19q0 5 2 8.5t5 5.5t7 2t7.5 -2t5.5 -5.5t2 -8.5v-19h-29v19zM170 147v-28l-39 14z" />
    <glyph glyph-name="egrave" unicode="&#xe8;" 
d="M125 -107h86v-24h-86v-30h-22v84h22v-30zM107.5 418.5q7.5 -13.5 20.5 -21t29 -7.5t29 7.5t20.5 21t7.5 29.5t-7.5 29.5t-20.5 21t-29 7.5t-29 -7.5t-20.5 -21t-7.5 -29.5t7.5 -29.5zM211 -61v23h-37v16l37 21v26l-41 -24q-3 6 -7.5 10.5t-10.5 7t-13 2.5q-10 0 -18.5 -5
t-13 -13.5t-4.5 -19.5v-44h108zM103 65h108v-24h-108v24zM211 79v25l-20 7v43l20 8v26l-108 -44v-23zM211 201v66h-21v-42h-87v-24h108zM211 315v23h-41v38h-22v-38h-23v42h-22v-65h108zM211 524v23h-68l68 50v19h-108v-23h66l-66 -47v-22h108zM125 632v30h86v24h-86v30h-22
v-84h22zM127.5 465.5q4.5 7.5 12 12t17.5 4.5t18 -4.5t12.5 -12t4.5 -17.5q0 -9 -4.5 -17t-12.5 -12.5t-18 -4.5t-17.5 4.5t-12 12.5t-4.5 17q0 10 4.5 17.5zM124 -19q0 5 2 8.5t5 5.5t7 2t7.5 -2t5.5 -5.5t2 -8.5v-19h-29v19zM170 147v-28l-39 14z" />
    <glyph glyph-name="emacron" unicode="&#x113;" 
d="M125 -107h86v-24h-86v-30h-22v84h22v-30zM107.5 418.5q7.5 -13.5 20.5 -21t29 -7.5t29 7.5t20.5 21t7.5 29.5t-7.5 29.5t-20.5 21t-29 7.5t-29 -7.5t-20.5 -21t-7.5 -29.5t7.5 -29.5zM211 -61v23h-37v16l37 21v26l-41 -24q-3 6 -7.5 10.5t-10.5 7t-13 2.5q-10 0 -18.5 -5
t-13 -13.5t-4.5 -19.5v-44h108zM103 65h108v-24h-108v24zM211 79v25l-20 7v43l20 8v26l-108 -44v-23zM211 201v66h-21v-42h-87v-24h108zM211 315v23h-41v38h-22v-38h-23v42h-22v-65h108zM211 524v23h-68l68 50v19h-108v-23h66l-66 -47v-22h108zM125 632v30h86v24h-86v30h-22
v-84h22zM127.5 465.5q4.5 7.5 12 12t17.5 4.5t18 -4.5t12.5 -12t4.5 -17.5q0 -9 -4.5 -17t-12.5 -12.5t-18 -4.5t-17.5 4.5t-12 12.5t-4.5 17q0 10 4.5 17.5zM124 -19q0 5 2 8.5t5 5.5t7 2t7.5 -2t5.5 -5.5t2 -8.5v-19h-29v19zM170 147v-28l-39 14z" />
    <glyph glyph-name="eogonek" unicode="&#x119;" 
d="M125 -107h86v-24h-86v-30h-22v84h22v-30zM107.5 418.5q7.5 -13.5 20.5 -21t29 -7.5t29 7.5t20.5 21t7.5 29.5t-7.5 29.5t-20.5 21t-29 7.5t-29 -7.5t-20.5 -21t-7.5 -29.5t7.5 -29.5zM211 -61v23h-37v16l37 21v26l-41 -24q-3 6 -7.5 10.5t-10.5 7t-13 2.5q-10 0 -18.5 -5
t-13 -13.5t-4.5 -19.5v-44h108zM103 65h108v-24h-108v24zM211 79v25l-20 7v43l20 8v26l-108 -44v-23zM211 201v66h-21v-42h-87v-24h108zM211 315v23h-41v38h-22v-38h-23v42h-22v-65h108zM211 524v23h-68l68 50v19h-108v-23h66l-66 -47v-22h108zM125 632v30h86v24h-86v30h-22
v-84h22zM127.5 465.5q4.5 7.5 12 12t17.5 4.5t18 -4.5t12.5 -12t4.5 -17.5q0 -9 -4.5 -17t-12.5 -12.5t-18 -4.5t-17.5 4.5t-12 12.5t-4.5 17q0 10 4.5 17.5zM124 -19q0 5 2 8.5t5 5.5t7 2t7.5 -2t5.5 -5.5t2 -8.5v-19h-29v19zM170 147v-28l-39 14z" />
    <glyph glyph-name="f" unicode="f" horiz-adv-x="360" 
d="M108 443h-86v62h86v27q0 59 20 99t57 60t89 20q19 0 37 -2t32 -5t24 -6l3 -63q-9 3 -21.5 6t-30.5 5.5t-36 2.5q-33 0 -55.5 -12.5t-34 -38.5t-11.5 -66v-27h168v-62h-168v-443h-73v443z" />
    <glyph glyph-name="g" unicode="g" horiz-adv-x="563" 
d="M188.5 -195.5q-26.5 3.5 -48 9t-35.5 11.5l-11 71q14 -7 36.5 -14t49.5 -12t55 -5q60 0 98 19t57 59t19 105v32q-9 -22 -29 -41t-53 -31t-78 -12q-68 0 -112 27t-65.5 83.5t-21.5 145.5q0 91 21.5 149t65.5 85.5t112 27.5q45 0 78 -13t53 -33t29 -42l12 79h61v-454
q0 -84 -26.5 -139.5t-79.5 -83t-134 -27.5q-27 0 -53.5 3.5zM139 141.5q15 -42.5 46.5 -62t81.5 -19.5t81 19.5t46 62t15 110.5q0 70 -15 113.5t-46 63.5t-81 20t-81.5 -20t-46.5 -63.5t-15 -113.5q0 -68 15 -110.5z" />
    <glyph glyph-name="gbreve" unicode="&#x11f;" 
d="M125 -107h86v-24h-86v-30h-22v84h22v-30zM107.5 418.5q7.5 -13.5 20.5 -21t29 -7.5t29 7.5t20.5 21t7.5 29.5t-7.5 29.5t-20.5 21t-29 7.5t-29 -7.5t-20.5 -21t-7.5 -29.5t7.5 -29.5zM211 -61v23h-37v16l37 21v26l-41 -24q-3 6 -7.5 10.5t-10.5 7t-13 2.5q-10 0 -18.5 -5
t-13 -13.5t-4.5 -19.5v-44h108zM103 65h108v-24h-108v24zM211 79v25l-20 7v43l20 8v26l-108 -44v-23zM211 201v66h-21v-42h-87v-24h108zM211 315v23h-41v38h-22v-38h-23v42h-22v-65h108zM211 524v23h-68l68 50v19h-108v-23h66l-66 -47v-22h108zM125 632v30h86v24h-86v30h-22
v-84h22zM127.5 465.5q4.5 7.5 12 12t17.5 4.5t18 -4.5t12.5 -12t4.5 -17.5q0 -9 -4.5 -17t-12.5 -12.5t-18 -4.5t-17.5 4.5t-12 12.5t-4.5 17q0 10 4.5 17.5zM124 -19q0 5 2 8.5t5 5.5t7 2t7.5 -2t5.5 -5.5t2 -8.5v-19h-29v19zM170 147v-28l-39 14z" />
    <glyph glyph-name="gcircumflex" unicode="&#x11d;" 
d="M125 -107h86v-24h-86v-30h-22v84h22v-30zM107.5 418.5q7.5 -13.5 20.5 -21t29 -7.5t29 7.5t20.5 21t7.5 29.5t-7.5 29.5t-20.5 21t-29 7.5t-29 -7.5t-20.5 -21t-7.5 -29.5t7.5 -29.5zM211 -61v23h-37v16l37 21v26l-41 -24q-3 6 -7.5 10.5t-10.5 7t-13 2.5q-10 0 -18.5 -5
t-13 -13.5t-4.5 -19.5v-44h108zM103 65h108v-24h-108v24zM211 79v25l-20 7v43l20 8v26l-108 -44v-23zM211 201v66h-21v-42h-87v-24h108zM211 315v23h-41v38h-22v-38h-23v42h-22v-65h108zM211 524v23h-68l68 50v19h-108v-23h66l-66 -47v-22h108zM125 632v30h86v24h-86v30h-22
v-84h22zM127.5 465.5q4.5 7.5 12 12t17.5 4.5t18 -4.5t12.5 -12t4.5 -17.5q0 -9 -4.5 -17t-12.5 -12.5t-18 -4.5t-17.5 4.5t-12 12.5t-4.5 17q0 10 4.5 17.5zM124 -19q0 5 2 8.5t5 5.5t7 2t7.5 -2t5.5 -5.5t2 -8.5v-19h-29v19zM170 147v-28l-39 14z" />
    <glyph glyph-name="uni0123" unicode="&#x123;" 
d="M125 -107h86v-24h-86v-30h-22v84h22v-30zM107.5 418.5q7.5 -13.5 20.5 -21t29 -7.5t29 7.5t20.5 21t7.5 29.5t-7.5 29.5t-20.5 21t-29 7.5t-29 -7.5t-20.5 -21t-7.5 -29.5t7.5 -29.5zM211 -61v23h-37v16l37 21v26l-41 -24q-3 6 -7.5 10.5t-10.5 7t-13 2.5q-10 0 -18.5 -5
t-13 -13.5t-4.5 -19.5v-44h108zM103 65h108v-24h-108v24zM211 79v25l-20 7v43l20 8v26l-108 -44v-23zM211 201v66h-21v-42h-87v-24h108zM211 315v23h-41v38h-22v-38h-23v42h-22v-65h108zM211 524v23h-68l68 50v19h-108v-23h66l-66 -47v-22h108zM125 632v30h86v24h-86v30h-22
v-84h22zM127.5 465.5q4.5 7.5 12 12t17.5 4.5t18 -4.5t12.5 -12t4.5 -17.5q0 -9 -4.5 -17t-12.5 -12.5t-18 -4.5t-17.5 4.5t-12 12.5t-4.5 17q0 10 4.5 17.5zM124 -19q0 5 2 8.5t5 5.5t7 2t7.5 -2t5.5 -5.5t2 -8.5v-19h-29v19zM170 147v-28l-39 14z" />
    <glyph glyph-name="gdotaccent" unicode="&#x121;" 
d="M125 -107h86v-24h-86v-30h-22v84h22v-30zM107.5 418.5q7.5 -13.5 20.5 -21t29 -7.5t29 7.5t20.5 21t7.5 29.5t-7.5 29.5t-20.5 21t-29 7.5t-29 -7.5t-20.5 -21t-7.5 -29.5t7.5 -29.5zM211 -61v23h-37v16l37 21v26l-41 -24q-3 6 -7.5 10.5t-10.5 7t-13 2.5q-10 0 -18.5 -5
t-13 -13.5t-4.5 -19.5v-44h108zM103 65h108v-24h-108v24zM211 79v25l-20 7v43l20 8v26l-108 -44v-23zM211 201v66h-21v-42h-87v-24h108zM211 315v23h-41v38h-22v-38h-23v42h-22v-65h108zM211 524v23h-68l68 50v19h-108v-23h66l-66 -47v-22h108zM125 632v30h86v24h-86v30h-22
v-84h22zM127.5 465.5q4.5 7.5 12 12t17.5 4.5t18 -4.5t12.5 -12t4.5 -17.5q0 -9 -4.5 -17t-12.5 -12.5t-18 -4.5t-17.5 4.5t-12 12.5t-4.5 17q0 10 4.5 17.5zM124 -19q0 5 2 8.5t5 5.5t7 2t7.5 -2t5.5 -5.5t2 -8.5v-19h-29v19zM170 147v-28l-39 14z" />
    <glyph glyph-name="h" unicode="h" horiz-adv-x="579" 
d="M422 488.5q42 -25.5 62 -72t20 -110.5v-306h-73v289q0 53 -13 88t-42.5 53.5t-77.5 18.5q-53 0 -84.5 -18t-45.5 -53.5t-14 -88.5v-289h-73v698l73 11v-277q15 27 37 45t53 27.5t73 9.5q63 0 105 -25.5z" />
    <glyph glyph-name="hbar" unicode="&#x127;" 
d="M125 -107h86v-24h-86v-30h-22v84h22v-30zM107.5 418.5q7.5 -13.5 20.5 -21t29 -7.5t29 7.5t20.5 21t7.5 29.5t-7.5 29.5t-20.5 21t-29 7.5t-29 -7.5t-20.5 -21t-7.5 -29.5t7.5 -29.5zM211 -61v23h-37v16l37 21v26l-41 -24q-3 6 -7.5 10.5t-10.5 7t-13 2.5q-10 0 -18.5 -5
t-13 -13.5t-4.5 -19.5v-44h108zM103 65h108v-24h-108v24zM211 79v25l-20 7v43l20 8v26l-108 -44v-23zM211 201v66h-21v-42h-87v-24h108zM211 315v23h-41v38h-22v-38h-23v42h-22v-65h108zM211 524v23h-68l68 50v19h-108v-23h66l-66 -47v-22h108zM125 632v30h86v24h-86v30h-22
v-84h22zM127.5 465.5q4.5 7.5 12 12t17.5 4.5t18 -4.5t12.5 -12t4.5 -17.5q0 -9 -4.5 -17t-12.5 -12.5t-18 -4.5t-17.5 4.5t-12 12.5t-4.5 17q0 10 4.5 17.5zM124 -19q0 5 2 8.5t5 5.5t7 2t7.5 -2t5.5 -5.5t2 -8.5v-19h-29v19zM170 147v-28l-39 14z" />
    <glyph glyph-name="hcircumflex" unicode="&#x125;" 
d="M125 -107h86v-24h-86v-30h-22v84h22v-30zM107.5 418.5q7.5 -13.5 20.5 -21t29 -7.5t29 7.5t20.5 21t7.5 29.5t-7.5 29.5t-20.5 21t-29 7.5t-29 -7.5t-20.5 -21t-7.5 -29.5t7.5 -29.5zM211 -61v23h-37v16l37 21v26l-41 -24q-3 6 -7.5 10.5t-10.5 7t-13 2.5q-10 0 -18.5 -5
t-13 -13.5t-4.5 -19.5v-44h108zM103 65h108v-24h-108v24zM211 79v25l-20 7v43l20 8v26l-108 -44v-23zM211 201v66h-21v-42h-87v-24h108zM211 315v23h-41v38h-22v-38h-23v42h-22v-65h108zM211 524v23h-68l68 50v19h-108v-23h66l-66 -47v-22h108zM125 632v30h86v24h-86v30h-22
v-84h22zM127.5 465.5q4.5 7.5 12 12t17.5 4.5t18 -4.5t12.5 -12t4.5 -17.5q0 -9 -4.5 -17t-12.5 -12.5t-18 -4.5t-17.5 4.5t-12 12.5t-4.5 17q0 10 4.5 17.5zM124 -19q0 5 2 8.5t5 5.5t7 2t7.5 -2t5.5 -5.5t2 -8.5v-19h-29v19zM170 147v-28l-39 14z" />
    <glyph glyph-name="i" unicode="i" horiz-adv-x="239" 
d="M83 685h73v-100h-73v100zM83 505h73v-505h-73v505z" />
    <glyph glyph-name="dotlessi" unicode="&#x131;" 
d="M125 -107h86v-24h-86v-30h-22v84h22v-30zM107.5 418.5q7.5 -13.5 20.5 -21t29 -7.5t29 7.5t20.5 21t7.5 29.5t-7.5 29.5t-20.5 21t-29 7.5t-29 -7.5t-20.5 -21t-7.5 -29.5t7.5 -29.5zM211 -61v23h-37v16l37 21v26l-41 -24q-3 6 -7.5 10.5t-10.5 7t-13 2.5q-10 0 -18.5 -5
t-13 -13.5t-4.5 -19.5v-44h108zM103 65h108v-24h-108v24zM211 79v25l-20 7v43l20 8v26l-108 -44v-23zM211 201v66h-21v-42h-87v-24h108zM211 315v23h-41v38h-22v-38h-23v42h-22v-65h108zM211 524v23h-68l68 50v19h-108v-23h66l-66 -47v-22h108zM125 632v30h86v24h-86v30h-22
v-84h22zM127.5 465.5q4.5 7.5 12 12t17.5 4.5t18 -4.5t12.5 -12t4.5 -17.5q0 -9 -4.5 -17t-12.5 -12.5t-18 -4.5t-17.5 4.5t-12 12.5t-4.5 17q0 10 4.5 17.5zM124 -19q0 5 2 8.5t5 5.5t7 2t7.5 -2t5.5 -5.5t2 -8.5v-19h-29v19zM170 147v-28l-39 14z" />
    <glyph glyph-name="iacute" unicode="&#xed;" 
d="M125 -107h86v-24h-86v-30h-22v84h22v-30zM107.5 418.5q7.5 -13.5 20.5 -21t29 -7.5t29 7.5t20.5 21t7.5 29.5t-7.5 29.5t-20.5 21t-29 7.5t-29 -7.5t-20.5 -21t-7.5 -29.5t7.5 -29.5zM211 -61v23h-37v16l37 21v26l-41 -24q-3 6 -7.5 10.5t-10.5 7t-13 2.5q-10 0 -18.5 -5
t-13 -13.5t-4.5 -19.5v-44h108zM103 65h108v-24h-108v24zM211 79v25l-20 7v43l20 8v26l-108 -44v-23zM211 201v66h-21v-42h-87v-24h108zM211 315v23h-41v38h-22v-38h-23v42h-22v-65h108zM211 524v23h-68l68 50v19h-108v-23h66l-66 -47v-22h108zM125 632v30h86v24h-86v30h-22
v-84h22zM127.5 465.5q4.5 7.5 12 12t17.5 4.5t18 -4.5t12.5 -12t4.5 -17.5q0 -9 -4.5 -17t-12.5 -12.5t-18 -4.5t-17.5 4.5t-12 12.5t-4.5 17q0 10 4.5 17.5zM124 -19q0 5 2 8.5t5 5.5t7 2t7.5 -2t5.5 -5.5t2 -8.5v-19h-29v19zM170 147v-28l-39 14z" />
    <glyph glyph-name="ibreve" unicode="&#x12d;" 
d="M125 -107h86v-24h-86v-30h-22v84h22v-30zM107.5 418.5q7.5 -13.5 20.5 -21t29 -7.5t29 7.5t20.5 21t7.5 29.5t-7.5 29.5t-20.5 21t-29 7.5t-29 -7.5t-20.5 -21t-7.5 -29.5t7.5 -29.5zM211 -61v23h-37v16l37 21v26l-41 -24q-3 6 -7.5 10.5t-10.5 7t-13 2.5q-10 0 -18.5 -5
t-13 -13.5t-4.5 -19.5v-44h108zM103 65h108v-24h-108v24zM211 79v25l-20 7v43l20 8v26l-108 -44v-23zM211 201v66h-21v-42h-87v-24h108zM211 315v23h-41v38h-22v-38h-23v42h-22v-65h108zM211 524v23h-68l68 50v19h-108v-23h66l-66 -47v-22h108zM125 632v30h86v24h-86v30h-22
v-84h22zM127.5 465.5q4.5 7.5 12 12t17.5 4.5t18 -4.5t12.5 -12t4.5 -17.5q0 -9 -4.5 -17t-12.5 -12.5t-18 -4.5t-17.5 4.5t-12 12.5t-4.5 17q0 10 4.5 17.5zM124 -19q0 5 2 8.5t5 5.5t7 2t7.5 -2t5.5 -5.5t2 -8.5v-19h-29v19zM170 147v-28l-39 14z" />
    <glyph glyph-name="icircumflex" unicode="&#xee;" 
d="M125 -107h86v-24h-86v-30h-22v84h22v-30zM107.5 418.5q7.5 -13.5 20.5 -21t29 -7.5t29 7.5t20.5 21t7.5 29.5t-7.5 29.5t-20.5 21t-29 7.5t-29 -7.5t-20.5 -21t-7.5 -29.5t7.5 -29.5zM211 -61v23h-37v16l37 21v26l-41 -24q-3 6 -7.5 10.5t-10.5 7t-13 2.5q-10 0 -18.5 -5
t-13 -13.5t-4.5 -19.5v-44h108zM103 65h108v-24h-108v24zM211 79v25l-20 7v43l20 8v26l-108 -44v-23zM211 201v66h-21v-42h-87v-24h108zM211 315v23h-41v38h-22v-38h-23v42h-22v-65h108zM211 524v23h-68l68 50v19h-108v-23h66l-66 -47v-22h108zM125 632v30h86v24h-86v30h-22
v-84h22zM127.5 465.5q4.5 7.5 12 12t17.5 4.5t18 -4.5t12.5 -12t4.5 -17.5q0 -9 -4.5 -17t-12.5 -12.5t-18 -4.5t-17.5 4.5t-12 12.5t-4.5 17q0 10 4.5 17.5zM124 -19q0 5 2 8.5t5 5.5t7 2t7.5 -2t5.5 -5.5t2 -8.5v-19h-29v19zM170 147v-28l-39 14z" />
    <glyph glyph-name="idieresis" unicode="&#xef;" 
d="M125 -107h86v-24h-86v-30h-22v84h22v-30zM107.5 418.5q7.5 -13.5 20.5 -21t29 -7.5t29 7.5t20.5 21t7.5 29.5t-7.5 29.5t-20.5 21t-29 7.5t-29 -7.5t-20.5 -21t-7.5 -29.5t7.5 -29.5zM211 -61v23h-37v16l37 21v26l-41 -24q-3 6 -7.5 10.5t-10.5 7t-13 2.5q-10 0 -18.5 -5
t-13 -13.5t-4.5 -19.5v-44h108zM103 65h108v-24h-108v24zM211 79v25l-20 7v43l20 8v26l-108 -44v-23zM211 201v66h-21v-42h-87v-24h108zM211 315v23h-41v38h-22v-38h-23v42h-22v-65h108zM211 524v23h-68l68 50v19h-108v-23h66l-66 -47v-22h108zM125 632v30h86v24h-86v30h-22
v-84h22zM127.5 465.5q4.5 7.5 12 12t17.5 4.5t18 -4.5t12.5 -12t4.5 -17.5q0 -9 -4.5 -17t-12.5 -12.5t-18 -4.5t-17.5 4.5t-12 12.5t-4.5 17q0 10 4.5 17.5zM124 -19q0 5 2 8.5t5 5.5t7 2t7.5 -2t5.5 -5.5t2 -8.5v-19h-29v19zM170 147v-28l-39 14z" />
    <glyph glyph-name="igrave" unicode="&#xec;" 
d="M125 -107h86v-24h-86v-30h-22v84h22v-30zM107.5 418.5q7.5 -13.5 20.5 -21t29 -7.5t29 7.5t20.5 21t7.5 29.5t-7.5 29.5t-20.5 21t-29 7.5t-29 -7.5t-20.5 -21t-7.5 -29.5t7.5 -29.5zM211 -61v23h-37v16l37 21v26l-41 -24q-3 6 -7.5 10.5t-10.5 7t-13 2.5q-10 0 -18.5 -5
t-13 -13.5t-4.5 -19.5v-44h108zM103 65h108v-24h-108v24zM211 79v25l-20 7v43l20 8v26l-108 -44v-23zM211 201v66h-21v-42h-87v-24h108zM211 315v23h-41v38h-22v-38h-23v42h-22v-65h108zM211 524v23h-68l68 50v19h-108v-23h66l-66 -47v-22h108zM125 632v30h86v24h-86v30h-22
v-84h22zM127.5 465.5q4.5 7.5 12 12t17.5 4.5t18 -4.5t12.5 -12t4.5 -17.5q0 -9 -4.5 -17t-12.5 -12.5t-18 -4.5t-17.5 4.5t-12 12.5t-4.5 17q0 10 4.5 17.5zM124 -19q0 5 2 8.5t5 5.5t7 2t7.5 -2t5.5 -5.5t2 -8.5v-19h-29v19zM170 147v-28l-39 14z" />
    <glyph glyph-name="ij" unicode="&#x133;" 
d="M125 -107h86v-24h-86v-30h-22v84h22v-30zM107.5 418.5q7.5 -13.5 20.5 -21t29 -7.5t29 7.5t20.5 21t7.5 29.5t-7.5 29.5t-20.5 21t-29 7.5t-29 -7.5t-20.5 -21t-7.5 -29.5t7.5 -29.5zM211 -61v23h-37v16l37 21v26l-41 -24q-3 6 -7.5 10.5t-10.5 7t-13 2.5q-10 0 -18.5 -5
t-13 -13.5t-4.5 -19.5v-44h108zM103 65h108v-24h-108v24zM211 79v25l-20 7v43l20 8v26l-108 -44v-23zM211 201v66h-21v-42h-87v-24h108zM211 315v23h-41v38h-22v-38h-23v42h-22v-65h108zM211 524v23h-68l68 50v19h-108v-23h66l-66 -47v-22h108zM125 632v30h86v24h-86v30h-22
v-84h22zM127.5 465.5q4.5 7.5 12 12t17.5 4.5t18 -4.5t12.5 -12t4.5 -17.5q0 -9 -4.5 -17t-12.5 -12.5t-18 -4.5t-17.5 4.5t-12 12.5t-4.5 17q0 10 4.5 17.5zM124 -19q0 5 2 8.5t5 5.5t7 2t7.5 -2t5.5 -5.5t2 -8.5v-19h-29v19zM170 147v-28l-39 14z" />
    <glyph glyph-name="imacron" unicode="&#x12b;" 
d="M125 -107h86v-24h-86v-30h-22v84h22v-30zM107.5 418.5q7.5 -13.5 20.5 -21t29 -7.5t29 7.5t20.5 21t7.5 29.5t-7.5 29.5t-20.5 21t-29 7.5t-29 -7.5t-20.5 -21t-7.5 -29.5t7.5 -29.5zM211 -61v23h-37v16l37 21v26l-41 -24q-3 6 -7.5 10.5t-10.5 7t-13 2.5q-10 0 -18.5 -5
t-13 -13.5t-4.5 -19.5v-44h108zM103 65h108v-24h-108v24zM211 79v25l-20 7v43l20 8v26l-108 -44v-23zM211 201v66h-21v-42h-87v-24h108zM211 315v23h-41v38h-22v-38h-23v42h-22v-65h108zM211 524v23h-68l68 50v19h-108v-23h66l-66 -47v-22h108zM125 632v30h86v24h-86v30h-22
v-84h22zM127.5 465.5q4.5 7.5 12 12t17.5 4.5t18 -4.5t12.5 -12t4.5 -17.5q0 -9 -4.5 -17t-12.5 -12.5t-18 -4.5t-17.5 4.5t-12 12.5t-4.5 17q0 10 4.5 17.5zM124 -19q0 5 2 8.5t5 5.5t7 2t7.5 -2t5.5 -5.5t2 -8.5v-19h-29v19zM170 147v-28l-39 14z" />
    <glyph glyph-name="iogonek" unicode="&#x12f;" 
d="M125 -107h86v-24h-86v-30h-22v84h22v-30zM107.5 418.5q7.5 -13.5 20.5 -21t29 -7.5t29 7.5t20.5 21t7.5 29.5t-7.5 29.5t-20.5 21t-29 7.5t-29 -7.5t-20.5 -21t-7.5 -29.5t7.5 -29.5zM211 -61v23h-37v16l37 21v26l-41 -24q-3 6 -7.5 10.5t-10.5 7t-13 2.5q-10 0 -18.5 -5
t-13 -13.5t-4.5 -19.5v-44h108zM103 65h108v-24h-108v24zM211 79v25l-20 7v43l20 8v26l-108 -44v-23zM211 201v66h-21v-42h-87v-24h108zM211 315v23h-41v38h-22v-38h-23v42h-22v-65h108zM211 524v23h-68l68 50v19h-108v-23h66l-66 -47v-22h108zM125 632v30h86v24h-86v30h-22
v-84h22zM127.5 465.5q4.5 7.5 12 12t17.5 4.5t18 -4.5t12.5 -12t4.5 -17.5q0 -9 -4.5 -17t-12.5 -12.5t-18 -4.5t-17.5 4.5t-12 12.5t-4.5 17q0 10 4.5 17.5zM124 -19q0 5 2 8.5t5 5.5t7 2t7.5 -2t5.5 -5.5t2 -8.5v-19h-29v19zM170 147v-28l-39 14z" />
    <glyph glyph-name="itilde" unicode="&#x129;" 
d="M125 -107h86v-24h-86v-30h-22v84h22v-30zM107.5 418.5q7.5 -13.5 20.5 -21t29 -7.5t29 7.5t20.5 21t7.5 29.5t-7.5 29.5t-20.5 21t-29 7.5t-29 -7.5t-20.5 -21t-7.5 -29.5t7.5 -29.5zM211 -61v23h-37v16l37 21v26l-41 -24q-3 6 -7.5 10.5t-10.5 7t-13 2.5q-10 0 -18.5 -5
t-13 -13.5t-4.5 -19.5v-44h108zM103 65h108v-24h-108v24zM211 79v25l-20 7v43l20 8v26l-108 -44v-23zM211 201v66h-21v-42h-87v-24h108zM211 315v23h-41v38h-22v-38h-23v42h-22v-65h108zM211 524v23h-68l68 50v19h-108v-23h66l-66 -47v-22h108zM125 632v30h86v24h-86v30h-22
v-84h22zM127.5 465.5q4.5 7.5 12 12t17.5 4.5t18 -4.5t12.5 -12t4.5 -17.5q0 -9 -4.5 -17t-12.5 -12.5t-18 -4.5t-17.5 4.5t-12 12.5t-4.5 17q0 10 4.5 17.5zM124 -19q0 5 2 8.5t5 5.5t7 2t7.5 -2t5.5 -5.5t2 -8.5v-19h-29v19zM170 147v-28l-39 14z" />
    <glyph glyph-name="j" unicode="j" horiz-adv-x="245" 
d="M-33.5 -196.5q-14.5 2.5 -26.5 6t-21 7.5l-12 69q8 -5 20.5 -9.5t27 -7.5t28.5 -3q35 0 58.5 13t35.5 42t12 77v507h73v-507q0 -67 -20 -111t-57 -65t-89 -21q-15 0 -29.5 2.5zM89 685h73v-100h-73v100z" />
    <glyph glyph-name="uni0237" unicode="&#x237;" 
d="M125 -107h86v-24h-86v-30h-22v84h22v-30zM107.5 418.5q7.5 -13.5 20.5 -21t29 -7.5t29 7.5t20.5 21t7.5 29.5t-7.5 29.5t-20.5 21t-29 7.5t-29 -7.5t-20.5 -21t-7.5 -29.5t7.5 -29.5zM211 -61v23h-37v16l37 21v26l-41 -24q-3 6 -7.5 10.5t-10.5 7t-13 2.5q-10 0 -18.5 -5
t-13 -13.5t-4.5 -19.5v-44h108zM103 65h108v-24h-108v24zM211 79v25l-20 7v43l20 8v26l-108 -44v-23zM211 201v66h-21v-42h-87v-24h108zM211 315v23h-41v38h-22v-38h-23v42h-22v-65h108zM211 524v23h-68l68 50v19h-108v-23h66l-66 -47v-22h108zM125 632v30h86v24h-86v30h-22
v-84h22zM127.5 465.5q4.5 7.5 12 12t17.5 4.5t18 -4.5t12.5 -12t4.5 -17.5q0 -9 -4.5 -17t-12.5 -12.5t-18 -4.5t-17.5 4.5t-12 12.5t-4.5 17q0 10 4.5 17.5zM124 -19q0 5 2 8.5t5 5.5t7 2t7.5 -2t5.5 -5.5t2 -8.5v-19h-29v19zM170 147v-28l-39 14z" />
    <glyph glyph-name="jcircumflex" unicode="&#x135;" 
d="M125 -107h86v-24h-86v-30h-22v84h22v-30zM107.5 418.5q7.5 -13.5 20.5 -21t29 -7.5t29 7.5t20.5 21t7.5 29.5t-7.5 29.5t-20.5 21t-29 7.5t-29 -7.5t-20.5 -21t-7.5 -29.5t7.5 -29.5zM211 -61v23h-37v16l37 21v26l-41 -24q-3 6 -7.5 10.5t-10.5 7t-13 2.5q-10 0 -18.5 -5
t-13 -13.5t-4.5 -19.5v-44h108zM103 65h108v-24h-108v24zM211 79v25l-20 7v43l20 8v26l-108 -44v-23zM211 201v66h-21v-42h-87v-24h108zM211 315v23h-41v38h-22v-38h-23v42h-22v-65h108zM211 524v23h-68l68 50v19h-108v-23h66l-66 -47v-22h108zM125 632v30h86v24h-86v30h-22
v-84h22zM127.5 465.5q4.5 7.5 12 12t17.5 4.5t18 -4.5t12.5 -12t4.5 -17.5q0 -9 -4.5 -17t-12.5 -12.5t-18 -4.5t-17.5 4.5t-12 12.5t-4.5 17q0 10 4.5 17.5zM124 -19q0 5 2 8.5t5 5.5t7 2t7.5 -2t5.5 -5.5t2 -8.5v-19h-29v19zM170 147v-28l-39 14z" />
    <glyph glyph-name="k" unicode="k" horiz-adv-x="521" 
d="M244 227h-90v-227h-73v697l73 12v-419h89l169 215h85l-194 -244l209 -261h-88z" />
    <glyph glyph-name="uni0137" unicode="&#x137;" 
d="M125 -107h86v-24h-86v-30h-22v84h22v-30zM107.5 418.5q7.5 -13.5 20.5 -21t29 -7.5t29 7.5t20.5 21t7.5 29.5t-7.5 29.5t-20.5 21t-29 7.5t-29 -7.5t-20.5 -21t-7.5 -29.5t7.5 -29.5zM211 -61v23h-37v16l37 21v26l-41 -24q-3 6 -7.5 10.5t-10.5 7t-13 2.5q-10 0 -18.5 -5
t-13 -13.5t-4.5 -19.5v-44h108zM103 65h108v-24h-108v24zM211 79v25l-20 7v43l20 8v26l-108 -44v-23zM211 201v66h-21v-42h-87v-24h108zM211 315v23h-41v38h-22v-38h-23v42h-22v-65h108zM211 524v23h-68l68 50v19h-108v-23h66l-66 -47v-22h108zM125 632v30h86v24h-86v30h-22
v-84h22zM127.5 465.5q4.5 7.5 12 12t17.5 4.5t18 -4.5t12.5 -12t4.5 -17.5q0 -9 -4.5 -17t-12.5 -12.5t-18 -4.5t-17.5 4.5t-12 12.5t-4.5 17q0 10 4.5 17.5zM124 -19q0 5 2 8.5t5 5.5t7 2t7.5 -2t5.5 -5.5t2 -8.5v-19h-29v19zM170 147v-28l-39 14z" />
    <glyph glyph-name="kgreenlandic" unicode="&#x138;" 
d="M125 -107h86v-24h-86v-30h-22v84h22v-30zM107.5 418.5q7.5 -13.5 20.5 -21t29 -7.5t29 7.5t20.5 21t7.5 29.5t-7.5 29.5t-20.5 21t-29 7.5t-29 -7.5t-20.5 -21t-7.5 -29.5t7.5 -29.5zM211 -61v23h-37v16l37 21v26l-41 -24q-3 6 -7.5 10.5t-10.5 7t-13 2.5q-10 0 -18.5 -5
t-13 -13.5t-4.5 -19.5v-44h108zM103 65h108v-24h-108v24zM211 79v25l-20 7v43l20 8v26l-108 -44v-23zM211 201v66h-21v-42h-87v-24h108zM211 315v23h-41v38h-22v-38h-23v42h-22v-65h108zM211 524v23h-68l68 50v19h-108v-23h66l-66 -47v-22h108zM125 632v30h86v24h-86v30h-22
v-84h22zM127.5 465.5q4.5 7.5 12 12t17.5 4.5t18 -4.5t12.5 -12t4.5 -17.5q0 -9 -4.5 -17t-12.5 -12.5t-18 -4.5t-17.5 4.5t-12 12.5t-4.5 17q0 10 4.5 17.5zM124 -19q0 5 2 8.5t5 5.5t7 2t7.5 -2t5.5 -5.5t2 -8.5v-19h-29v19zM170 147v-28l-39 14z" />
    <glyph glyph-name="l" unicode="l" horiz-adv-x="239" 
d="M83 697l73 12v-709h-73v697z" />
    <glyph glyph-name="lacute" unicode="&#x13a;" 
d="M125 -107h86v-24h-86v-30h-22v84h22v-30zM107.5 418.5q7.5 -13.5 20.5 -21t29 -7.5t29 7.5t20.5 21t7.5 29.5t-7.5 29.5t-20.5 21t-29 7.5t-29 -7.5t-20.5 -21t-7.5 -29.5t7.5 -29.5zM211 -61v23h-37v16l37 21v26l-41 -24q-3 6 -7.5 10.5t-10.5 7t-13 2.5q-10 0 -18.5 -5
t-13 -13.5t-4.5 -19.5v-44h108zM103 65h108v-24h-108v24zM211 79v25l-20 7v43l20 8v26l-108 -44v-23zM211 201v66h-21v-42h-87v-24h108zM211 315v23h-41v38h-22v-38h-23v42h-22v-65h108zM211 524v23h-68l68 50v19h-108v-23h66l-66 -47v-22h108zM125 632v30h86v24h-86v30h-22
v-84h22zM127.5 465.5q4.5 7.5 12 12t17.5 4.5t18 -4.5t12.5 -12t4.5 -17.5q0 -9 -4.5 -17t-12.5 -12.5t-18 -4.5t-17.5 4.5t-12 12.5t-4.5 17q0 10 4.5 17.5zM124 -19q0 5 2 8.5t5 5.5t7 2t7.5 -2t5.5 -5.5t2 -8.5v-19h-29v19zM170 147v-28l-39 14z" />
    <glyph glyph-name="lcaron" unicode="&#x13e;" 
d="M125 -107h86v-24h-86v-30h-22v84h22v-30zM107.5 418.5q7.5 -13.5 20.5 -21t29 -7.5t29 7.5t20.5 21t7.5 29.5t-7.5 29.5t-20.5 21t-29 7.5t-29 -7.5t-20.5 -21t-7.5 -29.5t7.5 -29.5zM211 -61v23h-37v16l37 21v26l-41 -24q-3 6 -7.5 10.5t-10.5 7t-13 2.5q-10 0 -18.5 -5
t-13 -13.5t-4.5 -19.5v-44h108zM103 65h108v-24h-108v24zM211 79v25l-20 7v43l20 8v26l-108 -44v-23zM211 201v66h-21v-42h-87v-24h108zM211 315v23h-41v38h-22v-38h-23v42h-22v-65h108zM211 524v23h-68l68 50v19h-108v-23h66l-66 -47v-22h108zM125 632v30h86v24h-86v30h-22
v-84h22zM127.5 465.5q4.5 7.5 12 12t17.5 4.5t18 -4.5t12.5 -12t4.5 -17.5q0 -9 -4.5 -17t-12.5 -12.5t-18 -4.5t-17.5 4.5t-12 12.5t-4.5 17q0 10 4.5 17.5zM124 -19q0 5 2 8.5t5 5.5t7 2t7.5 -2t5.5 -5.5t2 -8.5v-19h-29v19zM170 147v-28l-39 14z" />
    <glyph glyph-name="uni013C" unicode="&#x13c;" 
d="M125 -107h86v-24h-86v-30h-22v84h22v-30zM107.5 418.5q7.5 -13.5 20.5 -21t29 -7.5t29 7.5t20.5 21t7.5 29.5t-7.5 29.5t-20.5 21t-29 7.5t-29 -7.5t-20.5 -21t-7.5 -29.5t7.5 -29.5zM211 -61v23h-37v16l37 21v26l-41 -24q-3 6 -7.5 10.5t-10.5 7t-13 2.5q-10 0 -18.5 -5
t-13 -13.5t-4.5 -19.5v-44h108zM103 65h108v-24h-108v24zM211 79v25l-20 7v43l20 8v26l-108 -44v-23zM211 201v66h-21v-42h-87v-24h108zM211 315v23h-41v38h-22v-38h-23v42h-22v-65h108zM211 524v23h-68l68 50v19h-108v-23h66l-66 -47v-22h108zM125 632v30h86v24h-86v30h-22
v-84h22zM127.5 465.5q4.5 7.5 12 12t17.5 4.5t18 -4.5t12.5 -12t4.5 -17.5q0 -9 -4.5 -17t-12.5 -12.5t-18 -4.5t-17.5 4.5t-12 12.5t-4.5 17q0 10 4.5 17.5zM124 -19q0 5 2 8.5t5 5.5t7 2t7.5 -2t5.5 -5.5t2 -8.5v-19h-29v19zM170 147v-28l-39 14z" />
    <glyph glyph-name="ldot" unicode="&#x140;" 
d="M125 -107h86v-24h-86v-30h-22v84h22v-30zM107.5 418.5q7.5 -13.5 20.5 -21t29 -7.5t29 7.5t20.5 21t7.5 29.5t-7.5 29.5t-20.5 21t-29 7.5t-29 -7.5t-20.5 -21t-7.5 -29.5t7.5 -29.5zM211 -61v23h-37v16l37 21v26l-41 -24q-3 6 -7.5 10.5t-10.5 7t-13 2.5q-10 0 -18.5 -5
t-13 -13.5t-4.5 -19.5v-44h108zM103 65h108v-24h-108v24zM211 79v25l-20 7v43l20 8v26l-108 -44v-23zM211 201v66h-21v-42h-87v-24h108zM211 315v23h-41v38h-22v-38h-23v42h-22v-65h108zM211 524v23h-68l68 50v19h-108v-23h66l-66 -47v-22h108zM125 632v30h86v24h-86v30h-22
v-84h22zM127.5 465.5q4.5 7.5 12 12t17.5 4.5t18 -4.5t12.5 -12t4.5 -17.5q0 -9 -4.5 -17t-12.5 -12.5t-18 -4.5t-17.5 4.5t-12 12.5t-4.5 17q0 10 4.5 17.5zM124 -19q0 5 2 8.5t5 5.5t7 2t7.5 -2t5.5 -5.5t2 -8.5v-19h-29v19zM170 147v-28l-39 14z" />
    <glyph glyph-name="lslash" unicode="&#x142;" 
d="M125 -107h86v-24h-86v-30h-22v84h22v-30zM107.5 418.5q7.5 -13.5 20.5 -21t29 -7.5t29 7.5t20.5 21t7.5 29.5t-7.5 29.5t-20.5 21t-29 7.5t-29 -7.5t-20.5 -21t-7.5 -29.5t7.5 -29.5zM211 -61v23h-37v16l37 21v26l-41 -24q-3 6 -7.5 10.5t-10.5 7t-13 2.5q-10 0 -18.5 -5
t-13 -13.5t-4.5 -19.5v-44h108zM103 65h108v-24h-108v24zM211 79v25l-20 7v43l20 8v26l-108 -44v-23zM211 201v66h-21v-42h-87v-24h108zM211 315v23h-41v38h-22v-38h-23v42h-22v-65h108zM211 524v23h-68l68 50v19h-108v-23h66l-66 -47v-22h108zM125 632v30h86v24h-86v30h-22
v-84h22zM127.5 465.5q4.5 7.5 12 12t17.5 4.5t18 -4.5t12.5 -12t4.5 -17.5q0 -9 -4.5 -17t-12.5 -12.5t-18 -4.5t-17.5 4.5t-12 12.5t-4.5 17q0 10 4.5 17.5zM124 -19q0 5 2 8.5t5 5.5t7 2t7.5 -2t5.5 -5.5t2 -8.5v-19h-29v19zM170 147v-28l-39 14z" />
    <glyph glyph-name="m" unicode="m" horiz-adv-x="877" 
d="M722 489.5q41 -24.5 61 -71.5t20 -114v-304h-73v290q0 54 -13 89.5t-40 52.5t-70 17q-45 0 -73.5 -17t-42 -52t-13.5 -90v-290h-73v290q0 55 -12.5 90t-40 52t-70.5 17q-45 0 -73.5 -17t-41.5 -52t-13 -90v-290h-73v505h61l12 -76q12 28 32 46.5t48.5 28.5t65.5 10
q40 0 71 -11t52.5 -32.5t32.5 -54.5q15 34 38.5 55.5t55 32t71.5 10.5q60 0 101 -24.5z" />
    <glyph glyph-name="n" unicode="n" horiz-adv-x="579" 
d="M81 505h61l12 -76q13 28 34.5 46.5t52.5 28.5t72 10q64 0 106.5 -24.5t63.5 -71.5t21 -116v-302h-73v289q0 55 -14 90t-44.5 52.5t-78.5 17.5q-49 0 -80 -17.5t-45.5 -52.5t-14.5 -90v-289h-73v505z" />
    <glyph glyph-name="nacute" unicode="&#x144;" 
d="M125 -107h86v-24h-86v-30h-22v84h22v-30zM107.5 418.5q7.5 -13.5 20.5 -21t29 -7.5t29 7.5t20.5 21t7.5 29.5t-7.5 29.5t-20.5 21t-29 7.5t-29 -7.5t-20.5 -21t-7.5 -29.5t7.5 -29.5zM211 -61v23h-37v16l37 21v26l-41 -24q-3 6 -7.5 10.5t-10.5 7t-13 2.5q-10 0 -18.5 -5
t-13 -13.5t-4.5 -19.5v-44h108zM103 65h108v-24h-108v24zM211 79v25l-20 7v43l20 8v26l-108 -44v-23zM211 201v66h-21v-42h-87v-24h108zM211 315v23h-41v38h-22v-38h-23v42h-22v-65h108zM211 524v23h-68l68 50v19h-108v-23h66l-66 -47v-22h108zM125 632v30h86v24h-86v30h-22
v-84h22zM127.5 465.5q4.5 7.5 12 12t17.5 4.5t18 -4.5t12.5 -12t4.5 -17.5q0 -9 -4.5 -17t-12.5 -12.5t-18 -4.5t-17.5 4.5t-12 12.5t-4.5 17q0 10 4.5 17.5zM124 -19q0 5 2 8.5t5 5.5t7 2t7.5 -2t5.5 -5.5t2 -8.5v-19h-29v19zM170 147v-28l-39 14z" />
    <glyph glyph-name="napostrophe" unicode="&#x149;" 
d="M125 -107h86v-24h-86v-30h-22v84h22v-30zM107.5 418.5q7.5 -13.5 20.5 -21t29 -7.5t29 7.5t20.5 21t7.5 29.5t-7.5 29.5t-20.5 21t-29 7.5t-29 -7.5t-20.5 -21t-7.5 -29.5t7.5 -29.5zM211 -61v23h-37v16l37 21v26l-41 -24q-3 6 -7.5 10.5t-10.5 7t-13 2.5q-10 0 -18.5 -5
t-13 -13.5t-4.5 -19.5v-44h108zM103 65h108v-24h-108v24zM211 79v25l-20 7v43l20 8v26l-108 -44v-23zM211 201v66h-21v-42h-87v-24h108zM211 315v23h-41v38h-22v-38h-23v42h-22v-65h108zM211 524v23h-68l68 50v19h-108v-23h66l-66 -47v-22h108zM125 632v30h86v24h-86v30h-22
v-84h22zM127.5 465.5q4.5 7.5 12 12t17.5 4.5t18 -4.5t12.5 -12t4.5 -17.5q0 -9 -4.5 -17t-12.5 -12.5t-18 -4.5t-17.5 4.5t-12 12.5t-4.5 17q0 10 4.5 17.5zM124 -19q0 5 2 8.5t5 5.5t7 2t7.5 -2t5.5 -5.5t2 -8.5v-19h-29v19zM170 147v-28l-39 14z" />
    <glyph glyph-name="ncaron" unicode="&#x148;" 
d="M125 -107h86v-24h-86v-30h-22v84h22v-30zM107.5 418.5q7.5 -13.5 20.5 -21t29 -7.5t29 7.5t20.5 21t7.5 29.5t-7.5 29.5t-20.5 21t-29 7.5t-29 -7.5t-20.5 -21t-7.5 -29.5t7.5 -29.5zM211 -61v23h-37v16l37 21v26l-41 -24q-3 6 -7.5 10.5t-10.5 7t-13 2.5q-10 0 -18.5 -5
t-13 -13.5t-4.5 -19.5v-44h108zM103 65h108v-24h-108v24zM211 79v25l-20 7v43l20 8v26l-108 -44v-23zM211 201v66h-21v-42h-87v-24h108zM211 315v23h-41v38h-22v-38h-23v42h-22v-65h108zM211 524v23h-68l68 50v19h-108v-23h66l-66 -47v-22h108zM125 632v30h86v24h-86v30h-22
v-84h22zM127.5 465.5q4.5 7.5 12 12t17.5 4.5t18 -4.5t12.5 -12t4.5 -17.5q0 -9 -4.5 -17t-12.5 -12.5t-18 -4.5t-17.5 4.5t-12 12.5t-4.5 17q0 10 4.5 17.5zM124 -19q0 5 2 8.5t5 5.5t7 2t7.5 -2t5.5 -5.5t2 -8.5v-19h-29v19zM170 147v-28l-39 14z" />
    <glyph glyph-name="uni0146" unicode="&#x146;" 
d="M125 -107h86v-24h-86v-30h-22v84h22v-30zM107.5 418.5q7.5 -13.5 20.5 -21t29 -7.5t29 7.5t20.5 21t7.5 29.5t-7.5 29.5t-20.5 21t-29 7.5t-29 -7.5t-20.5 -21t-7.5 -29.5t7.5 -29.5zM211 -61v23h-37v16l37 21v26l-41 -24q-3 6 -7.5 10.5t-10.5 7t-13 2.5q-10 0 -18.5 -5
t-13 -13.5t-4.5 -19.5v-44h108zM103 65h108v-24h-108v24zM211 79v25l-20 7v43l20 8v26l-108 -44v-23zM211 201v66h-21v-42h-87v-24h108zM211 315v23h-41v38h-22v-38h-23v42h-22v-65h108zM211 524v23h-68l68 50v19h-108v-23h66l-66 -47v-22h108zM125 632v30h86v24h-86v30h-22
v-84h22zM127.5 465.5q4.5 7.5 12 12t17.5 4.5t18 -4.5t12.5 -12t4.5 -17.5q0 -9 -4.5 -17t-12.5 -12.5t-18 -4.5t-17.5 4.5t-12 12.5t-4.5 17q0 10 4.5 17.5zM124 -19q0 5 2 8.5t5 5.5t7 2t7.5 -2t5.5 -5.5t2 -8.5v-19h-29v19zM170 147v-28l-39 14z" />
    <glyph glyph-name="ntilde" unicode="&#xf1;" 
d="M125 -107h86v-24h-86v-30h-22v84h22v-30zM107.5 418.5q7.5 -13.5 20.5 -21t29 -7.5t29 7.5t20.5 21t7.5 29.5t-7.5 29.5t-20.5 21t-29 7.5t-29 -7.5t-20.5 -21t-7.5 -29.5t7.5 -29.5zM211 -61v23h-37v16l37 21v26l-41 -24q-3 6 -7.5 10.5t-10.5 7t-13 2.5q-10 0 -18.5 -5
t-13 -13.5t-4.5 -19.5v-44h108zM103 65h108v-24h-108v24zM211 79v25l-20 7v43l20 8v26l-108 -44v-23zM211 201v66h-21v-42h-87v-24h108zM211 315v23h-41v38h-22v-38h-23v42h-22v-65h108zM211 524v23h-68l68 50v19h-108v-23h66l-66 -47v-22h108zM125 632v30h86v24h-86v30h-22
v-84h22zM127.5 465.5q4.5 7.5 12 12t17.5 4.5t18 -4.5t12.5 -12t4.5 -17.5q0 -9 -4.5 -17t-12.5 -12.5t-18 -4.5t-17.5 4.5t-12 12.5t-4.5 17q0 10 4.5 17.5zM124 -19q0 5 2 8.5t5 5.5t7 2t7.5 -2t5.5 -5.5t2 -8.5v-19h-29v19zM170 147v-28l-39 14z" />
    <glyph glyph-name="eng" unicode="&#x14b;" 
d="M125 -107h86v-24h-86v-30h-22v84h22v-30zM107.5 418.5q7.5 -13.5 20.5 -21t29 -7.5t29 7.5t20.5 21t7.5 29.5t-7.5 29.5t-20.5 21t-29 7.5t-29 -7.5t-20.5 -21t-7.5 -29.5t7.5 -29.5zM211 -61v23h-37v16l37 21v26l-41 -24q-3 6 -7.5 10.5t-10.5 7t-13 2.5q-10 0 -18.5 -5
t-13 -13.5t-4.5 -19.5v-44h108zM103 65h108v-24h-108v24zM211 79v25l-20 7v43l20 8v26l-108 -44v-23zM211 201v66h-21v-42h-87v-24h108zM211 315v23h-41v38h-22v-38h-23v42h-22v-65h108zM211 524v23h-68l68 50v19h-108v-23h66l-66 -47v-22h108zM125 632v30h86v24h-86v30h-22
v-84h22zM127.5 465.5q4.5 7.5 12 12t17.5 4.5t18 -4.5t12.5 -12t4.5 -17.5q0 -9 -4.5 -17t-12.5 -12.5t-18 -4.5t-17.5 4.5t-12 12.5t-4.5 17q0 10 4.5 17.5zM124 -19q0 5 2 8.5t5 5.5t7 2t7.5 -2t5.5 -5.5t2 -8.5v-19h-29v19zM170 147v-28l-39 14z" />
    <glyph glyph-name="o" unicode="o" horiz-adv-x="532" 
d="M143 19q-48 28 -71 85.5t-23 147.5t23 148t71 86t123 28t123 -28t71 -86t23 -148t-23 -147.5t-71 -85.5t-123 -28t-123 28zM138.5 138.5q14.5 -43.5 46 -63.5t81.5 -20t81 20t46 63.5t15 113.5t-15 113.5t-46 63.5t-81 20t-81.5 -20t-46 -63.5t-14.5 -113.5t14.5 -113.5z
" />
    <glyph glyph-name="oacute" unicode="&#xf3;" 
d="M125 -107h86v-24h-86v-30h-22v84h22v-30zM107.5 418.5q7.5 -13.5 20.5 -21t29 -7.5t29 7.5t20.5 21t7.5 29.5t-7.5 29.5t-20.5 21t-29 7.5t-29 -7.5t-20.5 -21t-7.5 -29.5t7.5 -29.5zM211 -61v23h-37v16l37 21v26l-41 -24q-3 6 -7.5 10.5t-10.5 7t-13 2.5q-10 0 -18.5 -5
t-13 -13.5t-4.5 -19.5v-44h108zM103 65h108v-24h-108v24zM211 79v25l-20 7v43l20 8v26l-108 -44v-23zM211 201v66h-21v-42h-87v-24h108zM211 315v23h-41v38h-22v-38h-23v42h-22v-65h108zM211 524v23h-68l68 50v19h-108v-23h66l-66 -47v-22h108zM125 632v30h86v24h-86v30h-22
v-84h22zM127.5 465.5q4.5 7.5 12 12t17.5 4.5t18 -4.5t12.5 -12t4.5 -17.5q0 -9 -4.5 -17t-12.5 -12.5t-18 -4.5t-17.5 4.5t-12 12.5t-4.5 17q0 10 4.5 17.5zM124 -19q0 5 2 8.5t5 5.5t7 2t7.5 -2t5.5 -5.5t2 -8.5v-19h-29v19zM170 147v-28l-39 14z" />
    <glyph glyph-name="obreve" unicode="&#x14f;" 
d="M125 -107h86v-24h-86v-30h-22v84h22v-30zM107.5 418.5q7.5 -13.5 20.5 -21t29 -7.5t29 7.5t20.5 21t7.5 29.5t-7.5 29.5t-20.5 21t-29 7.5t-29 -7.5t-20.5 -21t-7.5 -29.5t7.5 -29.5zM211 -61v23h-37v16l37 21v26l-41 -24q-3 6 -7.5 10.5t-10.5 7t-13 2.5q-10 0 -18.5 -5
t-13 -13.5t-4.5 -19.5v-44h108zM103 65h108v-24h-108v24zM211 79v25l-20 7v43l20 8v26l-108 -44v-23zM211 201v66h-21v-42h-87v-24h108zM211 315v23h-41v38h-22v-38h-23v42h-22v-65h108zM211 524v23h-68l68 50v19h-108v-23h66l-66 -47v-22h108zM125 632v30h86v24h-86v30h-22
v-84h22zM127.5 465.5q4.5 7.5 12 12t17.5 4.5t18 -4.5t12.5 -12t4.5 -17.5q0 -9 -4.5 -17t-12.5 -12.5t-18 -4.5t-17.5 4.5t-12 12.5t-4.5 17q0 10 4.5 17.5zM124 -19q0 5 2 8.5t5 5.5t7 2t7.5 -2t5.5 -5.5t2 -8.5v-19h-29v19zM170 147v-28l-39 14z" />
    <glyph glyph-name="ocircumflex" unicode="&#xf4;" 
d="M125 -107h86v-24h-86v-30h-22v84h22v-30zM107.5 418.5q7.5 -13.5 20.5 -21t29 -7.5t29 7.5t20.5 21t7.5 29.5t-7.5 29.5t-20.5 21t-29 7.5t-29 -7.5t-20.5 -21t-7.5 -29.5t7.5 -29.5zM211 -61v23h-37v16l37 21v26l-41 -24q-3 6 -7.5 10.5t-10.5 7t-13 2.5q-10 0 -18.5 -5
t-13 -13.5t-4.5 -19.5v-44h108zM103 65h108v-24h-108v24zM211 79v25l-20 7v43l20 8v26l-108 -44v-23zM211 201v66h-21v-42h-87v-24h108zM211 315v23h-41v38h-22v-38h-23v42h-22v-65h108zM211 524v23h-68l68 50v19h-108v-23h66l-66 -47v-22h108zM125 632v30h86v24h-86v30h-22
v-84h22zM127.5 465.5q4.5 7.5 12 12t17.5 4.5t18 -4.5t12.5 -12t4.5 -17.5q0 -9 -4.5 -17t-12.5 -12.5t-18 -4.5t-17.5 4.5t-12 12.5t-4.5 17q0 10 4.5 17.5zM124 -19q0 5 2 8.5t5 5.5t7 2t7.5 -2t5.5 -5.5t2 -8.5v-19h-29v19zM170 147v-28l-39 14z" />
    <glyph glyph-name="odieresis" unicode="&#xf6;" 
d="M125 -107h86v-24h-86v-30h-22v84h22v-30zM107.5 418.5q7.5 -13.5 20.5 -21t29 -7.5t29 7.5t20.5 21t7.5 29.5t-7.5 29.5t-20.5 21t-29 7.5t-29 -7.5t-20.5 -21t-7.5 -29.5t7.5 -29.5zM211 -61v23h-37v16l37 21v26l-41 -24q-3 6 -7.5 10.5t-10.5 7t-13 2.5q-10 0 -18.5 -5
t-13 -13.5t-4.5 -19.5v-44h108zM103 65h108v-24h-108v24zM211 79v25l-20 7v43l20 8v26l-108 -44v-23zM211 201v66h-21v-42h-87v-24h108zM211 315v23h-41v38h-22v-38h-23v42h-22v-65h108zM211 524v23h-68l68 50v19h-108v-23h66l-66 -47v-22h108zM125 632v30h86v24h-86v30h-22
v-84h22zM127.5 465.5q4.5 7.5 12 12t17.5 4.5t18 -4.5t12.5 -12t4.5 -17.5q0 -9 -4.5 -17t-12.5 -12.5t-18 -4.5t-17.5 4.5t-12 12.5t-4.5 17q0 10 4.5 17.5zM124 -19q0 5 2 8.5t5 5.5t7 2t7.5 -2t5.5 -5.5t2 -8.5v-19h-29v19zM170 147v-28l-39 14z" />
    <glyph glyph-name="ograve" unicode="&#xf2;" 
d="M125 -107h86v-24h-86v-30h-22v84h22v-30zM107.5 418.5q7.5 -13.5 20.5 -21t29 -7.5t29 7.5t20.5 21t7.5 29.5t-7.5 29.5t-20.5 21t-29 7.5t-29 -7.5t-20.5 -21t-7.5 -29.5t7.5 -29.5zM211 -61v23h-37v16l37 21v26l-41 -24q-3 6 -7.5 10.5t-10.5 7t-13 2.5q-10 0 -18.5 -5
t-13 -13.5t-4.5 -19.5v-44h108zM103 65h108v-24h-108v24zM211 79v25l-20 7v43l20 8v26l-108 -44v-23zM211 201v66h-21v-42h-87v-24h108zM211 315v23h-41v38h-22v-38h-23v42h-22v-65h108zM211 524v23h-68l68 50v19h-108v-23h66l-66 -47v-22h108zM125 632v30h86v24h-86v30h-22
v-84h22zM127.5 465.5q4.5 7.5 12 12t17.5 4.5t18 -4.5t12.5 -12t4.5 -17.5q0 -9 -4.5 -17t-12.5 -12.5t-18 -4.5t-17.5 4.5t-12 12.5t-4.5 17q0 10 4.5 17.5zM124 -19q0 5 2 8.5t5 5.5t7 2t7.5 -2t5.5 -5.5t2 -8.5v-19h-29v19zM170 147v-28l-39 14z" />
    <glyph glyph-name="ohungarumlaut" unicode="&#x151;" 
d="M125 -107h86v-24h-86v-30h-22v84h22v-30zM107.5 418.5q7.5 -13.5 20.5 -21t29 -7.5t29 7.5t20.5 21t7.5 29.5t-7.5 29.5t-20.5 21t-29 7.5t-29 -7.5t-20.5 -21t-7.5 -29.5t7.5 -29.5zM211 -61v23h-37v16l37 21v26l-41 -24q-3 6 -7.5 10.5t-10.5 7t-13 2.5q-10 0 -18.5 -5
t-13 -13.5t-4.5 -19.5v-44h108zM103 65h108v-24h-108v24zM211 79v25l-20 7v43l20 8v26l-108 -44v-23zM211 201v66h-21v-42h-87v-24h108zM211 315v23h-41v38h-22v-38h-23v42h-22v-65h108zM211 524v23h-68l68 50v19h-108v-23h66l-66 -47v-22h108zM125 632v30h86v24h-86v30h-22
v-84h22zM127.5 465.5q4.5 7.5 12 12t17.5 4.5t18 -4.5t12.5 -12t4.5 -17.5q0 -9 -4.5 -17t-12.5 -12.5t-18 -4.5t-17.5 4.5t-12 12.5t-4.5 17q0 10 4.5 17.5zM124 -19q0 5 2 8.5t5 5.5t7 2t7.5 -2t5.5 -5.5t2 -8.5v-19h-29v19zM170 147v-28l-39 14z" />
    <glyph glyph-name="omacron" unicode="&#x14d;" 
d="M125 -107h86v-24h-86v-30h-22v84h22v-30zM107.5 418.5q7.5 -13.5 20.5 -21t29 -7.5t29 7.5t20.5 21t7.5 29.5t-7.5 29.5t-20.5 21t-29 7.5t-29 -7.5t-20.5 -21t-7.5 -29.5t7.5 -29.5zM211 -61v23h-37v16l37 21v26l-41 -24q-3 6 -7.5 10.5t-10.5 7t-13 2.5q-10 0 -18.5 -5
t-13 -13.5t-4.5 -19.5v-44h108zM103 65h108v-24h-108v24zM211 79v25l-20 7v43l20 8v26l-108 -44v-23zM211 201v66h-21v-42h-87v-24h108zM211 315v23h-41v38h-22v-38h-23v42h-22v-65h108zM211 524v23h-68l68 50v19h-108v-23h66l-66 -47v-22h108zM125 632v30h86v24h-86v30h-22
v-84h22zM127.5 465.5q4.5 7.5 12 12t17.5 4.5t18 -4.5t12.5 -12t4.5 -17.5q0 -9 -4.5 -17t-12.5 -12.5t-18 -4.5t-17.5 4.5t-12 12.5t-4.5 17q0 10 4.5 17.5zM124 -19q0 5 2 8.5t5 5.5t7 2t7.5 -2t5.5 -5.5t2 -8.5v-19h-29v19zM170 147v-28l-39 14z" />
    <glyph glyph-name="oslash" unicode="&#xf8;" 
d="M125 -107h86v-24h-86v-30h-22v84h22v-30zM107.5 418.5q7.5 -13.5 20.5 -21t29 -7.5t29 7.5t20.5 21t7.5 29.5t-7.5 29.5t-20.5 21t-29 7.5t-29 -7.5t-20.5 -21t-7.5 -29.5t7.5 -29.5zM211 -61v23h-37v16l37 21v26l-41 -24q-3 6 -7.5 10.5t-10.5 7t-13 2.5q-10 0 -18.5 -5
t-13 -13.5t-4.5 -19.5v-44h108zM103 65h108v-24h-108v24zM211 79v25l-20 7v43l20 8v26l-108 -44v-23zM211 201v66h-21v-42h-87v-24h108zM211 315v23h-41v38h-22v-38h-23v42h-22v-65h108zM211 524v23h-68l68 50v19h-108v-23h66l-66 -47v-22h108zM125 632v30h86v24h-86v30h-22
v-84h22zM127.5 465.5q4.5 7.5 12 12t17.5 4.5t18 -4.5t12.5 -12t4.5 -17.5q0 -9 -4.5 -17t-12.5 -12.5t-18 -4.5t-17.5 4.5t-12 12.5t-4.5 17q0 10 4.5 17.5zM124 -19q0 5 2 8.5t5 5.5t7 2t7.5 -2t5.5 -5.5t2 -8.5v-19h-29v19zM170 147v-28l-39 14z" />
    <glyph glyph-name="oslashacute" unicode="&#x1ff;" 
d="M125 -107h86v-24h-86v-30h-22v84h22v-30zM107.5 418.5q7.5 -13.5 20.5 -21t29 -7.5t29 7.5t20.5 21t7.5 29.5t-7.5 29.5t-20.5 21t-29 7.5t-29 -7.5t-20.5 -21t-7.5 -29.5t7.5 -29.5zM211 -61v23h-37v16l37 21v26l-41 -24q-3 6 -7.5 10.5t-10.5 7t-13 2.5q-10 0 -18.5 -5
t-13 -13.5t-4.5 -19.5v-44h108zM103 65h108v-24h-108v24zM211 79v25l-20 7v43l20 8v26l-108 -44v-23zM211 201v66h-21v-42h-87v-24h108zM211 315v23h-41v38h-22v-38h-23v42h-22v-65h108zM211 524v23h-68l68 50v19h-108v-23h66l-66 -47v-22h108zM125 632v30h86v24h-86v30h-22
v-84h22zM127.5 465.5q4.5 7.5 12 12t17.5 4.5t18 -4.5t12.5 -12t4.5 -17.5q0 -9 -4.5 -17t-12.5 -12.5t-18 -4.5t-17.5 4.5t-12 12.5t-4.5 17q0 10 4.5 17.5zM124 -19q0 5 2 8.5t5 5.5t7 2t7.5 -2t5.5 -5.5t2 -8.5v-19h-29v19zM170 147v-28l-39 14z" />
    <glyph glyph-name="otilde" unicode="&#xf5;" 
d="M125 -107h86v-24h-86v-30h-22v84h22v-30zM107.5 418.5q7.5 -13.5 20.5 -21t29 -7.5t29 7.5t20.5 21t7.5 29.5t-7.5 29.5t-20.5 21t-29 7.5t-29 -7.5t-20.5 -21t-7.5 -29.5t7.5 -29.5zM211 -61v23h-37v16l37 21v26l-41 -24q-3 6 -7.5 10.5t-10.5 7t-13 2.5q-10 0 -18.5 -5
t-13 -13.5t-4.5 -19.5v-44h108zM103 65h108v-24h-108v24zM211 79v25l-20 7v43l20 8v26l-108 -44v-23zM211 201v66h-21v-42h-87v-24h108zM211 315v23h-41v38h-22v-38h-23v42h-22v-65h108zM211 524v23h-68l68 50v19h-108v-23h66l-66 -47v-22h108zM125 632v30h86v24h-86v30h-22
v-84h22zM127.5 465.5q4.5 7.5 12 12t17.5 4.5t18 -4.5t12.5 -12t4.5 -17.5q0 -9 -4.5 -17t-12.5 -12.5t-18 -4.5t-17.5 4.5t-12 12.5t-4.5 17q0 10 4.5 17.5zM124 -19q0 5 2 8.5t5 5.5t7 2t7.5 -2t5.5 -5.5t2 -8.5v-19h-29v19zM170 147v-28l-39 14z" />
    <glyph glyph-name="oe" unicode="&#x153;" 
d="M125 -107h86v-24h-86v-30h-22v84h22v-30zM107.5 418.5q7.5 -13.5 20.5 -21t29 -7.5t29 7.5t20.5 21t7.5 29.5t-7.5 29.5t-20.5 21t-29 7.5t-29 -7.5t-20.5 -21t-7.5 -29.5t7.5 -29.5zM211 -61v23h-37v16l37 21v26l-41 -24q-3 6 -7.5 10.5t-10.5 7t-13 2.5q-10 0 -18.5 -5
t-13 -13.5t-4.5 -19.5v-44h108zM103 65h108v-24h-108v24zM211 79v25l-20 7v43l20 8v26l-108 -44v-23zM211 201v66h-21v-42h-87v-24h108zM211 315v23h-41v38h-22v-38h-23v42h-22v-65h108zM211 524v23h-68l68 50v19h-108v-23h66l-66 -47v-22h108zM125 632v30h86v24h-86v30h-22
v-84h22zM127.5 465.5q4.5 7.5 12 12t17.5 4.5t18 -4.5t12.5 -12t4.5 -17.5q0 -9 -4.5 -17t-12.5 -12.5t-18 -4.5t-17.5 4.5t-12 12.5t-4.5 17q0 10 4.5 17.5zM124 -19q0 5 2 8.5t5 5.5t7 2t7.5 -2t5.5 -5.5t2 -8.5v-19h-29v19zM170 147v-28l-39 14z" />
    <glyph glyph-name="p" unicode="p" horiz-adv-x="563" 
d="M426 486.5q44 -27.5 65.5 -85.5t21.5 -149t-21.5 -148.5t-65.5 -85t-112 -27.5q-45 0 -78 13t-53 33.5t-29 42.5v-265l-73 -11v701h61l12 -79q9 22 29 42t53 33t78 13q68 0 112 -27.5zM169 138.5q15 -43.5 46 -63.5t81 -20t81.5 20t46.5 63.5t15 113.5t-15 113.5
t-46.5 63.5t-81.5 20t-81 -20t-46 -63.5t-15 -113.5t15 -113.5z" />
    <glyph glyph-name="thorn" unicode="&#xfe;" 
d="M125 -107h86v-24h-86v-30h-22v84h22v-30zM107.5 418.5q7.5 -13.5 20.5 -21t29 -7.5t29 7.5t20.5 21t7.5 29.5t-7.5 29.5t-20.5 21t-29 7.5t-29 -7.5t-20.5 -21t-7.5 -29.5t7.5 -29.5zM211 -61v23h-37v16l37 21v26l-41 -24q-3 6 -7.5 10.5t-10.5 7t-13 2.5q-10 0 -18.5 -5
t-13 -13.5t-4.5 -19.5v-44h108zM103 65h108v-24h-108v24zM211 79v25l-20 7v43l20 8v26l-108 -44v-23zM211 201v66h-21v-42h-87v-24h108zM211 315v23h-41v38h-22v-38h-23v42h-22v-65h108zM211 524v23h-68l68 50v19h-108v-23h66l-66 -47v-22h108zM125 632v30h86v24h-86v30h-22
v-84h22zM127.5 465.5q4.5 7.5 12 12t17.5 4.5t18 -4.5t12.5 -12t4.5 -17.5q0 -9 -4.5 -17t-12.5 -12.5t-18 -4.5t-17.5 4.5t-12 12.5t-4.5 17q0 10 4.5 17.5zM124 -19q0 5 2 8.5t5 5.5t7 2t7.5 -2t5.5 -5.5t2 -8.5v-19h-29v19zM170 147v-28l-39 14z" />
    <glyph glyph-name="q" unicode="q" horiz-adv-x="563" 
d="M482 505v-690l-73 -11v276q-9 -22 -29 -42.5t-53 -33.5t-78 -13q-68 0 -112 27.5t-65.5 85t-21.5 148.5t21.5 149t65.5 85.5t112 27.5q45 0 78 -13t53 -33t29 -42l12 79h61zM139 138.5q15 -43.5 46.5 -63.5t81.5 -20t81 20t46 63.5t15 113.5t-15 113.5t-46 63.5t-81 20
t-81.5 -20t-46.5 -63.5t-15 -113.5t15 -113.5z" />
    <glyph glyph-name="r" unicode="r" horiz-adv-x="400" 
d="M81 505h61l12 -75q15 28 36 46.5t50 28t66 9.5q17 0 31.5 -2t26 -5t17.5 -6l5 -71q-7 4 -20.5 8.5t-31 7.5t-37.5 3q-47 0 -78.5 -16.5t-48 -51t-16.5 -88.5v-293h-73v505z" />
    <glyph glyph-name="racute" unicode="&#x155;" 
d="M125 -107h86v-24h-86v-30h-22v84h22v-30zM107.5 418.5q7.5 -13.5 20.5 -21t29 -7.5t29 7.5t20.5 21t7.5 29.5t-7.5 29.5t-20.5 21t-29 7.5t-29 -7.5t-20.5 -21t-7.5 -29.5t7.5 -29.5zM211 -61v23h-37v16l37 21v26l-41 -24q-3 6 -7.5 10.5t-10.5 7t-13 2.5q-10 0 -18.5 -5
t-13 -13.5t-4.5 -19.5v-44h108zM103 65h108v-24h-108v24zM211 79v25l-20 7v43l20 8v26l-108 -44v-23zM211 201v66h-21v-42h-87v-24h108zM211 315v23h-41v38h-22v-38h-23v42h-22v-65h108zM211 524v23h-68l68 50v19h-108v-23h66l-66 -47v-22h108zM125 632v30h86v24h-86v30h-22
v-84h22zM127.5 465.5q4.5 7.5 12 12t17.5 4.5t18 -4.5t12.5 -12t4.5 -17.5q0 -9 -4.5 -17t-12.5 -12.5t-18 -4.5t-17.5 4.5t-12 12.5t-4.5 17q0 10 4.5 17.5zM124 -19q0 5 2 8.5t5 5.5t7 2t7.5 -2t5.5 -5.5t2 -8.5v-19h-29v19zM170 147v-28l-39 14z" />
    <glyph glyph-name="rcaron" unicode="&#x159;" 
d="M125 -107h86v-24h-86v-30h-22v84h22v-30zM107.5 418.5q7.5 -13.5 20.5 -21t29 -7.5t29 7.5t20.5 21t7.5 29.5t-7.5 29.5t-20.5 21t-29 7.5t-29 -7.5t-20.5 -21t-7.5 -29.5t7.5 -29.5zM211 -61v23h-37v16l37 21v26l-41 -24q-3 6 -7.5 10.5t-10.5 7t-13 2.5q-10 0 -18.5 -5
t-13 -13.5t-4.5 -19.5v-44h108zM103 65h108v-24h-108v24zM211 79v25l-20 7v43l20 8v26l-108 -44v-23zM211 201v66h-21v-42h-87v-24h108zM211 315v23h-41v38h-22v-38h-23v42h-22v-65h108zM211 524v23h-68l68 50v19h-108v-23h66l-66 -47v-22h108zM125 632v30h86v24h-86v30h-22
v-84h22zM127.5 465.5q4.5 7.5 12 12t17.5 4.5t18 -4.5t12.5 -12t4.5 -17.5q0 -9 -4.5 -17t-12.5 -12.5t-18 -4.5t-17.5 4.5t-12 12.5t-4.5 17q0 10 4.5 17.5zM124 -19q0 5 2 8.5t5 5.5t7 2t7.5 -2t5.5 -5.5t2 -8.5v-19h-29v19zM170 147v-28l-39 14z" />
    <glyph glyph-name="uni0157" unicode="&#x157;" 
d="M125 -107h86v-24h-86v-30h-22v84h22v-30zM107.5 418.5q7.5 -13.5 20.5 -21t29 -7.5t29 7.5t20.5 21t7.5 29.5t-7.5 29.5t-20.5 21t-29 7.5t-29 -7.5t-20.5 -21t-7.5 -29.5t7.5 -29.5zM211 -61v23h-37v16l37 21v26l-41 -24q-3 6 -7.5 10.5t-10.5 7t-13 2.5q-10 0 -18.5 -5
t-13 -13.5t-4.5 -19.5v-44h108zM103 65h108v-24h-108v24zM211 79v25l-20 7v43l20 8v26l-108 -44v-23zM211 201v66h-21v-42h-87v-24h108zM211 315v23h-41v38h-22v-38h-23v42h-22v-65h108zM211 524v23h-68l68 50v19h-108v-23h66l-66 -47v-22h108zM125 632v30h86v24h-86v30h-22
v-84h22zM127.5 465.5q4.5 7.5 12 12t17.5 4.5t18 -4.5t12.5 -12t4.5 -17.5q0 -9 -4.5 -17t-12.5 -12.5t-18 -4.5t-17.5 4.5t-12 12.5t-4.5 17q0 10 4.5 17.5zM124 -19q0 5 2 8.5t5 5.5t7 2t7.5 -2t5.5 -5.5t2 -8.5v-19h-29v19zM170 147v-28l-39 14z" />
    <glyph glyph-name="s" unicode="s" horiz-adv-x="468" 
d="M163 -6.5q-33 4.5 -59 10.5t-42 13l-12 69q17 -8 44 -16t61.5 -13t70.5 -5q46 0 75 10t42 28t13 43q0 24 -8.5 39.5t-27.5 25t-53 16.5l-87 18q-48 9 -77 27.5t-42.5 45.5t-13.5 66q0 45 21 76.5t64.5 49t110.5 17.5q31 0 61.5 -4t54 -9.5t38.5 -11.5l4 -67
q-14 7 -36.5 13t-52 10.5t-61.5 4.5q-48 0 -77.5 -9.5t-42.5 -26.5t-13 -41q0 -22 8.5 -37t28 -24.5t52.5 -16.5l84 -17q50 -11 80 -29t43.5 -45.5t13.5 -68.5q0 -46 -20.5 -78.5t-64.5 -50t-112 -17.5q-35 0 -68 4.5z" />
    <glyph glyph-name="sacute" unicode="&#x15b;" 
d="M125 -107h86v-24h-86v-30h-22v84h22v-30zM107.5 418.5q7.5 -13.5 20.5 -21t29 -7.5t29 7.5t20.5 21t7.5 29.5t-7.5 29.5t-20.5 21t-29 7.5t-29 -7.5t-20.5 -21t-7.5 -29.5t7.5 -29.5zM211 -61v23h-37v16l37 21v26l-41 -24q-3 6 -7.5 10.5t-10.5 7t-13 2.5q-10 0 -18.5 -5
t-13 -13.5t-4.5 -19.5v-44h108zM103 65h108v-24h-108v24zM211 79v25l-20 7v43l20 8v26l-108 -44v-23zM211 201v66h-21v-42h-87v-24h108zM211 315v23h-41v38h-22v-38h-23v42h-22v-65h108zM211 524v23h-68l68 50v19h-108v-23h66l-66 -47v-22h108zM125 632v30h86v24h-86v30h-22
v-84h22zM127.5 465.5q4.5 7.5 12 12t17.5 4.5t18 -4.5t12.5 -12t4.5 -17.5q0 -9 -4.5 -17t-12.5 -12.5t-18 -4.5t-17.5 4.5t-12 12.5t-4.5 17q0 10 4.5 17.5zM124 -19q0 5 2 8.5t5 5.5t7 2t7.5 -2t5.5 -5.5t2 -8.5v-19h-29v19zM170 147v-28l-39 14z" />
    <glyph glyph-name="scaron" unicode="&#x161;" 
d="M125 -107h86v-24h-86v-30h-22v84h22v-30zM107.5 418.5q7.5 -13.5 20.5 -21t29 -7.5t29 7.5t20.5 21t7.5 29.5t-7.5 29.5t-20.5 21t-29 7.5t-29 -7.5t-20.5 -21t-7.5 -29.5t7.5 -29.5zM211 -61v23h-37v16l37 21v26l-41 -24q-3 6 -7.5 10.5t-10.5 7t-13 2.5q-10 0 -18.5 -5
t-13 -13.5t-4.5 -19.5v-44h108zM103 65h108v-24h-108v24zM211 79v25l-20 7v43l20 8v26l-108 -44v-23zM211 201v66h-21v-42h-87v-24h108zM211 315v23h-41v38h-22v-38h-23v42h-22v-65h108zM211 524v23h-68l68 50v19h-108v-23h66l-66 -47v-22h108zM125 632v30h86v24h-86v30h-22
v-84h22zM127.5 465.5q4.5 7.5 12 12t17.5 4.5t18 -4.5t12.5 -12t4.5 -17.5q0 -9 -4.5 -17t-12.5 -12.5t-18 -4.5t-17.5 4.5t-12 12.5t-4.5 17q0 10 4.5 17.5zM124 -19q0 5 2 8.5t5 5.5t7 2t7.5 -2t5.5 -5.5t2 -8.5v-19h-29v19zM170 147v-28l-39 14z" />
    <glyph glyph-name="scedilla" unicode="&#x15f;" 
d="M125 -107h86v-24h-86v-30h-22v84h22v-30zM107.5 418.5q7.5 -13.5 20.5 -21t29 -7.5t29 7.5t20.5 21t7.5 29.5t-7.5 29.5t-20.5 21t-29 7.5t-29 -7.5t-20.5 -21t-7.5 -29.5t7.5 -29.5zM211 -61v23h-37v16l37 21v26l-41 -24q-3 6 -7.5 10.5t-10.5 7t-13 2.5q-10 0 -18.5 -5
t-13 -13.5t-4.5 -19.5v-44h108zM103 65h108v-24h-108v24zM211 79v25l-20 7v43l20 8v26l-108 -44v-23zM211 201v66h-21v-42h-87v-24h108zM211 315v23h-41v38h-22v-38h-23v42h-22v-65h108zM211 524v23h-68l68 50v19h-108v-23h66l-66 -47v-22h108zM125 632v30h86v24h-86v30h-22
v-84h22zM127.5 465.5q4.5 7.5 12 12t17.5 4.5t18 -4.5t12.5 -12t4.5 -17.5q0 -9 -4.5 -17t-12.5 -12.5t-18 -4.5t-17.5 4.5t-12 12.5t-4.5 17q0 10 4.5 17.5zM124 -19q0 5 2 8.5t5 5.5t7 2t7.5 -2t5.5 -5.5t2 -8.5v-19h-29v19zM170 147v-28l-39 14z" />
    <glyph glyph-name="scircumflex" unicode="&#x15d;" 
d="M125 -107h86v-24h-86v-30h-22v84h22v-30zM107.5 418.5q7.5 -13.5 20.5 -21t29 -7.5t29 7.5t20.5 21t7.5 29.5t-7.5 29.5t-20.5 21t-29 7.5t-29 -7.5t-20.5 -21t-7.5 -29.5t7.5 -29.5zM211 -61v23h-37v16l37 21v26l-41 -24q-3 6 -7.5 10.5t-10.5 7t-13 2.5q-10 0 -18.5 -5
t-13 -13.5t-4.5 -19.5v-44h108zM103 65h108v-24h-108v24zM211 79v25l-20 7v43l20 8v26l-108 -44v-23zM211 201v66h-21v-42h-87v-24h108zM211 315v23h-41v38h-22v-38h-23v42h-22v-65h108zM211 524v23h-68l68 50v19h-108v-23h66l-66 -47v-22h108zM125 632v30h86v24h-86v30h-22
v-84h22zM127.5 465.5q4.5 7.5 12 12t17.5 4.5t18 -4.5t12.5 -12t4.5 -17.5q0 -9 -4.5 -17t-12.5 -12.5t-18 -4.5t-17.5 4.5t-12 12.5t-4.5 17q0 10 4.5 17.5zM124 -19q0 5 2 8.5t5 5.5t7 2t7.5 -2t5.5 -5.5t2 -8.5v-19h-29v19zM170 147v-28l-39 14z" />
    <glyph glyph-name="uni0219" unicode="&#x219;" 
d="M125 -107h86v-24h-86v-30h-22v84h22v-30zM107.5 418.5q7.5 -13.5 20.5 -21t29 -7.5t29 7.5t20.5 21t7.5 29.5t-7.5 29.5t-20.5 21t-29 7.5t-29 -7.5t-20.5 -21t-7.5 -29.5t7.5 -29.5zM211 -61v23h-37v16l37 21v26l-41 -24q-3 6 -7.5 10.5t-10.5 7t-13 2.5q-10 0 -18.5 -5
t-13 -13.5t-4.5 -19.5v-44h108zM103 65h108v-24h-108v24zM211 79v25l-20 7v43l20 8v26l-108 -44v-23zM211 201v66h-21v-42h-87v-24h108zM211 315v23h-41v38h-22v-38h-23v42h-22v-65h108zM211 524v23h-68l68 50v19h-108v-23h66l-66 -47v-22h108zM125 632v30h86v24h-86v30h-22
v-84h22zM127.5 465.5q4.5 7.5 12 12t17.5 4.5t18 -4.5t12.5 -12t4.5 -17.5q0 -9 -4.5 -17t-12.5 -12.5t-18 -4.5t-17.5 4.5t-12 12.5t-4.5 17q0 10 4.5 17.5zM124 -19q0 5 2 8.5t5 5.5t7 2t7.5 -2t5.5 -5.5t2 -8.5v-19h-29v19zM170 147v-28l-39 14z" />
    <glyph glyph-name="germandbls" unicode="&#xdf;" horiz-adv-x="564" 
d="M278.5 -7q-20.5 3 -35 7.5t-22.5 8.5v66q8 -4 21.5 -8.5t31.5 -7.5t37 -3q39 0 66 13t41.5 42.5t14.5 75.5v49q0 47 -14 76.5t-40.5 43t-66.5 13.5h-91v64h88q38 0 63.5 12t38 35.5t12.5 59.5q0 37 -14 61t-43.5 36t-76.5 12t-76.5 -15.5t-43.5 -47.5t-14 -82v-504h-74
v504q0 70 23 116t69.5 69.5t115.5 23.5q70 0 116.5 -19t69 -56t22.5 -93q0 -36 -7 -63.5t-23.5 -47.5t-43.5 -32q30 -12 48.5 -35t27.5 -55.5t9 -75.5v-49q0 -67 -22.5 -111t-64 -65t-99.5 -21q-23 0 -43.5 3z" />
    <glyph glyph-name="longs" unicode="&#x17f;" 
d="M125 -107h86v-24h-86v-30h-22v84h22v-30zM107.5 418.5q7.5 -13.5 20.5 -21t29 -7.5t29 7.5t20.5 21t7.5 29.5t-7.5 29.5t-20.5 21t-29 7.5t-29 -7.5t-20.5 -21t-7.5 -29.5t7.5 -29.5zM211 -61v23h-37v16l37 21v26l-41 -24q-3 6 -7.5 10.5t-10.5 7t-13 2.5q-10 0 -18.5 -5
t-13 -13.5t-4.5 -19.5v-44h108zM103 65h108v-24h-108v24zM211 79v25l-20 7v43l20 8v26l-108 -44v-23zM211 201v66h-21v-42h-87v-24h108zM211 315v23h-41v38h-22v-38h-23v42h-22v-65h108zM211 524v23h-68l68 50v19h-108v-23h66l-66 -47v-22h108zM125 632v30h86v24h-86v30h-22
v-84h22zM127.5 465.5q4.5 7.5 12 12t17.5 4.5t18 -4.5t12.5 -12t4.5 -17.5q0 -9 -4.5 -17t-12.5 -12.5t-18 -4.5t-17.5 4.5t-12 12.5t-4.5 17q0 10 4.5 17.5zM124 -19q0 5 2 8.5t5 5.5t7 2t7.5 -2t5.5 -5.5t2 -8.5v-19h-29v19zM170 147v-28l-39 14z" />
    <glyph glyph-name="t" unicode="t" horiz-adv-x="391" 
d="M318 59q18 3 33 7.5t24 8.5l-12 -65q-7 -4 -21 -8.5t-32.5 -7.5t-40.5 -3q-52 0 -88.5 19.5t-56 61t-19.5 104.5v267h-86v62h86v100l73 17v-117h189v-62h-189v-267q0 -43 11.5 -69.5t34.5 -38.5t57 -12q19 0 37 3z" />
    <glyph glyph-name="tbar" unicode="&#x167;" 
d="M125 -107h86v-24h-86v-30h-22v84h22v-30zM107.5 418.5q7.5 -13.5 20.5 -21t29 -7.5t29 7.5t20.5 21t7.5 29.5t-7.5 29.5t-20.5 21t-29 7.5t-29 -7.5t-20.5 -21t-7.5 -29.5t7.5 -29.5zM211 -61v23h-37v16l37 21v26l-41 -24q-3 6 -7.5 10.5t-10.5 7t-13 2.5q-10 0 -18.5 -5
t-13 -13.5t-4.5 -19.5v-44h108zM103 65h108v-24h-108v24zM211 79v25l-20 7v43l20 8v26l-108 -44v-23zM211 201v66h-21v-42h-87v-24h108zM211 315v23h-41v38h-22v-38h-23v42h-22v-65h108zM211 524v23h-68l68 50v19h-108v-23h66l-66 -47v-22h108zM125 632v30h86v24h-86v30h-22
v-84h22zM127.5 465.5q4.5 7.5 12 12t17.5 4.5t18 -4.5t12.5 -12t4.5 -17.5q0 -9 -4.5 -17t-12.5 -12.5t-18 -4.5t-17.5 4.5t-12 12.5t-4.5 17q0 10 4.5 17.5zM124 -19q0 5 2 8.5t5 5.5t7 2t7.5 -2t5.5 -5.5t2 -8.5v-19h-29v19zM170 147v-28l-39 14z" />
    <glyph glyph-name="tcaron" unicode="&#x165;" 
d="M125 -107h86v-24h-86v-30h-22v84h22v-30zM107.5 418.5q7.5 -13.5 20.5 -21t29 -7.5t29 7.5t20.5 21t7.5 29.5t-7.5 29.5t-20.5 21t-29 7.5t-29 -7.5t-20.5 -21t-7.5 -29.5t7.5 -29.5zM211 -61v23h-37v16l37 21v26l-41 -24q-3 6 -7.5 10.5t-10.5 7t-13 2.5q-10 0 -18.5 -5
t-13 -13.5t-4.5 -19.5v-44h108zM103 65h108v-24h-108v24zM211 79v25l-20 7v43l20 8v26l-108 -44v-23zM211 201v66h-21v-42h-87v-24h108zM211 315v23h-41v38h-22v-38h-23v42h-22v-65h108zM211 524v23h-68l68 50v19h-108v-23h66l-66 -47v-22h108zM125 632v30h86v24h-86v30h-22
v-84h22zM127.5 465.5q4.5 7.5 12 12t17.5 4.5t18 -4.5t12.5 -12t4.5 -17.5q0 -9 -4.5 -17t-12.5 -12.5t-18 -4.5t-17.5 4.5t-12 12.5t-4.5 17q0 10 4.5 17.5zM124 -19q0 5 2 8.5t5 5.5t7 2t7.5 -2t5.5 -5.5t2 -8.5v-19h-29v19zM170 147v-28l-39 14z" />
    <glyph glyph-name="u" unicode="u" horiz-adv-x="579" 
d="M159 15.5q-43 24.5 -64 71.5t-21 115v303h73v-289q0 -55 14.5 -90t45 -52.5t78.5 -17.5q49 0 80 17.5t45.5 52.5t14.5 90v289h73v-505h-62l-11 76q-13 -28 -34.5 -46.5t-52.5 -28.5t-72 -10q-64 0 -107 24.5z" />
    <glyph glyph-name="uacute" unicode="&#xfa;" 
d="M125 -107h86v-24h-86v-30h-22v84h22v-30zM107.5 418.5q7.5 -13.5 20.5 -21t29 -7.5t29 7.5t20.5 21t7.5 29.5t-7.5 29.5t-20.5 21t-29 7.5t-29 -7.5t-20.5 -21t-7.5 -29.5t7.5 -29.5zM211 -61v23h-37v16l37 21v26l-41 -24q-3 6 -7.5 10.5t-10.5 7t-13 2.5q-10 0 -18.5 -5
t-13 -13.5t-4.5 -19.5v-44h108zM103 65h108v-24h-108v24zM211 79v25l-20 7v43l20 8v26l-108 -44v-23zM211 201v66h-21v-42h-87v-24h108zM211 315v23h-41v38h-22v-38h-23v42h-22v-65h108zM211 524v23h-68l68 50v19h-108v-23h66l-66 -47v-22h108zM125 632v30h86v24h-86v30h-22
v-84h22zM127.5 465.5q4.5 7.5 12 12t17.5 4.5t18 -4.5t12.5 -12t4.5 -17.5q0 -9 -4.5 -17t-12.5 -12.5t-18 -4.5t-17.5 4.5t-12 12.5t-4.5 17q0 10 4.5 17.5zM124 -19q0 5 2 8.5t5 5.5t7 2t7.5 -2t5.5 -5.5t2 -8.5v-19h-29v19zM170 147v-28l-39 14z" />
    <glyph glyph-name="ucircumflex" unicode="&#xfb;" 
d="M125 -107h86v-24h-86v-30h-22v84h22v-30zM107.5 418.5q7.5 -13.5 20.5 -21t29 -7.5t29 7.5t20.5 21t7.5 29.5t-7.5 29.5t-20.5 21t-29 7.5t-29 -7.5t-20.5 -21t-7.5 -29.5t7.5 -29.5zM211 -61v23h-37v16l37 21v26l-41 -24q-3 6 -7.5 10.5t-10.5 7t-13 2.5q-10 0 -18.5 -5
t-13 -13.5t-4.5 -19.5v-44h108zM103 65h108v-24h-108v24zM211 79v25l-20 7v43l20 8v26l-108 -44v-23zM211 201v66h-21v-42h-87v-24h108zM211 315v23h-41v38h-22v-38h-23v42h-22v-65h108zM211 524v23h-68l68 50v19h-108v-23h66l-66 -47v-22h108zM125 632v30h86v24h-86v30h-22
v-84h22zM127.5 465.5q4.5 7.5 12 12t17.5 4.5t18 -4.5t12.5 -12t4.5 -17.5q0 -9 -4.5 -17t-12.5 -12.5t-18 -4.5t-17.5 4.5t-12 12.5t-4.5 17q0 10 4.5 17.5zM124 -19q0 5 2 8.5t5 5.5t7 2t7.5 -2t5.5 -5.5t2 -8.5v-19h-29v19zM170 147v-28l-39 14z" />
    <glyph glyph-name="udieresis" unicode="&#xfc;" 
d="M125 -107h86v-24h-86v-30h-22v84h22v-30zM107.5 418.5q7.5 -13.5 20.5 -21t29 -7.5t29 7.5t20.5 21t7.5 29.5t-7.5 29.5t-20.5 21t-29 7.5t-29 -7.5t-20.5 -21t-7.5 -29.5t7.5 -29.5zM211 -61v23h-37v16l37 21v26l-41 -24q-3 6 -7.5 10.5t-10.5 7t-13 2.5q-10 0 -18.5 -5
t-13 -13.5t-4.5 -19.5v-44h108zM103 65h108v-24h-108v24zM211 79v25l-20 7v43l20 8v26l-108 -44v-23zM211 201v66h-21v-42h-87v-24h108zM211 315v23h-41v38h-22v-38h-23v42h-22v-65h108zM211 524v23h-68l68 50v19h-108v-23h66l-66 -47v-22h108zM125 632v30h86v24h-86v30h-22
v-84h22zM127.5 465.5q4.5 7.5 12 12t17.5 4.5t18 -4.5t12.5 -12t4.5 -17.5q0 -9 -4.5 -17t-12.5 -12.5t-18 -4.5t-17.5 4.5t-12 12.5t-4.5 17q0 10 4.5 17.5zM124 -19q0 5 2 8.5t5 5.5t7 2t7.5 -2t5.5 -5.5t2 -8.5v-19h-29v19zM170 147v-28l-39 14z" />
    <glyph glyph-name="ugrave" unicode="&#xf9;" 
d="M125 -107h86v-24h-86v-30h-22v84h22v-30zM107.5 418.5q7.5 -13.5 20.5 -21t29 -7.5t29 7.5t20.5 21t7.5 29.5t-7.5 29.5t-20.5 21t-29 7.5t-29 -7.5t-20.5 -21t-7.5 -29.5t7.5 -29.5zM211 -61v23h-37v16l37 21v26l-41 -24q-3 6 -7.5 10.5t-10.5 7t-13 2.5q-10 0 -18.5 -5
t-13 -13.5t-4.5 -19.5v-44h108zM103 65h108v-24h-108v24zM211 79v25l-20 7v43l20 8v26l-108 -44v-23zM211 201v66h-21v-42h-87v-24h108zM211 315v23h-41v38h-22v-38h-23v42h-22v-65h108zM211 524v23h-68l68 50v19h-108v-23h66l-66 -47v-22h108zM125 632v30h86v24h-86v30h-22
v-84h22zM127.5 465.5q4.5 7.5 12 12t17.5 4.5t18 -4.5t12.5 -12t4.5 -17.5q0 -9 -4.5 -17t-12.5 -12.5t-18 -4.5t-17.5 4.5t-12 12.5t-4.5 17q0 10 4.5 17.5zM124 -19q0 5 2 8.5t5 5.5t7 2t7.5 -2t5.5 -5.5t2 -8.5v-19h-29v19zM170 147v-28l-39 14z" />
    <glyph glyph-name="uhungarumlaut" unicode="&#x171;" 
d="M125 -107h86v-24h-86v-30h-22v84h22v-30zM107.5 418.5q7.5 -13.5 20.5 -21t29 -7.5t29 7.5t20.5 21t7.5 29.5t-7.5 29.5t-20.5 21t-29 7.5t-29 -7.5t-20.5 -21t-7.5 -29.5t7.5 -29.5zM211 -61v23h-37v16l37 21v26l-41 -24q-3 6 -7.5 10.5t-10.5 7t-13 2.5q-10 0 -18.5 -5
t-13 -13.5t-4.5 -19.5v-44h108zM103 65h108v-24h-108v24zM211 79v25l-20 7v43l20 8v26l-108 -44v-23zM211 201v66h-21v-42h-87v-24h108zM211 315v23h-41v38h-22v-38h-23v42h-22v-65h108zM211 524v23h-68l68 50v19h-108v-23h66l-66 -47v-22h108zM125 632v30h86v24h-86v30h-22
v-84h22zM127.5 465.5q4.5 7.5 12 12t17.5 4.5t18 -4.5t12.5 -12t4.5 -17.5q0 -9 -4.5 -17t-12.5 -12.5t-18 -4.5t-17.5 4.5t-12 12.5t-4.5 17q0 10 4.5 17.5zM124 -19q0 5 2 8.5t5 5.5t7 2t7.5 -2t5.5 -5.5t2 -8.5v-19h-29v19zM170 147v-28l-39 14z" />
    <glyph glyph-name="umacron" unicode="&#x16b;" 
d="M125 -107h86v-24h-86v-30h-22v84h22v-30zM107.5 418.5q7.5 -13.5 20.5 -21t29 -7.5t29 7.5t20.5 21t7.5 29.5t-7.5 29.5t-20.5 21t-29 7.5t-29 -7.5t-20.5 -21t-7.5 -29.5t7.5 -29.5zM211 -61v23h-37v16l37 21v26l-41 -24q-3 6 -7.5 10.5t-10.5 7t-13 2.5q-10 0 -18.5 -5
t-13 -13.5t-4.5 -19.5v-44h108zM103 65h108v-24h-108v24zM211 79v25l-20 7v43l20 8v26l-108 -44v-23zM211 201v66h-21v-42h-87v-24h108zM211 315v23h-41v38h-22v-38h-23v42h-22v-65h108zM211 524v23h-68l68 50v19h-108v-23h66l-66 -47v-22h108zM125 632v30h86v24h-86v30h-22
v-84h22zM127.5 465.5q4.5 7.5 12 12t17.5 4.5t18 -4.5t12.5 -12t4.5 -17.5q0 -9 -4.5 -17t-12.5 -12.5t-18 -4.5t-17.5 4.5t-12 12.5t-4.5 17q0 10 4.5 17.5zM124 -19q0 5 2 8.5t5 5.5t7 2t7.5 -2t5.5 -5.5t2 -8.5v-19h-29v19zM170 147v-28l-39 14z" />
    <glyph glyph-name="uni0163" unicode="&#x163;" 
d="M125 -107h86v-24h-86v-30h-22v84h22v-30zM107.5 418.5q7.5 -13.5 20.5 -21t29 -7.5t29 7.5t20.5 21t7.5 29.5t-7.5 29.5t-20.5 21t-29 7.5t-29 -7.5t-20.5 -21t-7.5 -29.5t7.5 -29.5zM211 -61v23h-37v16l37 21v26l-41 -24q-3 6 -7.5 10.5t-10.5 7t-13 2.5q-10 0 -18.5 -5
t-13 -13.5t-4.5 -19.5v-44h108zM103 65h108v-24h-108v24zM211 79v25l-20 7v43l20 8v26l-108 -44v-23zM211 201v66h-21v-42h-87v-24h108zM211 315v23h-41v38h-22v-38h-23v42h-22v-65h108zM211 524v23h-68l68 50v19h-108v-23h66l-66 -47v-22h108zM125 632v30h86v24h-86v30h-22
v-84h22zM127.5 465.5q4.5 7.5 12 12t17.5 4.5t18 -4.5t12.5 -12t4.5 -17.5q0 -9 -4.5 -17t-12.5 -12.5t-18 -4.5t-17.5 4.5t-12 12.5t-4.5 17q0 10 4.5 17.5zM124 -19q0 5 2 8.5t5 5.5t7 2t7.5 -2t5.5 -5.5t2 -8.5v-19h-29v19zM170 147v-28l-39 14z" />
    <glyph glyph-name="uni021B" unicode="&#x21b;" 
d="M125 -107h86v-24h-86v-30h-22v84h22v-30zM107.5 418.5q7.5 -13.5 20.5 -21t29 -7.5t29 7.5t20.5 21t7.5 29.5t-7.5 29.5t-20.5 21t-29 7.5t-29 -7.5t-20.5 -21t-7.5 -29.5t7.5 -29.5zM211 -61v23h-37v16l37 21v26l-41 -24q-3 6 -7.5 10.5t-10.5 7t-13 2.5q-10 0 -18.5 -5
t-13 -13.5t-4.5 -19.5v-44h108zM103 65h108v-24h-108v24zM211 79v25l-20 7v43l20 8v26l-108 -44v-23zM211 201v66h-21v-42h-87v-24h108zM211 315v23h-41v38h-22v-38h-23v42h-22v-65h108zM211 524v23h-68l68 50v19h-108v-23h66l-66 -47v-22h108zM125 632v30h86v24h-86v30h-22
v-84h22zM127.5 465.5q4.5 7.5 12 12t17.5 4.5t18 -4.5t12.5 -12t4.5 -17.5q0 -9 -4.5 -17t-12.5 -12.5t-18 -4.5t-17.5 4.5t-12 12.5t-4.5 17q0 10 4.5 17.5zM124 -19q0 5 2 8.5t5 5.5t7 2t7.5 -2t5.5 -5.5t2 -8.5v-19h-29v19zM170 147v-28l-39 14z" />
    <glyph glyph-name="uogonek" unicode="&#x173;" 
d="M125 -107h86v-24h-86v-30h-22v84h22v-30zM107.5 418.5q7.5 -13.5 20.5 -21t29 -7.5t29 7.5t20.5 21t7.5 29.5t-7.5 29.5t-20.5 21t-29 7.5t-29 -7.5t-20.5 -21t-7.5 -29.5t7.5 -29.5zM211 -61v23h-37v16l37 21v26l-41 -24q-3 6 -7.5 10.5t-10.5 7t-13 2.5q-10 0 -18.5 -5
t-13 -13.5t-4.5 -19.5v-44h108zM103 65h108v-24h-108v24zM211 79v25l-20 7v43l20 8v26l-108 -44v-23zM211 201v66h-21v-42h-87v-24h108zM211 315v23h-41v38h-22v-38h-23v42h-22v-65h108zM211 524v23h-68l68 50v19h-108v-23h66l-66 -47v-22h108zM125 632v30h86v24h-86v30h-22
v-84h22zM127.5 465.5q4.5 7.5 12 12t17.5 4.5t18 -4.5t12.5 -12t4.5 -17.5q0 -9 -4.5 -17t-12.5 -12.5t-18 -4.5t-17.5 4.5t-12 12.5t-4.5 17q0 10 4.5 17.5zM124 -19q0 5 2 8.5t5 5.5t7 2t7.5 -2t5.5 -5.5t2 -8.5v-19h-29v19zM170 147v-28l-39 14z" />
    <glyph glyph-name="uring" unicode="&#x16f;" 
d="M125 -107h86v-24h-86v-30h-22v84h22v-30zM107.5 418.5q7.5 -13.5 20.5 -21t29 -7.5t29 7.5t20.5 21t7.5 29.5t-7.5 29.5t-20.5 21t-29 7.5t-29 -7.5t-20.5 -21t-7.5 -29.5t7.5 -29.5zM211 -61v23h-37v16l37 21v26l-41 -24q-3 6 -7.5 10.5t-10.5 7t-13 2.5q-10 0 -18.5 -5
t-13 -13.5t-4.5 -19.5v-44h108zM103 65h108v-24h-108v24zM211 79v25l-20 7v43l20 8v26l-108 -44v-23zM211 201v66h-21v-42h-87v-24h108zM211 315v23h-41v38h-22v-38h-23v42h-22v-65h108zM211 524v23h-68l68 50v19h-108v-23h66l-66 -47v-22h108zM125 632v30h86v24h-86v30h-22
v-84h22zM127.5 465.5q4.5 7.5 12 12t17.5 4.5t18 -4.5t12.5 -12t4.5 -17.5q0 -9 -4.5 -17t-12.5 -12.5t-18 -4.5t-17.5 4.5t-12 12.5t-4.5 17q0 10 4.5 17.5zM124 -19q0 5 2 8.5t5 5.5t7 2t7.5 -2t5.5 -5.5t2 -8.5v-19h-29v19zM170 147v-28l-39 14z" />
    <glyph glyph-name="utilde" unicode="&#x169;" 
d="M125 -107h86v-24h-86v-30h-22v84h22v-30zM107.5 418.5q7.5 -13.5 20.5 -21t29 -7.5t29 7.5t20.5 21t7.5 29.5t-7.5 29.5t-20.5 21t-29 7.5t-29 -7.5t-20.5 -21t-7.5 -29.5t7.5 -29.5zM211 -61v23h-37v16l37 21v26l-41 -24q-3 6 -7.5 10.5t-10.5 7t-13 2.5q-10 0 -18.5 -5
t-13 -13.5t-4.5 -19.5v-44h108zM103 65h108v-24h-108v24zM211 79v25l-20 7v43l20 8v26l-108 -44v-23zM211 201v66h-21v-42h-87v-24h108zM211 315v23h-41v38h-22v-38h-23v42h-22v-65h108zM211 524v23h-68l68 50v19h-108v-23h66l-66 -47v-22h108zM125 632v30h86v24h-86v30h-22
v-84h22zM127.5 465.5q4.5 7.5 12 12t17.5 4.5t18 -4.5t12.5 -12t4.5 -17.5q0 -9 -4.5 -17t-12.5 -12.5t-18 -4.5t-17.5 4.5t-12 12.5t-4.5 17q0 10 4.5 17.5zM124 -19q0 5 2 8.5t5 5.5t7 2t7.5 -2t5.5 -5.5t2 -8.5v-19h-29v19zM170 147v-28l-39 14z" />
    <glyph glyph-name="v" unicode="v" horiz-adv-x="505" 
d="M488 505l-199 -505h-74l-199 505h79l158 -413l159 413h76z" />
    <glyph glyph-name="w" unicode="w" horiz-adv-x="736" 
d="M703 505l-119 -505h-77l-139 352l-139 -352h-77l-119 505h73l95 -411l164 410h10l162 -408l96 409h70z" />
    <glyph glyph-name="wacute" unicode="&#x1e83;" 
d="M125 -107h86v-24h-86v-30h-22v84h22v-30zM107.5 418.5q7.5 -13.5 20.5 -21t29 -7.5t29 7.5t20.5 21t7.5 29.5t-7.5 29.5t-20.5 21t-29 7.5t-29 -7.5t-20.5 -21t-7.5 -29.5t7.5 -29.5zM211 -61v23h-37v16l37 21v26l-41 -24q-3 6 -7.5 10.5t-10.5 7t-13 2.5q-10 0 -18.5 -5
t-13 -13.5t-4.5 -19.5v-44h108zM103 65h108v-24h-108v24zM211 79v25l-20 7v43l20 8v26l-108 -44v-23zM211 201v66h-21v-42h-87v-24h108zM211 315v23h-41v38h-22v-38h-23v42h-22v-65h108zM211 524v23h-68l68 50v19h-108v-23h66l-66 -47v-22h108zM125 632v30h86v24h-86v30h-22
v-84h22zM127.5 465.5q4.5 7.5 12 12t17.5 4.5t18 -4.5t12.5 -12t4.5 -17.5q0 -9 -4.5 -17t-12.5 -12.5t-18 -4.5t-17.5 4.5t-12 12.5t-4.5 17q0 10 4.5 17.5zM124 -19q0 5 2 8.5t5 5.5t7 2t7.5 -2t5.5 -5.5t2 -8.5v-19h-29v19zM170 147v-28l-39 14z" />
    <glyph glyph-name="wcircumflex" unicode="&#x175;" 
d="M125 -107h86v-24h-86v-30h-22v84h22v-30zM107.5 418.5q7.5 -13.5 20.5 -21t29 -7.5t29 7.5t20.5 21t7.5 29.5t-7.5 29.5t-20.5 21t-29 7.5t-29 -7.5t-20.5 -21t-7.5 -29.5t7.5 -29.5zM211 -61v23h-37v16l37 21v26l-41 -24q-3 6 -7.5 10.5t-10.5 7t-13 2.5q-10 0 -18.5 -5
t-13 -13.5t-4.5 -19.5v-44h108zM103 65h108v-24h-108v24zM211 79v25l-20 7v43l20 8v26l-108 -44v-23zM211 201v66h-21v-42h-87v-24h108zM211 315v23h-41v38h-22v-38h-23v42h-22v-65h108zM211 524v23h-68l68 50v19h-108v-23h66l-66 -47v-22h108zM125 632v30h86v24h-86v30h-22
v-84h22zM127.5 465.5q4.5 7.5 12 12t17.5 4.5t18 -4.5t12.5 -12t4.5 -17.5q0 -9 -4.5 -17t-12.5 -12.5t-18 -4.5t-17.5 4.5t-12 12.5t-4.5 17q0 10 4.5 17.5zM124 -19q0 5 2 8.5t5 5.5t7 2t7.5 -2t5.5 -5.5t2 -8.5v-19h-29v19zM170 147v-28l-39 14z" />
    <glyph glyph-name="wdieresis" unicode="&#x1e85;" 
d="M125 -107h86v-24h-86v-30h-22v84h22v-30zM107.5 418.5q7.5 -13.5 20.5 -21t29 -7.5t29 7.5t20.5 21t7.5 29.5t-7.5 29.5t-20.5 21t-29 7.5t-29 -7.5t-20.5 -21t-7.5 -29.5t7.5 -29.5zM211 -61v23h-37v16l37 21v26l-41 -24q-3 6 -7.5 10.5t-10.5 7t-13 2.5q-10 0 -18.5 -5
t-13 -13.5t-4.5 -19.5v-44h108zM103 65h108v-24h-108v24zM211 79v25l-20 7v43l20 8v26l-108 -44v-23zM211 201v66h-21v-42h-87v-24h108zM211 315v23h-41v38h-22v-38h-23v42h-22v-65h108zM211 524v23h-68l68 50v19h-108v-23h66l-66 -47v-22h108zM125 632v30h86v24h-86v30h-22
v-84h22zM127.5 465.5q4.5 7.5 12 12t17.5 4.5t18 -4.5t12.5 -12t4.5 -17.5q0 -9 -4.5 -17t-12.5 -12.5t-18 -4.5t-17.5 4.5t-12 12.5t-4.5 17q0 10 4.5 17.5zM124 -19q0 5 2 8.5t5 5.5t7 2t7.5 -2t5.5 -5.5t2 -8.5v-19h-29v19zM170 147v-28l-39 14z" />
    <glyph glyph-name="wgrave" unicode="&#x1e81;" 
d="M125 -107h86v-24h-86v-30h-22v84h22v-30zM107.5 418.5q7.5 -13.5 20.5 -21t29 -7.5t29 7.5t20.5 21t7.5 29.5t-7.5 29.5t-20.5 21t-29 7.5t-29 -7.5t-20.5 -21t-7.5 -29.5t7.5 -29.5zM211 -61v23h-37v16l37 21v26l-41 -24q-3 6 -7.5 10.5t-10.5 7t-13 2.5q-10 0 -18.5 -5
t-13 -13.5t-4.5 -19.5v-44h108zM103 65h108v-24h-108v24zM211 79v25l-20 7v43l20 8v26l-108 -44v-23zM211 201v66h-21v-42h-87v-24h108zM211 315v23h-41v38h-22v-38h-23v42h-22v-65h108zM211 524v23h-68l68 50v19h-108v-23h66l-66 -47v-22h108zM125 632v30h86v24h-86v30h-22
v-84h22zM127.5 465.5q4.5 7.5 12 12t17.5 4.5t18 -4.5t12.5 -12t4.5 -17.5q0 -9 -4.5 -17t-12.5 -12.5t-18 -4.5t-17.5 4.5t-12 12.5t-4.5 17q0 10 4.5 17.5zM124 -19q0 5 2 8.5t5 5.5t7 2t7.5 -2t5.5 -5.5t2 -8.5v-19h-29v19zM170 147v-28l-39 14z" />
    <glyph glyph-name="x" unicode="x" horiz-adv-x="498" 
d="M400 0l-152 209l-152 -209h-83l191 260l-177 245h85l139 -192l138 192h82l-176 -243l190 -262h-85z" />
    <glyph glyph-name="y" unicode="y" horiz-adv-x="504" 
d="M101.5 -197q-13.5 2 -23.5 5.5t-15 6.5l-12 66q6 -3 15.5 -6.5t21.5 -6t24 -2.5q21 0 36 7t27.5 23t22.5 44l24 60l-207 505h80l164 -412l151 412h77l-222 -586q-16 -43 -36 -69t-44 -37.5t-55 -11.5q-15 0 -28.5 2z" />
    <glyph glyph-name="yacute" unicode="&#xfd;" 
d="M125 -107h86v-24h-86v-30h-22v84h22v-30zM107.5 418.5q7.5 -13.5 20.5 -21t29 -7.5t29 7.5t20.5 21t7.5 29.5t-7.5 29.5t-20.5 21t-29 7.5t-29 -7.5t-20.5 -21t-7.5 -29.5t7.5 -29.5zM211 -61v23h-37v16l37 21v26l-41 -24q-3 6 -7.5 10.5t-10.5 7t-13 2.5q-10 0 -18.5 -5
t-13 -13.5t-4.5 -19.5v-44h108zM103 65h108v-24h-108v24zM211 79v25l-20 7v43l20 8v26l-108 -44v-23zM211 201v66h-21v-42h-87v-24h108zM211 315v23h-41v38h-22v-38h-23v42h-22v-65h108zM211 524v23h-68l68 50v19h-108v-23h66l-66 -47v-22h108zM125 632v30h86v24h-86v30h-22
v-84h22zM127.5 465.5q4.5 7.5 12 12t17.5 4.5t18 -4.5t12.5 -12t4.5 -17.5q0 -9 -4.5 -17t-12.5 -12.5t-18 -4.5t-17.5 4.5t-12 12.5t-4.5 17q0 10 4.5 17.5zM124 -19q0 5 2 8.5t5 5.5t7 2t7.5 -2t5.5 -5.5t2 -8.5v-19h-29v19zM170 147v-28l-39 14z" />
    <glyph glyph-name="ycircumflex" unicode="&#x177;" 
d="M125 -107h86v-24h-86v-30h-22v84h22v-30zM107.5 418.5q7.5 -13.5 20.5 -21t29 -7.5t29 7.5t20.5 21t7.5 29.5t-7.5 29.5t-20.5 21t-29 7.5t-29 -7.5t-20.5 -21t-7.5 -29.5t7.5 -29.5zM211 -61v23h-37v16l37 21v26l-41 -24q-3 6 -7.5 10.5t-10.5 7t-13 2.5q-10 0 -18.5 -5
t-13 -13.5t-4.5 -19.5v-44h108zM103 65h108v-24h-108v24zM211 79v25l-20 7v43l20 8v26l-108 -44v-23zM211 201v66h-21v-42h-87v-24h108zM211 315v23h-41v38h-22v-38h-23v42h-22v-65h108zM211 524v23h-68l68 50v19h-108v-23h66l-66 -47v-22h108zM125 632v30h86v24h-86v30h-22
v-84h22zM127.5 465.5q4.5 7.5 12 12t17.5 4.5t18 -4.5t12.5 -12t4.5 -17.5q0 -9 -4.5 -17t-12.5 -12.5t-18 -4.5t-17.5 4.5t-12 12.5t-4.5 17q0 10 4.5 17.5zM124 -19q0 5 2 8.5t5 5.5t7 2t7.5 -2t5.5 -5.5t2 -8.5v-19h-29v19zM170 147v-28l-39 14z" />
    <glyph glyph-name="ydieresis" unicode="&#xff;" 
d="M125 -107h86v-24h-86v-30h-22v84h22v-30zM107.5 418.5q7.5 -13.5 20.5 -21t29 -7.5t29 7.5t20.5 21t7.5 29.5t-7.5 29.5t-20.5 21t-29 7.5t-29 -7.5t-20.5 -21t-7.5 -29.5t7.5 -29.5zM211 -61v23h-37v16l37 21v26l-41 -24q-3 6 -7.5 10.5t-10.5 7t-13 2.5q-10 0 -18.5 -5
t-13 -13.5t-4.5 -19.5v-44h108zM103 65h108v-24h-108v24zM211 79v25l-20 7v43l20 8v26l-108 -44v-23zM211 201v66h-21v-42h-87v-24h108zM211 315v23h-41v38h-22v-38h-23v42h-22v-65h108zM211 524v23h-68l68 50v19h-108v-23h66l-66 -47v-22h108zM125 632v30h86v24h-86v30h-22
v-84h22zM127.5 465.5q4.5 7.5 12 12t17.5 4.5t18 -4.5t12.5 -12t4.5 -17.5q0 -9 -4.5 -17t-12.5 -12.5t-18 -4.5t-17.5 4.5t-12 12.5t-4.5 17q0 10 4.5 17.5zM124 -19q0 5 2 8.5t5 5.5t7 2t7.5 -2t5.5 -5.5t2 -8.5v-19h-29v19zM170 147v-28l-39 14z" />
    <glyph glyph-name="ygrave" unicode="&#x1ef3;" 
d="M125 -107h86v-24h-86v-30h-22v84h22v-30zM107.5 418.5q7.5 -13.5 20.5 -21t29 -7.5t29 7.5t20.5 21t7.5 29.5t-7.5 29.5t-20.5 21t-29 7.5t-29 -7.5t-20.5 -21t-7.5 -29.5t7.5 -29.5zM211 -61v23h-37v16l37 21v26l-41 -24q-3 6 -7.5 10.5t-10.5 7t-13 2.5q-10 0 -18.5 -5
t-13 -13.5t-4.5 -19.5v-44h108zM103 65h108v-24h-108v24zM211 79v25l-20 7v43l20 8v26l-108 -44v-23zM211 201v66h-21v-42h-87v-24h108zM211 315v23h-41v38h-22v-38h-23v42h-22v-65h108zM211 524v23h-68l68 50v19h-108v-23h66l-66 -47v-22h108zM125 632v30h86v24h-86v30h-22
v-84h22zM127.5 465.5q4.5 7.5 12 12t17.5 4.5t18 -4.5t12.5 -12t4.5 -17.5q0 -9 -4.5 -17t-12.5 -12.5t-18 -4.5t-17.5 4.5t-12 12.5t-4.5 17q0 10 4.5 17.5zM124 -19q0 5 2 8.5t5 5.5t7 2t7.5 -2t5.5 -5.5t2 -8.5v-19h-29v19zM170 147v-28l-39 14z" />
    <glyph glyph-name="z" unicode="z" horiz-adv-x="457" 
d="M421 64l-12 -64h-372v57l287 383h-279v65h368v-57l-286 -384h294z" />
    <glyph glyph-name="zacute" unicode="&#x17a;" 
d="M125 -107h86v-24h-86v-30h-22v84h22v-30zM107.5 418.5q7.5 -13.5 20.5 -21t29 -7.5t29 7.5t20.5 21t7.5 29.5t-7.5 29.5t-20.5 21t-29 7.5t-29 -7.5t-20.5 -21t-7.5 -29.5t7.5 -29.5zM211 -61v23h-37v16l37 21v26l-41 -24q-3 6 -7.5 10.5t-10.5 7t-13 2.5q-10 0 -18.5 -5
t-13 -13.5t-4.5 -19.5v-44h108zM103 65h108v-24h-108v24zM211 79v25l-20 7v43l20 8v26l-108 -44v-23zM211 201v66h-21v-42h-87v-24h108zM211 315v23h-41v38h-22v-38h-23v42h-22v-65h108zM211 524v23h-68l68 50v19h-108v-23h66l-66 -47v-22h108zM125 632v30h86v24h-86v30h-22
v-84h22zM127.5 465.5q4.5 7.5 12 12t17.5 4.5t18 -4.5t12.5 -12t4.5 -17.5q0 -9 -4.5 -17t-12.5 -12.5t-18 -4.5t-17.5 4.5t-12 12.5t-4.5 17q0 10 4.5 17.5zM124 -19q0 5 2 8.5t5 5.5t7 2t7.5 -2t5.5 -5.5t2 -8.5v-19h-29v19zM170 147v-28l-39 14z" />
    <glyph glyph-name="zcaron" unicode="&#x17e;" 
d="M125 -107h86v-24h-86v-30h-22v84h22v-30zM107.5 418.5q7.5 -13.5 20.5 -21t29 -7.5t29 7.5t20.5 21t7.5 29.5t-7.5 29.5t-20.5 21t-29 7.5t-29 -7.5t-20.5 -21t-7.5 -29.5t7.5 -29.5zM211 -61v23h-37v16l37 21v26l-41 -24q-3 6 -7.5 10.5t-10.5 7t-13 2.5q-10 0 -18.5 -5
t-13 -13.5t-4.5 -19.5v-44h108zM103 65h108v-24h-108v24zM211 79v25l-20 7v43l20 8v26l-108 -44v-23zM211 201v66h-21v-42h-87v-24h108zM211 315v23h-41v38h-22v-38h-23v42h-22v-65h108zM211 524v23h-68l68 50v19h-108v-23h66l-66 -47v-22h108zM125 632v30h86v24h-86v30h-22
v-84h22zM127.5 465.5q4.5 7.5 12 12t17.5 4.5t18 -4.5t12.5 -12t4.5 -17.5q0 -9 -4.5 -17t-12.5 -12.5t-18 -4.5t-17.5 4.5t-12 12.5t-4.5 17q0 10 4.5 17.5zM124 -19q0 5 2 8.5t5 5.5t7 2t7.5 -2t5.5 -5.5t2 -8.5v-19h-29v19zM170 147v-28l-39 14z" />
    <glyph glyph-name="zdotaccent" unicode="&#x17c;" 
d="M125 -107h86v-24h-86v-30h-22v84h22v-30zM107.5 418.5q7.5 -13.5 20.5 -21t29 -7.5t29 7.5t20.5 21t7.5 29.5t-7.5 29.5t-20.5 21t-29 7.5t-29 -7.5t-20.5 -21t-7.5 -29.5t7.5 -29.5zM211 -61v23h-37v16l37 21v26l-41 -24q-3 6 -7.5 10.5t-10.5 7t-13 2.5q-10 0 -18.5 -5
t-13 -13.5t-4.5 -19.5v-44h108zM103 65h108v-24h-108v24zM211 79v25l-20 7v43l20 8v26l-108 -44v-23zM211 201v66h-21v-42h-87v-24h108zM211 315v23h-41v38h-22v-38h-23v42h-22v-65h108zM211 524v23h-68l68 50v19h-108v-23h66l-66 -47v-22h108zM125 632v30h86v24h-86v30h-22
v-84h22zM127.5 465.5q4.5 7.5 12 12t17.5 4.5t18 -4.5t12.5 -12t4.5 -17.5q0 -9 -4.5 -17t-12.5 -12.5t-18 -4.5t-17.5 4.5t-12 12.5t-4.5 17q0 10 4.5 17.5zM124 -19q0 5 2 8.5t5 5.5t7 2t7.5 -2t5.5 -5.5t2 -8.5v-19h-29v19zM170 147v-28l-39 14z" />
    <glyph glyph-name="germandbls.calt" 
d="M125 -107h86v-24h-86v-30h-22v84h22v-30zM107.5 418.5q7.5 -13.5 20.5 -21t29 -7.5t29 7.5t20.5 21t7.5 29.5t-7.5 29.5t-20.5 21t-29 7.5t-29 -7.5t-20.5 -21t-7.5 -29.5t7.5 -29.5zM211 -61v23h-37v16l37 21v26l-41 -24q-3 6 -7.5 10.5t-10.5 7t-13 2.5q-10 0 -18.5 -5
t-13 -13.5t-4.5 -19.5v-44h108zM103 65h108v-24h-108v24zM211 79v25l-20 7v43l20 8v26l-108 -44v-23zM211 201v66h-21v-42h-87v-24h108zM211 315v23h-41v38h-22v-38h-23v42h-22v-65h108zM211 524v23h-68l68 50v19h-108v-23h66l-66 -47v-22h108zM125 632v30h86v24h-86v30h-22
v-84h22zM127.5 465.5q4.5 7.5 12 12t17.5 4.5t18 -4.5t12.5 -12t4.5 -17.5q0 -9 -4.5 -17t-12.5 -12.5t-18 -4.5t-17.5 4.5t-12 12.5t-4.5 17q0 10 4.5 17.5zM124 -19q0 5 2 8.5t5 5.5t7 2t7.5 -2t5.5 -5.5t2 -8.5v-19h-29v19zM170 147v-28l-39 14z" />
    <glyph glyph-name="i.loclTRK" 
d="M125 -107h86v-24h-86v-30h-22v84h22v-30zM107.5 418.5q7.5 -13.5 20.5 -21t29 -7.5t29 7.5t20.5 21t7.5 29.5t-7.5 29.5t-20.5 21t-29 7.5t-29 -7.5t-20.5 -21t-7.5 -29.5t7.5 -29.5zM211 -61v23h-37v16l37 21v26l-41 -24q-3 6 -7.5 10.5t-10.5 7t-13 2.5q-10 0 -18.5 -5
t-13 -13.5t-4.5 -19.5v-44h108zM103 65h108v-24h-108v24zM211 79v25l-20 7v43l20 8v26l-108 -44v-23zM211 201v66h-21v-42h-87v-24h108zM211 315v23h-41v38h-22v-38h-23v42h-22v-65h108zM211 524v23h-68l68 50v19h-108v-23h66l-66 -47v-22h108zM125 632v30h86v24h-86v30h-22
v-84h22zM127.5 465.5q4.5 7.5 12 12t17.5 4.5t18 -4.5t12.5 -12t4.5 -17.5q0 -9 -4.5 -17t-12.5 -12.5t-18 -4.5t-17.5 4.5t-12 12.5t-4.5 17q0 10 4.5 17.5zM124 -19q0 5 2 8.5t5 5.5t7 2t7.5 -2t5.5 -5.5t2 -8.5v-19h-29v19zM170 147v-28l-39 14z" />
    <glyph glyph-name="a.ss01" 
d="M125 -107h86v-24h-86v-30h-22v84h22v-30zM107.5 418.5q7.5 -13.5 20.5 -21t29 -7.5t29 7.5t20.5 21t7.5 29.5t-7.5 29.5t-20.5 21t-29 7.5t-29 -7.5t-20.5 -21t-7.5 -29.5t7.5 -29.5zM211 -61v23h-37v16l37 21v26l-41 -24q-3 6 -7.5 10.5t-10.5 7t-13 2.5q-10 0 -18.5 -5
t-13 -13.5t-4.5 -19.5v-44h108zM103 65h108v-24h-108v24zM211 79v25l-20 7v43l20 8v26l-108 -44v-23zM211 201v66h-21v-42h-87v-24h108zM211 315v23h-41v38h-22v-38h-23v42h-22v-65h108zM211 524v23h-68l68 50v19h-108v-23h66l-66 -47v-22h108zM125 632v30h86v24h-86v30h-22
v-84h22zM127.5 465.5q4.5 7.5 12 12t17.5 4.5t18 -4.5t12.5 -12t4.5 -17.5q0 -9 -4.5 -17t-12.5 -12.5t-18 -4.5t-17.5 4.5t-12 12.5t-4.5 17q0 10 4.5 17.5zM124 -19q0 5 2 8.5t5 5.5t7 2t7.5 -2t5.5 -5.5t2 -8.5v-19h-29v19zM170 147v-28l-39 14z" />
    <glyph glyph-name="aacute.ss01" 
d="M125 -107h86v-24h-86v-30h-22v84h22v-30zM107.5 418.5q7.5 -13.5 20.5 -21t29 -7.5t29 7.5t20.5 21t7.5 29.5t-7.5 29.5t-20.5 21t-29 7.5t-29 -7.5t-20.5 -21t-7.5 -29.5t7.5 -29.5zM211 -61v23h-37v16l37 21v26l-41 -24q-3 6 -7.5 10.5t-10.5 7t-13 2.5q-10 0 -18.5 -5
t-13 -13.5t-4.5 -19.5v-44h108zM103 65h108v-24h-108v24zM211 79v25l-20 7v43l20 8v26l-108 -44v-23zM211 201v66h-21v-42h-87v-24h108zM211 315v23h-41v38h-22v-38h-23v42h-22v-65h108zM211 524v23h-68l68 50v19h-108v-23h66l-66 -47v-22h108zM125 632v30h86v24h-86v30h-22
v-84h22zM127.5 465.5q4.5 7.5 12 12t17.5 4.5t18 -4.5t12.5 -12t4.5 -17.5q0 -9 -4.5 -17t-12.5 -12.5t-18 -4.5t-17.5 4.5t-12 12.5t-4.5 17q0 10 4.5 17.5zM124 -19q0 5 2 8.5t5 5.5t7 2t7.5 -2t5.5 -5.5t2 -8.5v-19h-29v19zM170 147v-28l-39 14z" />
    <glyph glyph-name="abreve.ss01" 
d="M125 -107h86v-24h-86v-30h-22v84h22v-30zM107.5 418.5q7.5 -13.5 20.5 -21t29 -7.5t29 7.5t20.5 21t7.5 29.5t-7.5 29.5t-20.5 21t-29 7.5t-29 -7.5t-20.5 -21t-7.5 -29.5t7.5 -29.5zM211 -61v23h-37v16l37 21v26l-41 -24q-3 6 -7.5 10.5t-10.5 7t-13 2.5q-10 0 -18.5 -5
t-13 -13.5t-4.5 -19.5v-44h108zM103 65h108v-24h-108v24zM211 79v25l-20 7v43l20 8v26l-108 -44v-23zM211 201v66h-21v-42h-87v-24h108zM211 315v23h-41v38h-22v-38h-23v42h-22v-65h108zM211 524v23h-68l68 50v19h-108v-23h66l-66 -47v-22h108zM125 632v30h86v24h-86v30h-22
v-84h22zM127.5 465.5q4.5 7.5 12 12t17.5 4.5t18 -4.5t12.5 -12t4.5 -17.5q0 -9 -4.5 -17t-12.5 -12.5t-18 -4.5t-17.5 4.5t-12 12.5t-4.5 17q0 10 4.5 17.5zM124 -19q0 5 2 8.5t5 5.5t7 2t7.5 -2t5.5 -5.5t2 -8.5v-19h-29v19zM170 147v-28l-39 14z" />
    <glyph glyph-name="acircumflex.ss01" 
d="M125 -107h86v-24h-86v-30h-22v84h22v-30zM107.5 418.5q7.5 -13.5 20.5 -21t29 -7.5t29 7.5t20.5 21t7.5 29.5t-7.5 29.5t-20.5 21t-29 7.5t-29 -7.5t-20.5 -21t-7.5 -29.5t7.5 -29.5zM211 -61v23h-37v16l37 21v26l-41 -24q-3 6 -7.5 10.5t-10.5 7t-13 2.5q-10 0 -18.5 -5
t-13 -13.5t-4.5 -19.5v-44h108zM103 65h108v-24h-108v24zM211 79v25l-20 7v43l20 8v26l-108 -44v-23zM211 201v66h-21v-42h-87v-24h108zM211 315v23h-41v38h-22v-38h-23v42h-22v-65h108zM211 524v23h-68l68 50v19h-108v-23h66l-66 -47v-22h108zM125 632v30h86v24h-86v30h-22
v-84h22zM127.5 465.5q4.5 7.5 12 12t17.5 4.5t18 -4.5t12.5 -12t4.5 -17.5q0 -9 -4.5 -17t-12.5 -12.5t-18 -4.5t-17.5 4.5t-12 12.5t-4.5 17q0 10 4.5 17.5zM124 -19q0 5 2 8.5t5 5.5t7 2t7.5 -2t5.5 -5.5t2 -8.5v-19h-29v19zM170 147v-28l-39 14z" />
    <glyph glyph-name="adieresis.ss01" 
d="M125 -107h86v-24h-86v-30h-22v84h22v-30zM107.5 418.5q7.5 -13.5 20.5 -21t29 -7.5t29 7.5t20.5 21t7.5 29.5t-7.5 29.5t-20.5 21t-29 7.5t-29 -7.5t-20.5 -21t-7.5 -29.5t7.5 -29.5zM211 -61v23h-37v16l37 21v26l-41 -24q-3 6 -7.5 10.5t-10.5 7t-13 2.5q-10 0 -18.5 -5
t-13 -13.5t-4.5 -19.5v-44h108zM103 65h108v-24h-108v24zM211 79v25l-20 7v43l20 8v26l-108 -44v-23zM211 201v66h-21v-42h-87v-24h108zM211 315v23h-41v38h-22v-38h-23v42h-22v-65h108zM211 524v23h-68l68 50v19h-108v-23h66l-66 -47v-22h108zM125 632v30h86v24h-86v30h-22
v-84h22zM127.5 465.5q4.5 7.5 12 12t17.5 4.5t18 -4.5t12.5 -12t4.5 -17.5q0 -9 -4.5 -17t-12.5 -12.5t-18 -4.5t-17.5 4.5t-12 12.5t-4.5 17q0 10 4.5 17.5zM124 -19q0 5 2 8.5t5 5.5t7 2t7.5 -2t5.5 -5.5t2 -8.5v-19h-29v19zM170 147v-28l-39 14z" />
    <glyph glyph-name="agrave.ss01" 
d="M125 -107h86v-24h-86v-30h-22v84h22v-30zM107.5 418.5q7.5 -13.5 20.5 -21t29 -7.5t29 7.5t20.5 21t7.5 29.5t-7.5 29.5t-20.5 21t-29 7.5t-29 -7.5t-20.5 -21t-7.5 -29.5t7.5 -29.5zM211 -61v23h-37v16l37 21v26l-41 -24q-3 6 -7.5 10.5t-10.5 7t-13 2.5q-10 0 -18.5 -5
t-13 -13.5t-4.5 -19.5v-44h108zM103 65h108v-24h-108v24zM211 79v25l-20 7v43l20 8v26l-108 -44v-23zM211 201v66h-21v-42h-87v-24h108zM211 315v23h-41v38h-22v-38h-23v42h-22v-65h108zM211 524v23h-68l68 50v19h-108v-23h66l-66 -47v-22h108zM125 632v30h86v24h-86v30h-22
v-84h22zM127.5 465.5q4.5 7.5 12 12t17.5 4.5t18 -4.5t12.5 -12t4.5 -17.5q0 -9 -4.5 -17t-12.5 -12.5t-18 -4.5t-17.5 4.5t-12 12.5t-4.5 17q0 10 4.5 17.5zM124 -19q0 5 2 8.5t5 5.5t7 2t7.5 -2t5.5 -5.5t2 -8.5v-19h-29v19zM170 147v-28l-39 14z" />
    <glyph glyph-name="amacron.ss01" 
d="M125 -107h86v-24h-86v-30h-22v84h22v-30zM107.5 418.5q7.5 -13.5 20.5 -21t29 -7.5t29 7.5t20.5 21t7.5 29.5t-7.5 29.5t-20.5 21t-29 7.5t-29 -7.5t-20.5 -21t-7.5 -29.5t7.5 -29.5zM211 -61v23h-37v16l37 21v26l-41 -24q-3 6 -7.5 10.5t-10.5 7t-13 2.5q-10 0 -18.5 -5
t-13 -13.5t-4.5 -19.5v-44h108zM103 65h108v-24h-108v24zM211 79v25l-20 7v43l20 8v26l-108 -44v-23zM211 201v66h-21v-42h-87v-24h108zM211 315v23h-41v38h-22v-38h-23v42h-22v-65h108zM211 524v23h-68l68 50v19h-108v-23h66l-66 -47v-22h108zM125 632v30h86v24h-86v30h-22
v-84h22zM127.5 465.5q4.5 7.5 12 12t17.5 4.5t18 -4.5t12.5 -12t4.5 -17.5q0 -9 -4.5 -17t-12.5 -12.5t-18 -4.5t-17.5 4.5t-12 12.5t-4.5 17q0 10 4.5 17.5zM124 -19q0 5 2 8.5t5 5.5t7 2t7.5 -2t5.5 -5.5t2 -8.5v-19h-29v19zM170 147v-28l-39 14z" />
    <glyph glyph-name="aogonek.ss01" 
d="M125 -107h86v-24h-86v-30h-22v84h22v-30zM107.5 418.5q7.5 -13.5 20.5 -21t29 -7.5t29 7.5t20.5 21t7.5 29.5t-7.5 29.5t-20.5 21t-29 7.5t-29 -7.5t-20.5 -21t-7.5 -29.5t7.5 -29.5zM211 -61v23h-37v16l37 21v26l-41 -24q-3 6 -7.5 10.5t-10.5 7t-13 2.5q-10 0 -18.5 -5
t-13 -13.5t-4.5 -19.5v-44h108zM103 65h108v-24h-108v24zM211 79v25l-20 7v43l20 8v26l-108 -44v-23zM211 201v66h-21v-42h-87v-24h108zM211 315v23h-41v38h-22v-38h-23v42h-22v-65h108zM211 524v23h-68l68 50v19h-108v-23h66l-66 -47v-22h108zM125 632v30h86v24h-86v30h-22
v-84h22zM127.5 465.5q4.5 7.5 12 12t17.5 4.5t18 -4.5t12.5 -12t4.5 -17.5q0 -9 -4.5 -17t-12.5 -12.5t-18 -4.5t-17.5 4.5t-12 12.5t-4.5 17q0 10 4.5 17.5zM124 -19q0 5 2 8.5t5 5.5t7 2t7.5 -2t5.5 -5.5t2 -8.5v-19h-29v19zM170 147v-28l-39 14z" />
    <glyph glyph-name="aring.ss01" 
d="M125 -107h86v-24h-86v-30h-22v84h22v-30zM107.5 418.5q7.5 -13.5 20.5 -21t29 -7.5t29 7.5t20.5 21t7.5 29.5t-7.5 29.5t-20.5 21t-29 7.5t-29 -7.5t-20.5 -21t-7.5 -29.5t7.5 -29.5zM211 -61v23h-37v16l37 21v26l-41 -24q-3 6 -7.5 10.5t-10.5 7t-13 2.5q-10 0 -18.5 -5
t-13 -13.5t-4.5 -19.5v-44h108zM103 65h108v-24h-108v24zM211 79v25l-20 7v43l20 8v26l-108 -44v-23zM211 201v66h-21v-42h-87v-24h108zM211 315v23h-41v38h-22v-38h-23v42h-22v-65h108zM211 524v23h-68l68 50v19h-108v-23h66l-66 -47v-22h108zM125 632v30h86v24h-86v30h-22
v-84h22zM127.5 465.5q4.5 7.5 12 12t17.5 4.5t18 -4.5t12.5 -12t4.5 -17.5q0 -9 -4.5 -17t-12.5 -12.5t-18 -4.5t-17.5 4.5t-12 12.5t-4.5 17q0 10 4.5 17.5zM124 -19q0 5 2 8.5t5 5.5t7 2t7.5 -2t5.5 -5.5t2 -8.5v-19h-29v19zM170 147v-28l-39 14z" />
    <glyph glyph-name="atilde.ss01" 
d="M125 -107h86v-24h-86v-30h-22v84h22v-30zM107.5 418.5q7.5 -13.5 20.5 -21t29 -7.5t29 7.5t20.5 21t7.5 29.5t-7.5 29.5t-20.5 21t-29 7.5t-29 -7.5t-20.5 -21t-7.5 -29.5t7.5 -29.5zM211 -61v23h-37v16l37 21v26l-41 -24q-3 6 -7.5 10.5t-10.5 7t-13 2.5q-10 0 -18.5 -5
t-13 -13.5t-4.5 -19.5v-44h108zM103 65h108v-24h-108v24zM211 79v25l-20 7v43l20 8v26l-108 -44v-23zM211 201v66h-21v-42h-87v-24h108zM211 315v23h-41v38h-22v-38h-23v42h-22v-65h108zM211 524v23h-68l68 50v19h-108v-23h66l-66 -47v-22h108zM125 632v30h86v24h-86v30h-22
v-84h22zM127.5 465.5q4.5 7.5 12 12t17.5 4.5t18 -4.5t12.5 -12t4.5 -17.5q0 -9 -4.5 -17t-12.5 -12.5t-18 -4.5t-17.5 4.5t-12 12.5t-4.5 17q0 10 4.5 17.5zM124 -19q0 5 2 8.5t5 5.5t7 2t7.5 -2t5.5 -5.5t2 -8.5v-19h-29v19zM170 147v-28l-39 14z" />
    <glyph glyph-name="ae.ss01" 
d="M125 -107h86v-24h-86v-30h-22v84h22v-30zM107.5 418.5q7.5 -13.5 20.5 -21t29 -7.5t29 7.5t20.5 21t7.5 29.5t-7.5 29.5t-20.5 21t-29 7.5t-29 -7.5t-20.5 -21t-7.5 -29.5t7.5 -29.5zM211 -61v23h-37v16l37 21v26l-41 -24q-3 6 -7.5 10.5t-10.5 7t-13 2.5q-10 0 -18.5 -5
t-13 -13.5t-4.5 -19.5v-44h108zM103 65h108v-24h-108v24zM211 79v25l-20 7v43l20 8v26l-108 -44v-23zM211 201v66h-21v-42h-87v-24h108zM211 315v23h-41v38h-22v-38h-23v42h-22v-65h108zM211 524v23h-68l68 50v19h-108v-23h66l-66 -47v-22h108zM125 632v30h86v24h-86v30h-22
v-84h22zM127.5 465.5q4.5 7.5 12 12t17.5 4.5t18 -4.5t12.5 -12t4.5 -17.5q0 -9 -4.5 -17t-12.5 -12.5t-18 -4.5t-17.5 4.5t-12 12.5t-4.5 17q0 10 4.5 17.5zM124 -19q0 5 2 8.5t5 5.5t7 2t7.5 -2t5.5 -5.5t2 -8.5v-19h-29v19zM170 147v-28l-39 14z" />
    <glyph glyph-name="y.ss01" 
d="M125 -107h86v-24h-86v-30h-22v84h22v-30zM107.5 418.5q7.5 -13.5 20.5 -21t29 -7.5t29 7.5t20.5 21t7.5 29.5t-7.5 29.5t-20.5 21t-29 7.5t-29 -7.5t-20.5 -21t-7.5 -29.5t7.5 -29.5zM211 -61v23h-37v16l37 21v26l-41 -24q-3 6 -7.5 10.5t-10.5 7t-13 2.5q-10 0 -18.5 -5
t-13 -13.5t-4.5 -19.5v-44h108zM103 65h108v-24h-108v24zM211 79v25l-20 7v43l20 8v26l-108 -44v-23zM211 201v66h-21v-42h-87v-24h108zM211 315v23h-41v38h-22v-38h-23v42h-22v-65h108zM211 524v23h-68l68 50v19h-108v-23h66l-66 -47v-22h108zM125 632v30h86v24h-86v30h-22
v-84h22zM127.5 465.5q4.5 7.5 12 12t17.5 4.5t18 -4.5t12.5 -12t4.5 -17.5q0 -9 -4.5 -17t-12.5 -12.5t-18 -4.5t-17.5 4.5t-12 12.5t-4.5 17q0 10 4.5 17.5zM124 -19q0 5 2 8.5t5 5.5t7 2t7.5 -2t5.5 -5.5t2 -8.5v-19h-29v19zM170 147v-28l-39 14z" />
    <glyph glyph-name="yacute.ss01" 
d="M125 -107h86v-24h-86v-30h-22v84h22v-30zM107.5 418.5q7.5 -13.5 20.5 -21t29 -7.5t29 7.5t20.5 21t7.5 29.5t-7.5 29.5t-20.5 21t-29 7.5t-29 -7.5t-20.5 -21t-7.5 -29.5t7.5 -29.5zM211 -61v23h-37v16l37 21v26l-41 -24q-3 6 -7.5 10.5t-10.5 7t-13 2.5q-10 0 -18.5 -5
t-13 -13.5t-4.5 -19.5v-44h108zM103 65h108v-24h-108v24zM211 79v25l-20 7v43l20 8v26l-108 -44v-23zM211 201v66h-21v-42h-87v-24h108zM211 315v23h-41v38h-22v-38h-23v42h-22v-65h108zM211 524v23h-68l68 50v19h-108v-23h66l-66 -47v-22h108zM125 632v30h86v24h-86v30h-22
v-84h22zM127.5 465.5q4.5 7.5 12 12t17.5 4.5t18 -4.5t12.5 -12t4.5 -17.5q0 -9 -4.5 -17t-12.5 -12.5t-18 -4.5t-17.5 4.5t-12 12.5t-4.5 17q0 10 4.5 17.5zM124 -19q0 5 2 8.5t5 5.5t7 2t7.5 -2t5.5 -5.5t2 -8.5v-19h-29v19zM170 147v-28l-39 14z" />
    <glyph glyph-name="ycircumflex.ss01" 
d="M125 -107h86v-24h-86v-30h-22v84h22v-30zM107.5 418.5q7.5 -13.5 20.5 -21t29 -7.5t29 7.5t20.5 21t7.5 29.5t-7.5 29.5t-20.5 21t-29 7.5t-29 -7.5t-20.5 -21t-7.5 -29.5t7.5 -29.5zM211 -61v23h-37v16l37 21v26l-41 -24q-3 6 -7.5 10.5t-10.5 7t-13 2.5q-10 0 -18.5 -5
t-13 -13.5t-4.5 -19.5v-44h108zM103 65h108v-24h-108v24zM211 79v25l-20 7v43l20 8v26l-108 -44v-23zM211 201v66h-21v-42h-87v-24h108zM211 315v23h-41v38h-22v-38h-23v42h-22v-65h108zM211 524v23h-68l68 50v19h-108v-23h66l-66 -47v-22h108zM125 632v30h86v24h-86v30h-22
v-84h22zM127.5 465.5q4.5 7.5 12 12t17.5 4.5t18 -4.5t12.5 -12t4.5 -17.5q0 -9 -4.5 -17t-12.5 -12.5t-18 -4.5t-17.5 4.5t-12 12.5t-4.5 17q0 10 4.5 17.5zM124 -19q0 5 2 8.5t5 5.5t7 2t7.5 -2t5.5 -5.5t2 -8.5v-19h-29v19zM170 147v-28l-39 14z" />
    <glyph glyph-name="ydieresis.ss01" 
d="M125 -107h86v-24h-86v-30h-22v84h22v-30zM107.5 418.5q7.5 -13.5 20.5 -21t29 -7.5t29 7.5t20.5 21t7.5 29.5t-7.5 29.5t-20.5 21t-29 7.5t-29 -7.5t-20.5 -21t-7.5 -29.5t7.5 -29.5zM211 -61v23h-37v16l37 21v26l-41 -24q-3 6 -7.5 10.5t-10.5 7t-13 2.5q-10 0 -18.5 -5
t-13 -13.5t-4.5 -19.5v-44h108zM103 65h108v-24h-108v24zM211 79v25l-20 7v43l20 8v26l-108 -44v-23zM211 201v66h-21v-42h-87v-24h108zM211 315v23h-41v38h-22v-38h-23v42h-22v-65h108zM211 524v23h-68l68 50v19h-108v-23h66l-66 -47v-22h108zM125 632v30h86v24h-86v30h-22
v-84h22zM127.5 465.5q4.5 7.5 12 12t17.5 4.5t18 -4.5t12.5 -12t4.5 -17.5q0 -9 -4.5 -17t-12.5 -12.5t-18 -4.5t-17.5 4.5t-12 12.5t-4.5 17q0 10 4.5 17.5zM124 -19q0 5 2 8.5t5 5.5t7 2t7.5 -2t5.5 -5.5t2 -8.5v-19h-29v19zM170 147v-28l-39 14z" />
    <glyph glyph-name="ygrave.ss01" 
d="M125 -107h86v-24h-86v-30h-22v84h22v-30zM107.5 418.5q7.5 -13.5 20.5 -21t29 -7.5t29 7.5t20.5 21t7.5 29.5t-7.5 29.5t-20.5 21t-29 7.5t-29 -7.5t-20.5 -21t-7.5 -29.5t7.5 -29.5zM211 -61v23h-37v16l37 21v26l-41 -24q-3 6 -7.5 10.5t-10.5 7t-13 2.5q-10 0 -18.5 -5
t-13 -13.5t-4.5 -19.5v-44h108zM103 65h108v-24h-108v24zM211 79v25l-20 7v43l20 8v26l-108 -44v-23zM211 201v66h-21v-42h-87v-24h108zM211 315v23h-41v38h-22v-38h-23v42h-22v-65h108zM211 524v23h-68l68 50v19h-108v-23h66l-66 -47v-22h108zM125 632v30h86v24h-86v30h-22
v-84h22zM127.5 465.5q4.5 7.5 12 12t17.5 4.5t18 -4.5t12.5 -12t4.5 -17.5q0 -9 -4.5 -17t-12.5 -12.5t-18 -4.5t-17.5 4.5t-12 12.5t-4.5 17q0 10 4.5 17.5zM124 -19q0 5 2 8.5t5 5.5t7 2t7.5 -2t5.5 -5.5t2 -8.5v-19h-29v19zM170 147v-28l-39 14z" />
    <glyph glyph-name="ordfeminine" unicode="&#xaa;" 
d="M125 -107h86v-24h-86v-30h-22v84h22v-30zM107.5 418.5q7.5 -13.5 20.5 -21t29 -7.5t29 7.5t20.5 21t7.5 29.5t-7.5 29.5t-20.5 21t-29 7.5t-29 -7.5t-20.5 -21t-7.5 -29.5t7.5 -29.5zM211 -61v23h-37v16l37 21v26l-41 -24q-3 6 -7.5 10.5t-10.5 7t-13 2.5q-10 0 -18.5 -5
t-13 -13.5t-4.5 -19.5v-44h108zM103 65h108v-24h-108v24zM211 79v25l-20 7v43l20 8v26l-108 -44v-23zM211 201v66h-21v-42h-87v-24h108zM211 315v23h-41v38h-22v-38h-23v42h-22v-65h108zM211 524v23h-68l68 50v19h-108v-23h66l-66 -47v-22h108zM125 632v30h86v24h-86v30h-22
v-84h22zM127.5 465.5q4.5 7.5 12 12t17.5 4.5t18 -4.5t12.5 -12t4.5 -17.5q0 -9 -4.5 -17t-12.5 -12.5t-18 -4.5t-17.5 4.5t-12 12.5t-4.5 17q0 10 4.5 17.5zM124 -19q0 5 2 8.5t5 5.5t7 2t7.5 -2t5.5 -5.5t2 -8.5v-19h-29v19zM170 147v-28l-39 14z" />
    <glyph glyph-name="ordmasculine" unicode="&#xba;" 
d="M125 -107h86v-24h-86v-30h-22v84h22v-30zM107.5 418.5q7.5 -13.5 20.5 -21t29 -7.5t29 7.5t20.5 21t7.5 29.5t-7.5 29.5t-20.5 21t-29 7.5t-29 -7.5t-20.5 -21t-7.5 -29.5t7.5 -29.5zM211 -61v23h-37v16l37 21v26l-41 -24q-3 6 -7.5 10.5t-10.5 7t-13 2.5q-10 0 -18.5 -5
t-13 -13.5t-4.5 -19.5v-44h108zM103 65h108v-24h-108v24zM211 79v25l-20 7v43l20 8v26l-108 -44v-23zM211 201v66h-21v-42h-87v-24h108zM211 315v23h-41v38h-22v-38h-23v42h-22v-65h108zM211 524v23h-68l68 50v19h-108v-23h66l-66 -47v-22h108zM125 632v30h86v24h-86v30h-22
v-84h22zM127.5 465.5q4.5 7.5 12 12t17.5 4.5t18 -4.5t12.5 -12t4.5 -17.5q0 -9 -4.5 -17t-12.5 -12.5t-18 -4.5t-17.5 4.5t-12 12.5t-4.5 17q0 10 4.5 17.5zM124 -19q0 5 2 8.5t5 5.5t7 2t7.5 -2t5.5 -5.5t2 -8.5v-19h-29v19zM170 147v-28l-39 14z" />
    <glyph glyph-name="uni0410" unicode="&#x410;" horiz-adv-x="641" 
d="M281 700h78l269 -700h-84l-66 178h-318l-66 -178h-81zM453 246l-134 361l-134 -361h268z" />
    </font>
</defs>
</svg>
